%FSAX24Y24*%
%MOIN*%
G70*
G01*
G75*
G04 Layer_Physical_Order=1*
G04 Layer_Color=255*
%ADD10P,0.0835X4X202.5*%
%ADD11P,0.0835X4X157.5*%
%ADD12R,0.0591X0.0591*%
%ADD13P,0.0835X4X112.5*%
%ADD14P,0.0835X4X90.0*%
%ADD15P,0.0835X4X382.5*%
%ADD16P,0.0835X4X360.0*%
%ADD17P,0.0835X4X292.5*%
%ADD18P,0.0835X4X247.5*%
%ADD19P,0.1058X4X90.0*%
G04:AMPARAMS|DCode=20|XSize=63mil|YSize=55.1mil|CornerRadius=0mil|HoleSize=0mil|Usage=FLASHONLY|Rotation=45.000|XOffset=0mil|YOffset=0mil|HoleType=Round|Shape=Rectangle|*
%AMROTATEDRECTD20*
4,1,4,-0.0028,-0.0418,-0.0418,-0.0028,0.0028,0.0418,0.0418,0.0028,-0.0028,-0.0418,0.0*
%
%ADD20ROTATEDRECTD20*%

G04:AMPARAMS|DCode=21|XSize=15.7mil|YSize=53.2mil|CornerRadius=0mil|HoleSize=0mil|Usage=FLASHONLY|Rotation=45.000|XOffset=0mil|YOffset=0mil|HoleType=Round|Shape=Rectangle|*
%AMROTATEDRECTD21*
4,1,4,0.0132,-0.0244,-0.0244,0.0132,-0.0132,0.0244,0.0244,-0.0132,0.0132,-0.0244,0.0*
%
%ADD21ROTATEDRECTD21*%

%ADD22P,0.0835X4X337.5*%
%ADD23R,0.0591X0.0591*%
%ADD24R,0.0433X0.0669*%
%ADD25R,0.0197X0.0236*%
G04:AMPARAMS|DCode=26|XSize=66.9mil|YSize=43.3mil|CornerRadius=0mil|HoleSize=0mil|Usage=FLASHONLY|Rotation=45.000|XOffset=0mil|YOffset=0mil|HoleType=Round|Shape=Rectangle|*
%AMROTATEDRECTD26*
4,1,4,-0.0084,-0.0390,-0.0390,-0.0084,0.0084,0.0390,0.0390,0.0084,-0.0084,-0.0390,0.0*
%
%ADD26ROTATEDRECTD26*%

G04:AMPARAMS|DCode=27|XSize=21.7mil|YSize=68.9mil|CornerRadius=0mil|HoleSize=0mil|Usage=FLASHONLY|Rotation=135.000|XOffset=0mil|YOffset=0mil|HoleType=Round|Shape=Round|*
%AMOVALD27*
21,1,0.0472,0.0217,0.0000,0.0000,225.0*
1,1,0.0217,0.0167,0.0167*
1,1,0.0217,-0.0167,-0.0167*
%
%ADD27OVALD27*%

G04:AMPARAMS|DCode=28|XSize=21.7mil|YSize=68.9mil|CornerRadius=0mil|HoleSize=0mil|Usage=FLASHONLY|Rotation=45.000|XOffset=0mil|YOffset=0mil|HoleType=Round|Shape=Round|*
%AMOVALD28*
21,1,0.0472,0.0217,0.0000,0.0000,135.0*
1,1,0.0217,0.0167,-0.0167*
1,1,0.0217,-0.0167,0.0167*
%
%ADD28OVALD28*%

%ADD29R,0.0512X0.0984*%
%ADD30P,0.0835X4X67.5*%
%ADD31R,0.0591X0.0591*%
%ADD32R,0.0512X0.0610*%
%ADD33R,0.0098X0.0276*%
%ADD34R,0.0276X0.0098*%
%ADD35R,0.0236X0.0866*%
%ADD36R,0.0866X0.0236*%
%ADD37R,0.1181X0.0630*%
%ADD38R,0.2638X0.2638*%
G04:AMPARAMS|DCode=39|XSize=216.5mil|YSize=78.7mil|CornerRadius=0mil|HoleSize=0mil|Usage=FLASHONLY|Rotation=225.000|XOffset=0mil|YOffset=0mil|HoleType=Round|Shape=Rectangle|*
%AMROTATEDRECTD39*
4,1,4,0.0487,0.1044,0.1044,0.0487,-0.0487,-0.1044,-0.1044,-0.0487,0.0487,0.1044,0.0*
%
%ADD39ROTATEDRECTD39*%

%ADD40R,0.2165X0.0787*%
%ADD41R,0.0079X0.0197*%
G04:AMPARAMS|DCode=42|XSize=40mil|YSize=40mil|CornerRadius=20mil|HoleSize=0mil|Usage=FLASHONLY|Rotation=0.000|XOffset=0mil|YOffset=0mil|HoleType=Round|Shape=RoundedRectangle|*
%AMROUNDEDRECTD42*
21,1,0.0400,0.0000,0,0,0.0*
21,1,0.0000,0.0400,0,0,0.0*
1,1,0.0400,0.0000,0.0000*
1,1,0.0400,0.0000,0.0000*
1,1,0.0400,0.0000,0.0000*
1,1,0.0400,0.0000,0.0000*
%
%ADD42ROUNDEDRECTD42*%
%ADD43C,0.0512*%
%ADD44C,0.0039*%
%ADD45C,0.0100*%
%ADD46C,0.0140*%
%ADD47C,0.0200*%
%ADD48C,0.0005*%
G04:AMPARAMS|DCode=49|XSize=35.4mil|YSize=63mil|CornerRadius=0mil|HoleSize=0mil|Usage=FLASHONLY|Rotation=45.000|XOffset=0mil|YOffset=0mil|HoleType=Round|Shape=Round|*
%AMOVALD49*
21,1,0.0276,0.0354,0.0000,0.0000,135.0*
1,1,0.0354,0.0097,-0.0097*
1,1,0.0354,-0.0097,0.0097*
%
%ADD49OVALD49*%

%ADD50R,0.0591X0.0591*%
%ADD51C,0.0591*%
%ADD52C,0.0551*%
%ADD53C,0.0800*%
%ADD54C,0.0200*%
%ADD55C,0.2894*%
G36*
X081990Y086801D02*
Y049006D01*
X077265Y044282D01*
X039470D01*
X034746Y049006D01*
Y086801D01*
X039424Y091480D01*
X039470Y091461D01*
Y088140D01*
X041933D01*
Y088203D01*
X041714Y088203D01*
X041714Y088203D01*
X041714Y088203D01*
X041712Y088204D01*
X041711Y088206D01*
X041711Y088459D01*
X039870Y088455D01*
X039870Y088455D01*
X039870Y088455D01*
X039868Y088456D01*
X039867Y088458D01*
X039867Y088963D01*
X039867Y090007D01*
X039867Y090399D01*
X039867Y090872D01*
X039867D01*
X039868Y090874D01*
X039870Y090875D01*
X049939Y090898D01*
Y090899D01*
X049939Y090899D01*
X049941Y090898D01*
X049941Y090896D01*
X049941Y090422D01*
X049941Y090422D01*
X049941Y090420D01*
X049939Y090419D01*
X042620Y090403D01*
X042620Y090014D01*
X042620Y089666D01*
X043011Y089667D01*
X043011Y089667D01*
X043011Y089667D01*
X043013Y089666D01*
X043014Y089664D01*
X043014Y089409D01*
X043333Y089092D01*
X043334Y089092D01*
X043334Y089092D01*
X043333Y089092D01*
X043334Y089092D01*
X043334Y089092D01*
X043334Y089092D01*
X043334Y089090D01*
X043334Y088209D01*
X043334D01*
X043334Y088207D01*
X043332Y088207D01*
X043151Y088206D01*
Y088206D01*
X043151Y088206D01*
X043148Y088207D01*
X043148Y088209D01*
X043148Y089014D01*
X042972Y089188D01*
X041714Y089185D01*
Y089185D01*
X041714Y089185D01*
X041712Y089186D01*
X041711Y089188D01*
X041711Y089661D01*
X041711Y089661D01*
X041712Y089663D01*
X041714Y089664D01*
X042105Y089665D01*
X042105Y090010D01*
X040731Y090007D01*
X040731Y088967D01*
X042973Y088972D01*
X042973Y088973D01*
X042973Y088973D01*
X042975Y088972D01*
X042976Y088970D01*
X042976Y088428D01*
X042976Y088209D01*
X042976Y088209D01*
X042975Y088207D01*
X042973Y088206D01*
X042722Y088205D01*
Y088140D01*
X043062D01*
Y088124D01*
X043177D01*
X043762Y087539D01*
X043831Y087492D01*
X043913Y087476D01*
X045496D01*
Y087255D01*
X046366D01*
Y088125D01*
X046410Y088140D01*
X046830D01*
X046874Y088125D01*
X046874Y088090D01*
Y087255D01*
X046850Y087215D01*
X046795D01*
Y086265D01*
X047508D01*
Y086526D01*
X048020D01*
X048102Y086542D01*
X048171Y086589D01*
X049159Y087576D01*
X054781D01*
X055161Y087196D01*
X055137Y087150D01*
X055070Y087163D01*
Y086790D01*
Y086417D01*
X055080Y086419D01*
X055115Y086384D01*
X055096Y086290D01*
X055115Y086196D01*
X055080Y086161D01*
X055070Y086163D01*
Y085790D01*
Y085417D01*
X055167Y085436D01*
X055221Y085473D01*
X055280Y085452D01*
X055282Y085445D01*
X055282Y085445D01*
X055282Y085445D01*
Y084929D01*
Y084535D01*
X055282D01*
Y084495D01*
X055282D01*
Y083979D01*
Y083585D01*
X055291D01*
Y083464D01*
X054855D01*
X054835Y083460D01*
X054810Y083506D01*
X054925Y083621D01*
X054982Y083632D01*
X055062Y083685D01*
X055115Y083765D01*
X055133Y083858D01*
X055115Y083952D01*
X055062Y084031D01*
X054982Y084084D01*
X054889Y084103D01*
X054795Y084084D01*
X054716Y084031D01*
X054663Y083952D01*
X054651Y083895D01*
X054480Y083723D01*
X054464Y083720D01*
X054282D01*
Y083902D01*
X054287Y083925D01*
Y084133D01*
X054357Y084203D01*
X054399Y084266D01*
X054414Y084340D01*
Y084666D01*
X054655D01*
Y085536D01*
X053818D01*
X053785Y085536D01*
X053768Y085579D01*
X053768Y085579D01*
Y085625D01*
X053502D01*
Y085190D01*
Y084755D01*
X053735D01*
X053768Y084755D01*
X053785Y084712D01*
Y084666D01*
X054026D01*
Y084420D01*
X053956Y084350D01*
X053931Y084313D01*
X053878Y084322D01*
X053836Y084385D01*
X053826Y084395D01*
X053815Y084452D01*
X053762Y084531D01*
X053682Y084584D01*
X053589Y084603D01*
X053495Y084584D01*
X053416Y084531D01*
X053363Y084452D01*
X053349Y084385D01*
X053332Y084359D01*
X053323Y084346D01*
Y084346D01*
X053323Y084346D01*
X053315Y084301D01*
X053309Y084272D01*
Y084162D01*
X053156D01*
Y083975D01*
X053306D01*
Y083925D01*
X053309D01*
Y083925D01*
X053313Y083902D01*
Y083687D01*
X053313D01*
Y083647D01*
X053510D01*
Y083647D01*
X053888D01*
Y083647D01*
X053888D01*
Y083902D01*
X053893Y083925D01*
Y083925D01*
X053899D01*
Y083925D01*
X053904Y083902D01*
Y083647D01*
X053904D01*
Y083647D01*
X054209D01*
Y083342D01*
X054209D01*
X054209Y083326D01*
X054209D01*
Y082948D01*
Y082751D01*
Y082628D01*
X053904D01*
Y082628D01*
X053707D01*
Y082628D01*
X053707D01*
Y082373D01*
X053702Y082350D01*
X053696D01*
X053692Y082373D01*
Y082628D01*
X053692D01*
Y082628D01*
X053190D01*
Y082751D01*
X053190D01*
Y083095D01*
X053190Y083129D01*
X053190Y083130D01*
X053190Y083130D01*
X053190Y083131D01*
Y083143D01*
X053190Y083145D01*
D01*
X053190Y083159D01*
X053190Y083179D01*
Y083179D01*
Y083179D01*
X053190D01*
Y083523D01*
X053190D01*
Y083687D01*
X053256D01*
Y083875D01*
X053156D01*
Y083720D01*
X052934D01*
X052912Y083725D01*
X052698D01*
X052696Y083734D01*
X052643Y083813D01*
X052564Y083866D01*
X052470Y083885D01*
X052376Y083866D01*
X052297Y083813D01*
X052272Y083776D01*
X052216Y083781D01*
X052130Y083988D01*
X051811Y083856D01*
X051943Y083537D01*
X052166Y083630D01*
X052213Y083605D01*
X052220Y083570D01*
X052187Y083528D01*
X052164D01*
X052090Y083513D01*
X052027Y083471D01*
X050833Y082277D01*
X050776Y082266D01*
X050697Y082213D01*
X050644Y082134D01*
X050625Y082040D01*
X050644Y081946D01*
X050697Y081867D01*
X050776Y081814D01*
X050870Y081795D01*
X050964Y081814D01*
X051009Y081844D01*
X051047Y081787D01*
X051126Y081734D01*
X051220Y081715D01*
X051314Y081734D01*
X051339Y081750D01*
X051388Y081741D01*
X051397Y081727D01*
X051476Y081674D01*
X051570Y081655D01*
X051664Y081674D01*
X051689Y081690D01*
X051738Y081680D01*
X051747Y081666D01*
X051826Y081613D01*
X051920Y081595D01*
X052014Y081613D01*
X052020Y081618D01*
X052069Y081608D01*
X052097Y081567D01*
X052176Y081514D01*
X052270Y081495D01*
X052364Y081514D01*
X052443Y081567D01*
X052496Y081646D01*
X052515Y081740D01*
X052507Y081779D01*
X052884Y082156D01*
X053081D01*
X053116Y082121D01*
Y082096D01*
X053116Y082072D01*
X053079Y082041D01*
X053045Y082034D01*
X052966Y081981D01*
X052913Y081902D01*
X052894Y081808D01*
X052913Y081715D01*
X052966Y081635D01*
X052972Y081631D01*
X052958Y081583D01*
X052651D01*
Y081026D01*
X051958Y080333D01*
X051916Y080270D01*
X051901Y080196D01*
Y079833D01*
X050872D01*
Y078765D01*
X053318D01*
Y079833D01*
X052289D01*
Y080116D01*
X052807Y080634D01*
X053364D01*
Y081191D01*
X053704Y081531D01*
X053754Y081510D01*
Y081158D01*
X054387D01*
Y081294D01*
X054433Y081313D01*
X054562Y081183D01*
Y080626D01*
X054690D01*
X054725Y080591D01*
Y080478D01*
X054740Y080404D01*
X054782Y080341D01*
X055199Y079924D01*
Y079868D01*
X055163Y079833D01*
X054170D01*
Y078765D01*
X056615D01*
Y079833D01*
X055586D01*
Y080005D01*
X055571Y080079D01*
X055529Y080141D01*
X055112Y080558D01*
Y080626D01*
X055275D01*
Y081575D01*
X054718D01*
X054287Y082007D01*
Y082350D01*
X054282Y082372D01*
Y082554D01*
X054359D01*
X054438Y082475D01*
X054439Y082468D01*
X054486Y082398D01*
X054555Y082352D01*
X054637Y082336D01*
X054726Y082336D01*
X054767Y082295D01*
Y082089D01*
X054807D01*
Y082003D01*
X055204D01*
Y082064D01*
X055254Y082089D01*
X055267Y082089D01*
X055307Y082064D01*
Y082003D01*
X055704D01*
Y082089D01*
X055744D01*
Y082139D01*
X055932D01*
X055967Y082104D01*
Y082095D01*
X056444D01*
Y082611D01*
X056444D01*
Y083005D01*
X056211D01*
X056149Y083017D01*
X055744Y083017D01*
Y083061D01*
Y083455D01*
X055720D01*
Y083585D01*
X055758D01*
Y083979D01*
Y084495D01*
X055758D01*
Y084535D01*
X055758D01*
Y084929D01*
Y085445D01*
X055758Y085445D01*
X055758D01*
X055760Y085452D01*
X055819Y085473D01*
X055873Y085436D01*
X055970Y085417D01*
Y085790D01*
Y086163D01*
X055960Y086161D01*
X055925Y086196D01*
X055944Y086290D01*
X055925Y086384D01*
X055960Y086419D01*
X055970Y086417D01*
Y086790D01*
Y087163D01*
X055873Y087144D01*
X055784Y087084D01*
X055734Y087111D01*
Y087140D01*
X055718Y087222D01*
X055671Y087291D01*
X055021Y087941D01*
X054952Y087988D01*
X054870Y088004D01*
X049070D01*
X048988Y087988D01*
X048919Y087941D01*
X047931Y086954D01*
X047523D01*
Y087255D01*
X047744D01*
Y088090D01*
X047744Y088125D01*
X047788Y088140D01*
D01*
X052856D01*
Y091526D01*
X077265D01*
X081990Y086801D01*
D02*
G37*
G36*
X045496Y088125D02*
Y087904D01*
X044002D01*
X043812Y088094D01*
X043831Y088140D01*
X045452D01*
X045496Y088125D01*
D02*
G37*
G36*
X043334Y089092D02*
D01*
X043334Y089092D01*
X043334Y089092D01*
X043334Y089092D01*
X043334Y089092D01*
X043334Y089092D01*
D02*
G37*
G36*
X043334Y089092D02*
X043334Y089092D01*
D01*
X043334Y089092D01*
D01*
D01*
D02*
G37*
%LPC*%
G36*
X042179Y061611D02*
X041860Y061479D01*
X041992Y061160D01*
X042311Y061292D01*
X042179Y061611D01*
D02*
G37*
G36*
X074561D02*
X074429Y061292D01*
X074748Y061160D01*
X074880Y061479D01*
X074561Y061611D01*
D02*
G37*
G36*
X073979Y061370D02*
X073847Y061051D01*
X074166Y060919D01*
X074298Y061238D01*
X073979Y061370D01*
D02*
G37*
G36*
X074390Y061200D02*
X074258Y060881D01*
X074577Y060749D01*
X074709Y061068D01*
X074390Y061200D01*
D02*
G37*
G36*
X063929Y061345D02*
X063657Y061073D01*
X063846Y060885D01*
X064118Y061157D01*
X063929Y061345D01*
D02*
G37*
G36*
X065789Y062736D02*
X065517Y062464D01*
X065705Y062276D01*
X065977Y062548D01*
X065789Y062736D01*
D02*
G37*
G36*
X065529Y062995D02*
X065257Y062723D01*
X065446Y062535D01*
X065718Y062807D01*
X065529Y062995D01*
D02*
G37*
G36*
X065187Y062653D02*
X064915Y062381D01*
X065103Y062192D01*
X065375Y062464D01*
X065187Y062653D01*
D02*
G37*
G36*
X042591Y061782D02*
X042272Y061650D01*
X042404Y061331D01*
X042723Y061463D01*
X042591Y061782D01*
D02*
G37*
G36*
X065446Y062393D02*
X065174Y062121D01*
X065362Y061933D01*
X065634Y062205D01*
X065446Y062393D01*
D02*
G37*
G36*
X042350Y061200D02*
X042031Y061068D01*
X042163Y060749D01*
X042482Y060881D01*
X042350Y061200D01*
D02*
G37*
G36*
X070962Y057125D02*
X070656D01*
Y056770D01*
X070962D01*
Y057125D01*
D02*
G37*
G36*
X070556Y057580D02*
X070250D01*
Y057225D01*
X070556D01*
Y057580D01*
D02*
G37*
G36*
Y057125D02*
X070250D01*
Y056770D01*
X070556D01*
Y057125D01*
D02*
G37*
G36*
X046129Y056208D02*
X045885Y055964D01*
X046129Y055720D01*
X046373Y055964D01*
X046129Y056208D01*
D02*
G37*
G36*
X050160Y056950D02*
X049992D01*
Y056467D01*
X050160D01*
Y056950D01*
D02*
G37*
G36*
X063587Y061003D02*
X063315Y060731D01*
X063503Y060542D01*
X063775Y060814D01*
X063587Y061003D01*
D02*
G37*
G36*
X064189Y061086D02*
X063917Y060814D01*
X064105Y060626D01*
X064377Y060898D01*
X064189Y061086D01*
D02*
G37*
G36*
X070962Y060255D02*
X070656D01*
Y059900D01*
X070962D01*
Y060255D01*
D02*
G37*
G36*
Y057580D02*
X070656D01*
Y057225D01*
X070962D01*
Y057580D01*
D02*
G37*
G36*
X070556Y060255D02*
X070250D01*
Y059900D01*
X070556D01*
Y060255D01*
D02*
G37*
G36*
X054258Y067265D02*
X053545D01*
Y066315D01*
X053876D01*
Y065682D01*
X053844Y065634D01*
X053825Y065540D01*
X053844Y065446D01*
X053897Y065367D01*
X053976Y065314D01*
X054070Y065295D01*
X054164Y065314D01*
X054243Y065367D01*
X054296Y065446D01*
X054315Y065540D01*
X054296Y065634D01*
X054264Y065682D01*
Y066621D01*
X054258Y066650D01*
Y067265D01*
D02*
G37*
G36*
X076076Y068285D02*
X075731D01*
Y067940D01*
X076076D01*
Y068285D01*
D02*
G37*
G36*
X061056Y068279D02*
X060782Y068004D01*
X060808Y067986D01*
X060889Y067970D01*
X060971Y067986D01*
X061040Y068032D01*
X061171Y068164D01*
X061056Y068279D01*
D02*
G37*
G36*
X075631Y068285D02*
X075286D01*
Y067940D01*
X075631D01*
Y068285D01*
D02*
G37*
G36*
X041009D02*
X040664D01*
Y067940D01*
X041009D01*
Y068285D01*
D02*
G37*
G36*
X041454D02*
X041109D01*
Y067940D01*
X041454D01*
Y068285D01*
D02*
G37*
G36*
X057744Y070997D02*
X057647Y070977D01*
X057565Y070922D01*
X057510Y070840D01*
X057491Y070743D01*
X057478Y070725D01*
X057440Y070717D01*
X057413Y070699D01*
X057723Y070389D01*
X058033Y070079D01*
X058051Y070105D01*
X058059Y070144D01*
X058078Y070156D01*
X058175Y070176D01*
X058257Y070230D01*
X058312Y070313D01*
X058331Y070409D01*
X058312Y070506D01*
X058257Y070588D01*
X057923Y070922D01*
X057840Y070977D01*
X057744Y070997D01*
D02*
G37*
G36*
X064570Y070640D02*
X064426D01*
X064432Y070612D01*
X064476Y070546D01*
X064542Y070502D01*
X064570Y070496D01*
Y070640D01*
D02*
G37*
G36*
X072370Y070734D02*
X072200Y070700D01*
X072056Y070604D01*
X071960Y070460D01*
X071926Y070290D01*
X071960Y070120D01*
X072056Y069976D01*
X072200Y069880D01*
X072370Y069846D01*
X072540Y069880D01*
X072684Y069976D01*
X072780Y070120D01*
X072814Y070290D01*
X072780Y070460D01*
X072684Y070604D01*
X072540Y070700D01*
X072370Y070734D01*
D02*
G37*
G36*
X061402Y068624D02*
X061127Y068349D01*
X061242Y068235D01*
X061374Y068366D01*
X061420Y068435D01*
X061436Y068516D01*
X061420Y068598D01*
X061402Y068624D01*
D02*
G37*
G36*
X072370Y069734D02*
X072200Y069700D01*
X072056Y069604D01*
X071960Y069460D01*
X071926Y069290D01*
X071960Y069120D01*
X072056Y068976D01*
X072200Y068880D01*
X072370Y068846D01*
X072540Y068880D01*
X072684Y068976D01*
X072780Y069120D01*
X072814Y069290D01*
X072780Y069460D01*
X072684Y069604D01*
X072540Y069700D01*
X072370Y069734D01*
D02*
G37*
G36*
Y068734D02*
X072200Y068700D01*
X072056Y068604D01*
X071960Y068460D01*
X071926Y068290D01*
X071960Y068120D01*
X072056Y067976D01*
X072200Y067880D01*
X072370Y067846D01*
X072540Y067880D01*
X072684Y067976D01*
X072780Y068120D01*
X072814Y068290D01*
X072780Y068460D01*
X072684Y068604D01*
X072540Y068700D01*
X072370Y068734D01*
D02*
G37*
G36*
X052789Y067225D02*
X052522D01*
Y066840D01*
X052789D01*
Y067225D01*
D02*
G37*
G36*
X053155D02*
X052888D01*
Y066840D01*
X053155D01*
Y067225D01*
D02*
G37*
G36*
Y066740D02*
X052888D01*
Y066355D01*
X053155D01*
Y066740D01*
D02*
G37*
G36*
X072370Y066734D02*
X072200Y066700D01*
X072056Y066604D01*
X071960Y066460D01*
X071926Y066290D01*
X071960Y066120D01*
X072056Y065976D01*
X072200Y065880D01*
X072370Y065846D01*
X072540Y065880D01*
X072684Y065976D01*
X072780Y066120D01*
X072814Y066290D01*
X072780Y066460D01*
X072684Y066604D01*
X072540Y066700D01*
X072370Y066734D01*
D02*
G37*
G36*
X052789Y066740D02*
X052522D01*
Y066355D01*
X052789D01*
Y066740D01*
D02*
G37*
G36*
X075631Y067840D02*
X075286D01*
Y067495D01*
X075631D01*
Y067840D01*
D02*
G37*
G36*
X076076D02*
X075731D01*
Y067495D01*
X076076D01*
Y067840D01*
D02*
G37*
G36*
X041454D02*
X041109D01*
Y067495D01*
X041454D01*
Y067840D01*
D02*
G37*
G36*
X072370Y067734D02*
X072200Y067700D01*
X072056Y067604D01*
X071960Y067460D01*
X071926Y067290D01*
X071960Y067120D01*
X072056Y066976D01*
X072200Y066880D01*
X072370Y066846D01*
X072540Y066880D01*
X072684Y066976D01*
X072780Y067120D01*
X072814Y067290D01*
X072780Y067460D01*
X072684Y067604D01*
X072540Y067700D01*
X072370Y067734D01*
D02*
G37*
G36*
X041009Y067840D02*
X040664D01*
Y067495D01*
X041009D01*
Y067840D01*
D02*
G37*
G36*
X070450Y048584D02*
X070144D01*
Y048042D01*
X070450D01*
Y048584D01*
D02*
G37*
G36*
X070856D02*
X070550D01*
Y048042D01*
X070856D01*
Y048584D01*
D02*
G37*
G36*
X072756Y048584D02*
X072450D01*
Y048042D01*
X072756D01*
Y048584D01*
D02*
G37*
G36*
X079001Y048285D02*
X078910Y048194D01*
X079133Y047971D01*
X079224Y048062D01*
X079001Y048285D01*
D02*
G37*
G36*
X072350Y048584D02*
X072044D01*
Y048042D01*
X072350D01*
Y048584D01*
D02*
G37*
G36*
X078170Y051685D02*
X078029Y051666D01*
X077898Y051612D01*
X077785Y051525D01*
X077698Y051412D01*
X077644Y051281D01*
X077625Y051140D01*
X077644Y050999D01*
X077698Y050868D01*
X077785Y050755D01*
X077898Y050668D01*
X078029Y050614D01*
X078170Y050595D01*
X078311Y050614D01*
X078442Y050668D01*
X078555Y050755D01*
X078642Y050868D01*
X078696Y050999D01*
X078715Y051140D01*
X078696Y051281D01*
X078642Y051412D01*
X078555Y051525D01*
X078442Y051612D01*
X078311Y051666D01*
X078170Y051685D01*
D02*
G37*
G36*
X058320Y050974D02*
X057975D01*
Y050629D01*
X058320D01*
Y050974D01*
D02*
G37*
G36*
X058765Y050529D02*
X058420D01*
Y050184D01*
X058765D01*
Y050529D01*
D02*
G37*
G36*
X078707Y048579D02*
X078616Y048488D01*
X078839Y048265D01*
X078930Y048356D01*
X078707Y048579D01*
D02*
G37*
G36*
X058320Y050529D02*
X057975D01*
Y050184D01*
X058320D01*
Y050529D01*
D02*
G37*
G36*
X074185Y048095D02*
X073918D01*
Y047710D01*
X074185D01*
Y048095D01*
D02*
G37*
G36*
Y047610D02*
X073918D01*
Y047225D01*
X074185D01*
Y047610D01*
D02*
G37*
G36*
X072350Y047942D02*
X072044D01*
Y047400D01*
X072350D01*
Y047942D01*
D02*
G37*
G36*
X073818Y047610D02*
X073552D01*
Y047225D01*
X073818D01*
Y047610D01*
D02*
G37*
G36*
X073818Y046995D02*
X073552D01*
Y046610D01*
X073818D01*
Y046995D01*
D02*
G37*
G36*
X074185D02*
X073918D01*
Y046610D01*
X074185D01*
Y046995D01*
D02*
G37*
G36*
X079457Y049278D02*
X078813Y048635D01*
X079357Y048091D01*
X079390Y048058D01*
X079390D01*
X079401Y048013D01*
X079401Y047998D01*
X079401Y047997D01*
X078827Y047424D01*
X078313Y046909D01*
X078297Y046909D01*
X078252Y046920D01*
X078219Y046953D01*
X077675Y047497D01*
X077032Y046853D01*
X077619Y046266D01*
X078109Y046756D01*
X078125Y046756D01*
X078170Y046745D01*
X078170Y046745D01*
X078203Y046712D01*
X078289Y046626D01*
X078264Y046580D01*
X078204Y046592D01*
X078080Y046568D01*
X077975Y046497D01*
X077905Y046392D01*
X077881Y046269D01*
X077905Y046145D01*
X077975Y046040D01*
X078170Y045845D01*
X078275Y045775D01*
X078399Y045750D01*
X078523Y045775D01*
X078627Y045845D01*
X078698Y045950D01*
X078722Y046074D01*
X078710Y046134D01*
X078756Y046159D01*
X078886Y046029D01*
X079554Y046697D01*
X080281Y047424D01*
X080151Y047554D01*
X080176Y047600D01*
X080236Y047588D01*
X080360Y047612D01*
X080465Y047683D01*
X080535Y047787D01*
X080560Y047911D01*
X080535Y048035D01*
X080465Y048140D01*
X080270Y048335D01*
X080165Y048405D01*
X080041Y048429D01*
X079917Y048405D01*
X079813Y048335D01*
X079742Y048230D01*
X079718Y048106D01*
X079730Y048046D01*
X079684Y048021D01*
X079598Y048107D01*
X079565Y048140D01*
X079565D01*
X079554Y048185D01*
X079554Y048201D01*
X079554Y048201D01*
X080044Y048691D01*
X079457Y049278D01*
D02*
G37*
G36*
X073818Y048095D02*
X073552D01*
Y047710D01*
X073818D01*
Y048095D01*
D02*
G37*
G36*
X070856Y047942D02*
X070550D01*
Y047400D01*
X070856D01*
Y047942D01*
D02*
G37*
G36*
X072756Y047942D02*
X072450D01*
Y047400D01*
X072756D01*
Y047942D01*
D02*
G37*
G36*
X070450Y047942D02*
X070144D01*
Y047400D01*
X070450D01*
Y047942D01*
D02*
G37*
G36*
X058765Y050974D02*
X058420D01*
Y050629D01*
X058765D01*
Y050974D01*
D02*
G37*
G36*
X077615Y054579D02*
X077270D01*
Y054234D01*
X077615D01*
Y054579D01*
D02*
G37*
G36*
X077170Y055024D02*
X076825D01*
Y054679D01*
X077170D01*
Y055024D01*
D02*
G37*
G36*
Y054579D02*
X076825D01*
Y054234D01*
X077170D01*
Y054579D01*
D02*
G37*
G36*
X078500Y055615D02*
X078406Y055596D01*
X078327Y055543D01*
X078274Y055464D01*
X078255Y055370D01*
X078274Y055276D01*
X078306Y055228D01*
Y055064D01*
X078065D01*
Y054194D01*
X078935D01*
Y055064D01*
X078694D01*
Y055228D01*
X078726Y055276D01*
X078745Y055370D01*
X078726Y055464D01*
X078673Y055543D01*
X078594Y055596D01*
X078500Y055615D01*
D02*
G37*
G36*
X079790Y055905D02*
X079696Y055886D01*
X079617Y055833D01*
X079564Y055754D01*
X079545Y055660D01*
X079564Y055566D01*
X079596Y055518D01*
Y055064D01*
X079345D01*
Y054194D01*
X080215D01*
Y055064D01*
X079984D01*
Y055518D01*
X080016Y055566D01*
X080035Y055660D01*
X080016Y055754D01*
X079963Y055833D01*
X079884Y055886D01*
X079790Y055905D01*
D02*
G37*
G36*
X070926Y055893D02*
X070681Y055649D01*
X070926Y055405D01*
X071170Y055649D01*
X070926Y055893D01*
D02*
G37*
G36*
X045814Y055893D02*
X045570Y055649D01*
X045814Y055405D01*
X046059Y055649D01*
X045814Y055893D01*
D02*
G37*
G36*
X070296Y055893D02*
X070052Y055649D01*
X070296Y055405D01*
X070540Y055649D01*
X070296Y055893D01*
D02*
G37*
G36*
X077615Y055024D02*
X077270D01*
Y054679D01*
X077615D01*
Y055024D01*
D02*
G37*
G36*
X070611Y055579D02*
X070367Y055334D01*
X070611Y055090D01*
X070855Y055334D01*
X070611Y055579D01*
D02*
G37*
G36*
X051531Y052413D02*
X051399Y052094D01*
X051718Y051962D01*
X051850Y052281D01*
X051531Y052413D01*
D02*
G37*
G36*
X080120Y051638D02*
X080039Y051627D01*
X079918Y051577D01*
X079813Y051497D01*
X079733Y051392D01*
X079683Y051271D01*
X079672Y051190D01*
X080120D01*
Y051638D01*
D02*
G37*
G36*
X080220D02*
Y051190D01*
X080668D01*
X080657Y051271D01*
X080607Y051392D01*
X080527Y051497D01*
X080422Y051577D01*
X080301Y051627D01*
X080220Y051638D01*
D02*
G37*
G36*
X072520Y056185D02*
X072426Y056166D01*
X072347Y056113D01*
X072294Y056034D01*
X072275Y055940D01*
X072294Y055846D01*
X072326Y055798D01*
Y054340D01*
X072341Y054266D01*
X072383Y054203D01*
X075074Y051513D01*
X075071Y051462D01*
X075027Y051433D01*
X074827Y051233D01*
X074827Y051233D01*
X074612Y051018D01*
X074555Y051019D01*
X074523Y051055D01*
Y051518D01*
X073377D01*
Y051518D01*
X073364Y051505D01*
X073200D01*
X073106Y051486D01*
X073027Y051433D01*
X072974Y051354D01*
X072955Y051260D01*
X072974Y051166D01*
X073027Y051087D01*
X073106Y051034D01*
X073200Y051015D01*
X073377D01*
Y051002D01*
Y050502D01*
Y050485D01*
X072820D01*
X072726Y050466D01*
X072647Y050413D01*
X072594Y050334D01*
X072575Y050240D01*
X072594Y050146D01*
X072647Y050067D01*
X072726Y050014D01*
X072820Y049995D01*
X073377D01*
Y049502D01*
X074523D01*
Y049515D01*
X074600D01*
X074649Y049525D01*
X074687Y049487D01*
Y048135D01*
X074575D01*
Y047185D01*
X075060D01*
X075165Y047081D01*
X075145Y047035D01*
X074950D01*
X074932Y047038D01*
X074872Y047038D01*
X074853Y047035D01*
X074575D01*
Y046550D01*
X074231Y046206D01*
X074185Y046225D01*
Y046510D01*
X073552D01*
Y046125D01*
X073552Y046125D01*
X073552D01*
X073552Y046125D01*
X073529Y046085D01*
X073374D01*
X073311Y046147D01*
X073346Y046199D01*
X073349Y046214D01*
X073365Y046292D01*
X073349Y046370D01*
X073346Y046386D01*
X073293Y046465D01*
X073214Y046518D01*
X073198Y046522D01*
X073120Y046537D01*
X073042Y046522D01*
X073026Y046518D01*
X072975Y046484D01*
X072796Y046663D01*
Y047344D01*
X072004D01*
Y046080D01*
X072686D01*
X072797Y045969D01*
X072797Y045969D01*
X072985Y045781D01*
X072966Y045735D01*
X071824D01*
X070896Y046663D01*
Y047344D01*
X070104D01*
Y046080D01*
X070786D01*
X071549Y045317D01*
X071629Y045264D01*
X071644Y045261D01*
X071722Y045245D01*
X075020D01*
X075098Y045261D01*
X075114Y045264D01*
X075193Y045317D01*
X075743Y045867D01*
X075778Y045920D01*
X075796Y045946D01*
X075815Y046040D01*
Y046920D01*
X076490Y047595D01*
X077620D01*
X077627Y047597D01*
X077674Y047603D01*
X078248Y047029D01*
X078429Y047210D01*
X078429Y047210D01*
X078738Y047519D01*
X078736Y047522D01*
X078788Y047574D01*
X078791Y047572D01*
X079100Y047881D01*
X079072Y047909D01*
X079072Y047909D01*
X078813Y048168D01*
X078555Y048427D01*
X078555Y048427D01*
X078526Y048455D01*
X078345Y048274D01*
X078343Y048276D01*
X078325Y048259D01*
X077564Y049020D01*
Y051701D01*
X078109Y052246D01*
X078969D01*
X079043Y052261D01*
X079106Y052303D01*
X079619Y052816D01*
X080215D01*
Y053686D01*
X079345D01*
Y053090D01*
X078889Y052634D01*
X078222D01*
X078203Y052680D01*
X078339Y052816D01*
X078935D01*
Y053686D01*
X078065D01*
Y053090D01*
X076983Y052008D01*
X076941Y051945D01*
X076926Y051871D01*
Y050491D01*
X076876Y050464D01*
X076844Y050486D01*
X076750Y050505D01*
X076570D01*
Y051002D01*
Y051518D01*
X075537D01*
X075518Y051564D01*
X076745Y052791D01*
X076785Y052816D01*
Y052816D01*
X076785Y052816D01*
X077655D01*
Y053686D01*
X076785D01*
Y053379D01*
X075270Y051864D01*
X072714Y054420D01*
Y055798D01*
X072746Y055846D01*
X072765Y055940D01*
X072746Y056034D01*
X072693Y056113D01*
X072614Y056166D01*
X072520Y056185D01*
D02*
G37*
G36*
X080120Y051090D02*
X079672D01*
X079683Y051009D01*
X079733Y050888D01*
X079813Y050783D01*
X079918Y050703D01*
X080039Y050653D01*
X080120Y050642D01*
Y051090D01*
D02*
G37*
G36*
X080668D02*
X080220D01*
Y050642D01*
X080301Y050653D01*
X080422Y050703D01*
X080527Y050783D01*
X080607Y050888D01*
X080657Y051009D01*
X080668Y051090D01*
D02*
G37*
G36*
X051361Y052002D02*
X051229Y051683D01*
X051548Y051551D01*
X051680Y051870D01*
X051361Y052002D01*
D02*
G37*
G36*
X051943Y052243D02*
X051811Y051924D01*
X052130Y051792D01*
X052262Y052111D01*
X051943Y052243D01*
D02*
G37*
G36*
X065379Y052002D02*
X065060Y051870D01*
X065192Y051551D01*
X065511Y051683D01*
X065379Y052002D01*
D02*
G37*
G36*
X064968Y051831D02*
X064649Y051699D01*
X064781Y051380D01*
X065100Y051512D01*
X064968Y051831D01*
D02*
G37*
G36*
X051772Y051831D02*
X051640Y051512D01*
X051959Y051380D01*
X052091Y051699D01*
X051772Y051831D01*
D02*
G37*
G36*
X064814Y070640D02*
X064670D01*
Y070496D01*
X064698Y070502D01*
X064764Y070546D01*
X064808Y070612D01*
X064814Y070640D01*
D02*
G37*
G36*
X055204Y081903D02*
X055055D01*
Y081735D01*
X055204D01*
Y081903D01*
D02*
G37*
G36*
X057157Y082393D02*
X056891D01*
Y082008D01*
X057157D01*
Y082393D01*
D02*
G37*
G36*
X057524D02*
X057257D01*
Y082008D01*
X057524D01*
Y082393D01*
D02*
G37*
G36*
X055456Y081903D02*
X055307D01*
Y081735D01*
X055456D01*
Y081903D01*
D02*
G37*
G36*
X055704D02*
X055556D01*
Y081735D01*
X055704D01*
Y081903D01*
D02*
G37*
G36*
X054956Y081903D02*
X054807D01*
Y081735D01*
X054956D01*
Y081903D01*
D02*
G37*
G36*
X063299Y084147D02*
X062632D01*
X062570Y084135D01*
X062517Y084099D01*
X062482Y084046D01*
X062469Y083984D01*
X062482Y083922D01*
X062517Y083869D01*
X062570Y083834D01*
X062632Y083821D01*
X063299D01*
X063361Y083834D01*
X063414Y083869D01*
X063449Y083922D01*
X063462Y083984D01*
X063449Y084046D01*
X063414Y084099D01*
X063361Y084135D01*
X063299Y084147D01*
D02*
G37*
G36*
X051959Y084400D02*
X051640Y084268D01*
X051772Y083949D01*
X052091Y084081D01*
X051959Y084400D01*
D02*
G37*
G36*
X064781D02*
X064649Y084081D01*
X064968Y083949D01*
X065100Y084268D01*
X064781Y084400D01*
D02*
G37*
G36*
X051718Y083818D02*
X051399Y083686D01*
X051531Y083367D01*
X051850Y083499D01*
X051718Y083818D01*
D02*
G37*
G36*
X051548Y084229D02*
X051229Y084097D01*
X051361Y083778D01*
X051680Y083910D01*
X051548Y084229D01*
D02*
G37*
G36*
X065192D02*
X065060Y083910D01*
X065379Y083778D01*
X065511Y084097D01*
X065192Y084229D01*
D02*
G37*
G36*
X054387Y081058D02*
X054120D01*
Y080674D01*
X054387D01*
Y081058D01*
D02*
G37*
G36*
X057721Y081179D02*
X057080D01*
Y080814D01*
X057721D01*
Y081179D01*
D02*
G37*
G36*
X058461D02*
X057821D01*
Y080814D01*
X058461D01*
Y081179D01*
D02*
G37*
G36*
X055932Y081051D02*
X055665D01*
Y080666D01*
X055932D01*
Y081051D01*
D02*
G37*
G36*
X056298D02*
X056032D01*
Y080666D01*
X056298D01*
Y081051D01*
D02*
G37*
G36*
X054020Y081058D02*
X053754D01*
Y080674D01*
X054020D01*
Y081058D01*
D02*
G37*
G36*
X056298Y081536D02*
X056032D01*
Y081151D01*
X056298D01*
Y081536D01*
D02*
G37*
G36*
X057157Y081908D02*
X056891D01*
Y081524D01*
X057157D01*
Y081908D01*
D02*
G37*
G36*
X057524D02*
X057257D01*
Y081524D01*
X057524D01*
Y081908D01*
D02*
G37*
G36*
X066470Y081283D02*
X066366Y081262D01*
X066235Y081175D01*
X066148Y081044D01*
X066127Y080940D01*
X066470D01*
Y081283D01*
D02*
G37*
G36*
X066570D02*
Y080940D01*
X066913D01*
X066892Y081044D01*
X066805Y081175D01*
X066674Y081262D01*
X066570Y081283D01*
D02*
G37*
G36*
X055932Y081536D02*
X055665D01*
Y081151D01*
X055932D01*
Y081536D01*
D02*
G37*
G36*
X046405Y086690D02*
X046139D01*
Y086305D01*
X046405D01*
Y086690D01*
D02*
G37*
G36*
X056393Y086740D02*
X056070D01*
Y086417D01*
X056167Y086436D01*
X056291Y086519D01*
X056374Y086643D01*
X056393Y086740D01*
D02*
G37*
G36*
X054970Y087163D02*
X054873Y087144D01*
X054749Y087061D01*
X054666Y086937D01*
X054658Y086893D01*
X054615Y086874D01*
X054603Y086874D01*
X054270D01*
Y086529D01*
X054615D01*
Y086643D01*
X054665Y086648D01*
X054666Y086643D01*
X054749Y086519D01*
X054873Y086436D01*
X054970Y086417D01*
Y086790D01*
Y087163D01*
D02*
G37*
G36*
X054170Y086429D02*
X053825D01*
Y086084D01*
X054170D01*
Y086429D01*
D02*
G37*
G36*
X054615D02*
X054270D01*
Y086084D01*
X054615D01*
Y086429D01*
D02*
G37*
G36*
X046038Y086690D02*
X045772D01*
Y086305D01*
X046038D01*
Y086690D01*
D02*
G37*
G36*
X056070Y087163D02*
Y086840D01*
X056393D01*
X056374Y086937D01*
X056291Y087061D01*
X056167Y087144D01*
X056070Y087163D01*
D02*
G37*
G36*
X042485Y088461D02*
X042213Y088461D01*
X042213Y088207D01*
X042213Y088207D01*
X042212Y088205D01*
X042210Y088204D01*
X042033Y088204D01*
Y088140D01*
X042622D01*
Y088205D01*
X042487Y088205D01*
Y088205D01*
X042487Y088205D01*
X042485Y088205D01*
X042485Y088207D01*
X042485Y088461D01*
D02*
G37*
G36*
X058333Y091343D02*
X058022Y091312D01*
X057723Y091221D01*
X057447Y091074D01*
X057205Y090876D01*
X057007Y090634D01*
X056860Y090358D01*
X056769Y090059D01*
X056738Y089748D01*
X056769Y089437D01*
X056860Y089138D01*
X057007Y088862D01*
X057205Y088621D01*
X057447Y088422D01*
X057723Y088275D01*
X058022Y088184D01*
X058333Y088154D01*
X058644Y088184D01*
X058943Y088275D01*
X059219Y088422D01*
X059460Y088621D01*
X059659Y088862D01*
X059806Y089138D01*
X059897Y089437D01*
X059927Y089748D01*
X059897Y090059D01*
X059806Y090358D01*
X059659Y090634D01*
X059460Y090876D01*
X059219Y091074D01*
X058943Y091221D01*
X058644Y091312D01*
X058333Y091343D01*
D02*
G37*
G36*
X054170Y086874D02*
X053825D01*
Y086529D01*
X054170D01*
Y086874D01*
D02*
G37*
G36*
X046038Y087175D02*
X045772D01*
Y086790D01*
X046038D01*
Y087175D01*
D02*
G37*
G36*
X046405D02*
X046139D01*
Y086790D01*
X046405D01*
Y087175D01*
D02*
G37*
G36*
X058320Y085151D02*
X057975D01*
Y084806D01*
X058320D01*
Y085151D01*
D02*
G37*
G36*
X058765D02*
X058420D01*
Y084806D01*
X058765D01*
Y085151D01*
D02*
G37*
G36*
X053401Y085625D02*
X053135D01*
Y085240D01*
X053401D01*
Y085625D01*
D02*
G37*
G36*
X058805Y087014D02*
X057935D01*
Y086144D01*
X058805D01*
Y086385D01*
X063351D01*
X064026Y085710D01*
Y083790D01*
X064041Y083716D01*
X064083Y083653D01*
X065033Y082703D01*
X065096Y082661D01*
X065170Y082646D01*
X066750D01*
X073096Y076300D01*
Y065604D01*
X072846Y065354D01*
X072798Y065368D01*
X072780Y065460D01*
X072684Y065604D01*
X072540Y065700D01*
X072370Y065734D01*
X072200Y065700D01*
X072056Y065604D01*
X071960Y065460D01*
X071926Y065290D01*
X071960Y065120D01*
X072012Y065043D01*
X071988Y064998D01*
X071035D01*
X070961Y064984D01*
X070898Y064942D01*
X070090Y064134D01*
X070044Y064153D01*
Y070160D01*
X070029Y070234D01*
X069987Y070297D01*
X066988Y073296D01*
X066976Y073353D01*
X066923Y073433D01*
X066844Y073486D01*
X066750Y073504D01*
X066657Y073486D01*
X066577Y073433D01*
X066524Y073353D01*
X066509Y073278D01*
X066470Y073235D01*
X066376Y073216D01*
X066297Y073163D01*
X066244Y073084D01*
X066232Y073023D01*
X066180Y072983D01*
X066170Y072985D01*
X066076Y072966D01*
X065997Y072913D01*
X065944Y072834D01*
X065925Y072740D01*
X065930Y072715D01*
X065895Y072680D01*
X065870Y072685D01*
X065776Y072666D01*
X065697Y072613D01*
X065644Y072534D01*
X065625Y072440D01*
X065630Y072415D01*
X065595Y072380D01*
X065570Y072385D01*
X065476Y072366D01*
X065397Y072313D01*
X065344Y072234D01*
X065325Y072140D01*
X065330Y072115D01*
X065295Y072080D01*
X065270Y072085D01*
X065176Y072066D01*
X065097Y072013D01*
X065044Y071934D01*
X065025Y071840D01*
X065044Y071746D01*
X065097Y071667D01*
X065176Y071614D01*
X065233Y071603D01*
X067276Y069560D01*
Y064390D01*
X067291Y064316D01*
X067333Y064253D01*
X068383Y063203D01*
X068394Y063146D01*
X068447Y063067D01*
X068526Y063014D01*
X068562Y063007D01*
X068576Y062959D01*
X067651Y062034D01*
X067362D01*
X067314Y062066D01*
X067220Y062085D01*
X067164Y062074D01*
X067114Y062113D01*
Y065390D01*
X067099Y065464D01*
X067057Y065527D01*
X065557Y067027D01*
X065546Y067084D01*
X065493Y067163D01*
X065414Y067216D01*
X065379Y067223D01*
X065364Y067271D01*
X066652Y068559D01*
X066720Y068545D01*
X066814Y068564D01*
X066893Y068617D01*
X066946Y068696D01*
X066965Y068790D01*
X066946Y068884D01*
X066893Y068963D01*
X066814Y069016D01*
X066720Y069035D01*
X066659Y069023D01*
X066602Y069055D01*
X066596Y069084D01*
X066543Y069163D01*
X066480Y069205D01*
X066467Y069263D01*
X066557Y069353D01*
X066614Y069364D01*
X066693Y069417D01*
X066746Y069496D01*
X066765Y069590D01*
X066746Y069684D01*
X066693Y069763D01*
X066614Y069816D01*
X066520Y069835D01*
X066426Y069816D01*
X066347Y069763D01*
X066294Y069684D01*
X066283Y069627D01*
X062730Y066074D01*
X062343D01*
X062324Y066120D01*
X065707Y069503D01*
X065764Y069514D01*
X065843Y069567D01*
X065896Y069646D01*
X065915Y069740D01*
X065896Y069834D01*
X065843Y069913D01*
X065764Y069966D01*
X065670Y069985D01*
X065576Y069966D01*
X065497Y069913D01*
X065444Y069834D01*
X065433Y069777D01*
X061970Y066314D01*
X061557D01*
X061149Y066722D01*
X061169Y066772D01*
X061895Y066772D01*
X061969Y066786D01*
X062032Y066828D01*
X065207Y070003D01*
X065264Y070014D01*
X065343Y070067D01*
X065396Y070146D01*
X065415Y070240D01*
X065396Y070334D01*
X065343Y070413D01*
X065264Y070466D01*
X065170Y070485D01*
X065076Y070466D01*
X064997Y070413D01*
X064944Y070334D01*
X064933Y070277D01*
X061815Y067159D01*
X061522D01*
X061491Y067203D01*
X061508Y067237D01*
X061561D01*
X061635Y067252D01*
X061698Y067294D01*
X061857Y067453D01*
X061914Y067464D01*
X061993Y067517D01*
X062046Y067596D01*
X062065Y067690D01*
X062046Y067784D01*
X061993Y067863D01*
X061914Y067916D01*
X061820Y067935D01*
X061726Y067916D01*
X061647Y067863D01*
X061594Y067784D01*
X061583Y067727D01*
X061480Y067624D01*
X061221Y067624D01*
X061068Y067777D01*
X060986Y067832D01*
X060889Y067851D01*
X060793Y067832D01*
X060710Y067777D01*
X060656Y067695D01*
X060641Y067623D01*
X060570Y067609D01*
X060488Y067554D01*
X060433Y067472D01*
X060419Y067400D01*
X060347Y067386D01*
X060265Y067331D01*
X060210Y067249D01*
X060196Y067178D01*
X060124Y067163D01*
X060042Y067109D01*
X059987Y067026D01*
X059973Y066955D01*
X059902Y066941D01*
X059820Y066886D01*
X059765Y066804D01*
X059750Y066732D01*
X059679Y066718D01*
X059597Y066663D01*
X059542Y066581D01*
X059528Y066510D01*
X059456Y066495D01*
X059374Y066440D01*
X059319Y066358D01*
X059300Y066261D01*
X059287Y066242D01*
X059249Y066235D01*
X059223Y066217D01*
X059533Y065907D01*
X059462Y065836D01*
X059152Y066146D01*
X059134Y066120D01*
X059127Y066082D01*
X059108Y066069D01*
X059011Y066050D01*
X058929Y065995D01*
X058874Y065913D01*
X058860Y065841D01*
X058788Y065827D01*
X058706Y065772D01*
X058651Y065690D01*
X058637Y065619D01*
X058565Y065604D01*
X058483Y065550D01*
X058428Y065467D01*
X058409Y065371D01*
X058428Y065274D01*
X058483Y065192D01*
X058817Y064858D01*
X058899Y064803D01*
X058970Y064789D01*
X059006Y064753D01*
X059069Y064711D01*
X059143Y064696D01*
X059728Y064696D01*
X059764Y064673D01*
X059785Y064615D01*
X059781Y064609D01*
X059766Y064535D01*
Y063417D01*
X059716Y063376D01*
X059670Y063385D01*
X059612Y063373D01*
X059568Y063389D01*
X059561Y063410D01*
X059546Y063484D01*
X059493Y063563D01*
X059414Y063616D01*
X059320Y063635D01*
X059295Y063630D01*
X059260Y063665D01*
X059265Y063690D01*
X059246Y063784D01*
X059193Y063863D01*
X059114Y063916D01*
X059020Y063935D01*
X059020Y063935D01*
X059035Y064010D01*
X059016Y064104D01*
X058963Y064183D01*
X058884Y064236D01*
X058790Y064255D01*
X058696Y064236D01*
X058648Y064204D01*
X058098D01*
X057764Y064538D01*
X057764Y064783D01*
X057770Y064789D01*
X057840Y064803D01*
X057923Y064858D01*
X058257Y065192D01*
X058312Y065274D01*
X058331Y065371D01*
X058312Y065467D01*
X058257Y065550D01*
X058175Y065604D01*
X058103Y065619D01*
X058089Y065690D01*
X058034Y065772D01*
X057952Y065827D01*
X057880Y065841D01*
X057866Y065913D01*
X057811Y065995D01*
X057729Y066050D01*
X057658Y066064D01*
X057643Y066136D01*
X057589Y066218D01*
X057506Y066273D01*
X057450Y066284D01*
X057456Y066313D01*
X057456Y066608D01*
Y066608D01*
X057441Y066682D01*
X057399Y066745D01*
X056557Y067588D01*
X056494Y067630D01*
X056420Y067644D01*
X056420D01*
X056125Y067644D01*
X056096Y067638D01*
X056084Y067695D01*
X056030Y067777D01*
X055947Y067832D01*
X055851Y067851D01*
X055754Y067832D01*
X055672Y067777D01*
X055338Y067443D01*
X055283Y067361D01*
X055269Y067290D01*
X054483Y066504D01*
X054441Y066441D01*
X054426Y066367D01*
Y064532D01*
X054394Y064484D01*
X054375Y064390D01*
X054394Y064296D01*
X054447Y064217D01*
X054526Y064164D01*
X054620Y064145D01*
X054714Y064164D01*
X054793Y064217D01*
X054846Y064296D01*
X054865Y064390D01*
X054846Y064484D01*
X054814Y064532D01*
Y066287D01*
X055460Y066933D01*
X055520Y066922D01*
X055560Y066862D01*
X055621Y066822D01*
X055632Y066762D01*
X054983Y066113D01*
X054941Y066050D01*
X054926Y065976D01*
Y063382D01*
X054894Y063334D01*
X054875Y063240D01*
X054894Y063146D01*
X054947Y063067D01*
X055026Y063014D01*
X055120Y062995D01*
X055166Y063004D01*
X055211Y062971D01*
X055213Y062963D01*
X055194Y062934D01*
X055175Y062840D01*
X055194Y062746D01*
X055247Y062667D01*
X055326Y062614D01*
X055420Y062595D01*
X055514Y062614D01*
X055593Y062667D01*
X055646Y062746D01*
X055665Y062840D01*
X055646Y062934D01*
X055604Y062997D01*
Y063360D01*
X055589Y063434D01*
X055561Y063476D01*
X055554Y063487D01*
Y065714D01*
X056155Y066316D01*
X056210Y066299D01*
X056211Y066292D01*
X056229Y066265D01*
X056539Y066575D01*
X056610Y066504D01*
X056300Y066194D01*
X056318Y066182D01*
X056334Y066128D01*
X055999Y065793D01*
X055964Y065816D01*
X055870Y065835D01*
X055776Y065816D01*
X055697Y065763D01*
X055644Y065684D01*
X055625Y065590D01*
X055644Y065496D01*
X055697Y065417D01*
X055776Y065364D01*
X055870Y065345D01*
X055964Y065364D01*
X055986Y065379D01*
X056043Y065359D01*
X056049Y065346D01*
X056036Y065281D01*
Y062230D01*
X056051Y062156D01*
X056093Y062093D01*
X056883Y061303D01*
X056946Y061261D01*
X056960Y061258D01*
X057026Y061214D01*
X057120Y061195D01*
X057214Y061214D01*
X057293Y061267D01*
X057346Y061346D01*
X057365Y061440D01*
X057346Y061534D01*
X057293Y061613D01*
X057214Y061666D01*
X057120Y061685D01*
X057061Y061673D01*
X056424Y062310D01*
Y064247D01*
X056470Y064266D01*
X057773Y062963D01*
X057836Y062921D01*
X057910Y062906D01*
X058789Y062906D01*
X058813Y062862D01*
X058794Y062834D01*
X058775Y062740D01*
X058787Y062681D01*
X056283Y060177D01*
X056264Y060148D01*
X056214Y060163D01*
Y060290D01*
X056199Y060364D01*
X056157Y060427D01*
X055857Y060727D01*
X055794Y060769D01*
X055720Y060784D01*
X054940D01*
X054865Y060769D01*
X054803Y060727D01*
X054550Y060474D01*
X053953D01*
Y059604D01*
X054824D01*
Y060200D01*
X054879Y060255D01*
X054925Y060236D01*
Y059604D01*
X055521D01*
X055986Y059139D01*
Y056789D01*
X055947Y056763D01*
X055894Y056684D01*
X055875Y056590D01*
X055894Y056496D01*
X055947Y056417D01*
X056010Y056375D01*
X056024Y056317D01*
X055430Y055724D01*
X055350D01*
X055276Y055709D01*
X055213Y055667D01*
X055043Y055497D01*
X055001Y055434D01*
X054986Y055360D01*
Y055290D01*
X054220Y054523D01*
X054003D01*
X053968Y054559D01*
Y054746D01*
X054018Y054757D01*
X054064Y054727D01*
X054157Y054708D01*
X054251Y054727D01*
X054330Y054780D01*
X054383Y054859D01*
X054402Y054953D01*
X054383Y055046D01*
X054330Y055126D01*
X054251Y055179D01*
X054157Y055197D01*
X054064Y055179D01*
X054018Y055148D01*
X053968Y055159D01*
Y055526D01*
X053439D01*
X053404Y055561D01*
Y055600D01*
X054155Y056351D01*
X054197Y056414D01*
X054212Y056488D01*
X054212Y057239D01*
X055199Y058226D01*
X055795D01*
Y059096D01*
X054925D01*
Y058500D01*
X054870Y058445D01*
X054824Y058464D01*
Y059096D01*
X053953D01*
Y058226D01*
X053953Y058226D01*
X053953D01*
X053925Y058189D01*
X053573Y057837D01*
X053531Y057774D01*
X053516Y057700D01*
Y057573D01*
X053452D01*
X053452Y057573D01*
Y057573D01*
X053404Y057578D01*
Y057770D01*
X053554Y057920D01*
X053596Y057983D01*
X053611Y058057D01*
Y058226D01*
X053852D01*
Y059096D01*
X052982D01*
Y058226D01*
X053188D01*
X053223Y058190D01*
Y058137D01*
X053073Y057987D01*
X053031Y057924D01*
X053016Y057850D01*
Y057573D01*
X052904D01*
Y057900D01*
X052889Y057974D01*
X052847Y058037D01*
X052704Y058180D01*
X052724Y058226D01*
X052881D01*
Y059096D01*
X052814D01*
X052795Y059142D01*
X053256Y059604D01*
X053852D01*
Y060474D01*
X052982D01*
Y059878D01*
X052927Y059823D01*
X052881Y059842D01*
Y060474D01*
X052010D01*
Y059878D01*
X051956Y059823D01*
X051910Y059842D01*
Y060474D01*
X051313D01*
X050610Y061177D01*
X050547Y061219D01*
X050473Y061234D01*
X050443D01*
X050404Y061284D01*
X050415Y061340D01*
X050396Y061434D01*
X050343Y061513D01*
X050264Y061566D01*
X050170Y061585D01*
X050076Y061566D01*
X049997Y061513D01*
X049971Y061474D01*
X049787D01*
X049752Y061524D01*
X049765Y061590D01*
X049746Y061684D01*
X049693Y061763D01*
X049614Y061816D01*
X049520Y061835D01*
X049426Y061816D01*
X049347Y061763D01*
X049314Y061714D01*
X048830D01*
X048800Y061764D01*
X048815Y061840D01*
X048796Y061934D01*
X048743Y062013D01*
X048664Y062066D01*
X048570Y062085D01*
X048476Y062066D01*
X048397Y062013D01*
X048357Y061954D01*
X047172D01*
X047098Y061939D01*
X047035Y061897D01*
X045732Y060594D01*
X044408D01*
X044194Y060809D01*
X044213Y060855D01*
X044805D01*
Y061725D01*
X044034D01*
Y061931D01*
X044084Y061958D01*
X044200Y061880D01*
X044370Y061846D01*
X044540Y061880D01*
X044684Y061976D01*
X044780Y062120D01*
X044814Y062290D01*
X044780Y062460D01*
X044684Y062604D01*
X044540Y062700D01*
X044370Y062734D01*
X044200Y062700D01*
X044084Y062622D01*
X044034Y062649D01*
Y062931D01*
X044084Y062958D01*
X044200Y062880D01*
X044370Y062846D01*
X044540Y062880D01*
X044684Y062976D01*
X044780Y063120D01*
X044814Y063290D01*
X044780Y063460D01*
X044684Y063604D01*
X044540Y063700D01*
X044370Y063734D01*
X044200Y063700D01*
X044084Y063622D01*
X044034Y063649D01*
Y063931D01*
X044084Y063958D01*
X044200Y063880D01*
X044370Y063846D01*
X044540Y063880D01*
X044684Y063976D01*
X044780Y064120D01*
X044814Y064290D01*
X044780Y064460D01*
X044684Y064604D01*
X044540Y064700D01*
X044370Y064734D01*
X044200Y064700D01*
X044084Y064622D01*
X044034Y064649D01*
Y064931D01*
X044084Y064958D01*
X044200Y064880D01*
X044370Y064846D01*
X044540Y064880D01*
X044684Y064976D01*
X044780Y065120D01*
X044814Y065290D01*
X044780Y065460D01*
X044684Y065604D01*
X044540Y065700D01*
X044370Y065734D01*
X044200Y065700D01*
X044084Y065622D01*
X044034Y065649D01*
Y065931D01*
X044084Y065958D01*
X044200Y065880D01*
X044370Y065846D01*
X044540Y065880D01*
X044684Y065976D01*
X044780Y066120D01*
X044814Y066290D01*
X044780Y066460D01*
X044684Y066604D01*
X044540Y066700D01*
X044370Y066734D01*
X044200Y066700D01*
X044084Y066622D01*
X044034Y066649D01*
Y066931D01*
X044084Y066958D01*
X044200Y066880D01*
X044370Y066846D01*
X044540Y066880D01*
X044684Y066976D01*
X044780Y067120D01*
X044814Y067290D01*
X044780Y067460D01*
X044684Y067604D01*
X044540Y067700D01*
X044370Y067734D01*
X044200Y067700D01*
X044084Y067622D01*
X044034Y067649D01*
Y067931D01*
X044084Y067958D01*
X044200Y067880D01*
X044370Y067846D01*
X044540Y067880D01*
X044684Y067976D01*
X044780Y068120D01*
X044814Y068290D01*
X044780Y068460D01*
X044684Y068604D01*
X044540Y068700D01*
X044370Y068734D01*
X044200Y068700D01*
X044084Y068622D01*
X044034Y068649D01*
Y068931D01*
X044084Y068958D01*
X044200Y068880D01*
X044370Y068846D01*
X044540Y068880D01*
X044684Y068976D01*
X044780Y069120D01*
X044814Y069290D01*
X044780Y069460D01*
X044684Y069604D01*
X044540Y069700D01*
X044370Y069734D01*
X044200Y069700D01*
X044084Y069622D01*
X044034Y069649D01*
Y069931D01*
X044084Y069958D01*
X044200Y069880D01*
X044370Y069846D01*
X044540Y069880D01*
X044684Y069976D01*
X044780Y070120D01*
X044814Y070290D01*
X044780Y070460D01*
X044684Y070604D01*
X044540Y070700D01*
X044370Y070734D01*
X044200Y070700D01*
X044084Y070622D01*
X044034Y070649D01*
Y070931D01*
X044084Y070958D01*
X044200Y070880D01*
X044370Y070846D01*
X044540Y070880D01*
X044684Y070976D01*
X044780Y071120D01*
X044814Y071290D01*
X044780Y071460D01*
X044684Y071604D01*
X044540Y071700D01*
X044370Y071734D01*
X044200Y071700D01*
X044084Y071622D01*
X044034Y071649D01*
Y071931D01*
X044084Y071958D01*
X044200Y071880D01*
X044370Y071846D01*
X044540Y071880D01*
X044684Y071976D01*
X044780Y072120D01*
X044814Y072290D01*
X044780Y072460D01*
X044684Y072604D01*
X044540Y072700D01*
X044370Y072734D01*
X044200Y072700D01*
X044084Y072622D01*
X044034Y072649D01*
Y072931D01*
X044084Y072958D01*
X044200Y072880D01*
X044370Y072846D01*
X044540Y072880D01*
X044684Y072976D01*
X044780Y073120D01*
X044814Y073290D01*
X044780Y073460D01*
X044684Y073604D01*
X044540Y073700D01*
X044370Y073734D01*
X044200Y073700D01*
X044084Y073622D01*
X044034Y073649D01*
Y073931D01*
X044084Y073958D01*
X044200Y073880D01*
X044370Y073846D01*
X044540Y073880D01*
X044684Y073976D01*
X044780Y074120D01*
X044814Y074290D01*
X044780Y074460D01*
X044684Y074604D01*
X044540Y074700D01*
X044370Y074734D01*
X044200Y074700D01*
X044084Y074622D01*
X044034Y074649D01*
Y074996D01*
X044082Y075010D01*
X044085Y075005D01*
X044216Y074918D01*
X044320Y074897D01*
Y075290D01*
Y075683D01*
X044216Y075662D01*
X044085Y075575D01*
X044082Y075570D01*
X044034Y075584D01*
Y076330D01*
X050607Y082903D01*
X050649Y082966D01*
X050664Y083040D01*
Y084328D01*
X050933Y084598D01*
X050982Y084588D01*
X050982Y084588D01*
X051787Y084921D01*
X051454Y085725D01*
X050649Y085392D01*
X050805Y085017D01*
X050333Y084545D01*
X050291Y084482D01*
X050276Y084408D01*
Y083120D01*
X043840Y076684D01*
X043794Y076703D01*
Y079470D01*
X044984Y080660D01*
X045155Y080490D01*
X045770Y081105D01*
X045155Y081721D01*
X044539Y081105D01*
X044710Y080934D01*
X043463Y079687D01*
X043421Y079624D01*
X043406Y079550D01*
Y063882D01*
X043360Y063863D01*
X041964Y065260D01*
Y073490D01*
X041949Y073564D01*
X041907Y073627D01*
X041297Y074237D01*
Y074446D01*
X041339Y074473D01*
X041339Y074473D01*
X041672Y075278D01*
X040868Y075611D01*
X040535Y074806D01*
X040910Y074651D01*
Y074156D01*
X040925Y074082D01*
X040967Y074019D01*
X041576Y073410D01*
Y065373D01*
X041530Y065354D01*
X039875Y067009D01*
Y067455D01*
X040116D01*
Y068325D01*
X039246D01*
Y067455D01*
X039487D01*
Y066929D01*
X039502Y066855D01*
X039544Y066792D01*
X042926Y063410D01*
Y061102D01*
X042876Y061092D01*
X042761Y061370D01*
X042442Y061238D01*
X042574Y060919D01*
X042876Y061044D01*
X042926Y061019D01*
Y060590D01*
X042941Y060516D01*
X042983Y060453D01*
X043756Y059680D01*
X043737Y059634D01*
X042482D01*
X041662Y060453D01*
X041672Y060502D01*
X041672Y060502D01*
X041339Y061307D01*
X040535Y060974D01*
X040868Y060169D01*
X041243Y060325D01*
X042265Y059303D01*
X042328Y059261D01*
X042402Y059246D01*
X047947D01*
X047966Y059200D01*
X047938Y059172D01*
X047896Y059109D01*
X047881Y059035D01*
Y056825D01*
X046729Y055673D01*
X046688Y055649D01*
X046661Y055676D01*
D01*
X046627Y055711D01*
X046444Y055893D01*
X046165Y055614D01*
X045885Y055334D01*
X046068Y055152D01*
X046102Y055117D01*
X046120Y055074D01*
X046106Y055050D01*
X045925Y054869D01*
X045577D01*
X045155Y055290D01*
X044539Y054675D01*
X045155Y054059D01*
X045577Y054481D01*
X046005D01*
X046079Y054496D01*
X046142Y054538D01*
X048212Y056608D01*
X048254Y056671D01*
X048268Y056745D01*
Y058226D01*
X048721D01*
X049461Y057486D01*
X049524Y057444D01*
X049598Y057429D01*
X049992D01*
Y057050D01*
X050210D01*
Y057000D01*
X050260D01*
Y056467D01*
X050428D01*
X050452Y056427D01*
X050452Y056427D01*
Y056427D01*
X050452D01*
X050499Y056427D01*
X051468D01*
Y056427D01*
X052452D01*
Y056427D01*
X053468D01*
Y056427D01*
X053618D01*
X053637Y056381D01*
X053073Y055817D01*
X053031Y055754D01*
X053016Y055680D01*
Y055526D01*
X052952D01*
Y055526D01*
X051968D01*
Y055526D01*
X051452D01*
Y055526D01*
X049952D01*
Y054380D01*
X050016D01*
Y054240D01*
X050031Y054166D01*
X050073Y054103D01*
X050964Y053212D01*
X051027Y053170D01*
X051101Y053155D01*
X053946D01*
X053965Y053109D01*
X051736Y050880D01*
X050982Y051192D01*
X050649Y050388D01*
X051454Y050055D01*
X051609Y050430D01*
X051754D01*
X051828Y050445D01*
X051891Y050487D01*
X054250Y052846D01*
X055028D01*
X055076Y052814D01*
X055170Y052795D01*
X055264Y052814D01*
X055343Y052867D01*
X055396Y052946D01*
X055415Y053040D01*
X055402Y053105D01*
X055437Y053155D01*
X056941D01*
X057376Y052721D01*
X057361Y052673D01*
X057326Y052666D01*
X057247Y052613D01*
X057194Y052534D01*
X057175Y052440D01*
X057194Y052346D01*
X057226Y052298D01*
Y050151D01*
X057241Y050077D01*
X057283Y050014D01*
X057935Y049362D01*
Y048766D01*
X058805D01*
Y049636D01*
X058209D01*
X057614Y050231D01*
Y052298D01*
X057646Y052346D01*
X057653Y052381D01*
X057701Y052396D01*
X058214Y051883D01*
X058276Y051841D01*
X058351Y051826D01*
X058621D01*
X058623Y051823D01*
X058642Y051776D01*
X058625Y051690D01*
X058644Y051596D01*
X058697Y051517D01*
X058776Y051464D01*
X058870Y051445D01*
X058894Y051450D01*
X058937Y051408D01*
X058925Y051350D01*
X058944Y051256D01*
X058997Y051177D01*
X059076Y051124D01*
X059170Y051105D01*
X059264Y051124D01*
X059294Y051144D01*
X059321Y051139D01*
X059344Y051084D01*
X059344Y051084D01*
X059325Y050990D01*
X059344Y050896D01*
X059397Y050817D01*
X059476Y050764D01*
X059570Y050745D01*
X059664Y050764D01*
X059712Y050796D01*
X059840D01*
X060149Y050487D01*
X060212Y050445D01*
X060286Y050430D01*
X065131D01*
X065286Y050055D01*
X066091Y050388D01*
X065758Y051192D01*
X064953Y050859D01*
X064953Y050859D01*
X064926Y050817D01*
X060367D01*
X060078Y051106D01*
X060098Y051156D01*
X063634D01*
X063708Y051171D01*
X063771Y051213D01*
X064502Y051944D01*
X064551Y051935D01*
X064610Y051792D01*
X064976Y051943D01*
X065341Y052094D01*
X065281Y052237D01*
X065309Y052279D01*
X069383D01*
X069457Y052294D01*
X069520Y052336D01*
X071414Y054230D01*
X071585Y054059D01*
X072201Y054675D01*
X071585Y055290D01*
X070970Y054675D01*
X071140Y054504D01*
X069302Y052666D01*
X064950D01*
X064931Y052712D01*
X068314Y056096D01*
X070433D01*
X070453Y056050D01*
X070367Y055964D01*
X070611Y055720D01*
X070855Y055964D01*
X070769Y056050D01*
X070788Y056096D01*
X071188D01*
X071262Y056111D01*
X071325Y056153D01*
X075497Y060325D01*
X075872Y060169D01*
X076205Y060974D01*
X075401Y061307D01*
X075068Y060502D01*
X075068Y060502D01*
X075078Y060453D01*
X071108Y056484D01*
X068234D01*
X068160Y056469D01*
X068097Y056427D01*
X063554Y051884D01*
X061537D01*
X061518Y051930D01*
X062491Y052903D01*
X062712D01*
Y052903D01*
X063228D01*
Y052903D01*
X063728D01*
Y053460D01*
X063971Y053703D01*
X064028Y053714D01*
X064107Y053767D01*
X064160Y053846D01*
X064179Y053940D01*
X064160Y054034D01*
X064107Y054113D01*
X064028Y054166D01*
X063934Y054185D01*
X063841Y054166D01*
X063761Y054113D01*
X063718Y054049D01*
X063214D01*
X063198Y054050D01*
X063172Y054076D01*
Y054131D01*
X063915Y054874D01*
X063943Y054916D01*
X063957Y054937D01*
X063972Y055011D01*
X063972Y055418D01*
X065157Y056603D01*
X065199Y056666D01*
X065214Y056740D01*
Y056966D01*
X065455D01*
Y057836D01*
X064585D01*
Y056966D01*
X064826D01*
Y056820D01*
X063774Y055768D01*
X063728Y055787D01*
Y056074D01*
X064207Y056553D01*
X064249Y056616D01*
X064251Y056628D01*
X064264Y056690D01*
Y056966D01*
X064505D01*
Y057836D01*
X063635D01*
Y056966D01*
X063841D01*
X063876Y056930D01*
Y056770D01*
X063333Y056227D01*
X063292Y056255D01*
X063299Y056266D01*
X063314Y056340D01*
Y056966D01*
X063555D01*
Y057836D01*
X062685D01*
Y056966D01*
X062926D01*
Y056420D01*
X062833Y056327D01*
X062791Y056264D01*
X062776Y056190D01*
Y056101D01*
X062728Y056096D01*
X062728Y056096D01*
X062728Y056096D01*
X062664D01*
Y056290D01*
X062649Y056364D01*
X062607Y056427D01*
X062364Y056670D01*
Y056966D01*
X062605D01*
Y057836D01*
X061735D01*
Y056966D01*
X061976D01*
Y056590D01*
X061991Y056516D01*
X062033Y056453D01*
X062276Y056210D01*
Y056096D01*
X062164D01*
Y056140D01*
X062149Y056214D01*
X062107Y056277D01*
X061464Y056920D01*
X061484Y056966D01*
X061655D01*
Y057836D01*
X060785D01*
Y057115D01*
X060739Y057095D01*
X060705Y057129D01*
Y057836D01*
X059835D01*
Y057226D01*
X059789Y057206D01*
X059755Y057240D01*
Y057836D01*
X058885D01*
Y057226D01*
X058839Y057206D01*
X058805Y057240D01*
Y057836D01*
X058078D01*
Y058213D01*
X058209Y058344D01*
X058805D01*
Y058954D01*
X058851Y058974D01*
X058885Y058940D01*
Y058344D01*
X059755D01*
Y058954D01*
X059801Y058974D01*
X059835Y058940D01*
Y058344D01*
X060705D01*
Y059214D01*
X060109D01*
X059682Y059641D01*
X059619Y059683D01*
X059545Y059698D01*
X057897D01*
X057822Y059683D01*
X057760Y059641D01*
X057495Y059376D01*
X057460Y059383D01*
X057414Y059374D01*
X057364Y059415D01*
Y059610D01*
X059703Y061949D01*
X059720Y061945D01*
X059814Y061964D01*
X059893Y062017D01*
X059946Y062096D01*
X059965Y062190D01*
X059946Y062284D01*
X059941Y062292D01*
X059966Y062338D01*
X059993Y062340D01*
X060029Y062302D01*
X060026Y062290D01*
Y061790D01*
X060041Y061716D01*
X060083Y061653D01*
X060983Y060753D01*
X061046Y060711D01*
X061120Y060696D01*
X062020Y060696D01*
X062178D01*
X062226Y060664D01*
X062320Y060645D01*
X062414Y060664D01*
X062493Y060717D01*
X062546Y060796D01*
X062565Y060890D01*
X062546Y060984D01*
X062493Y061063D01*
X062414Y061116D01*
X062320Y061135D01*
X062226Y061116D01*
X062178Y061084D01*
X062020D01*
X061200Y061084D01*
X061159Y061125D01*
X061879Y061844D01*
X062294Y061429D01*
X062357Y061387D01*
X062431Y061372D01*
X062617D01*
X063011Y060978D01*
X063682Y061649D01*
X063178Y062154D01*
X062784Y061760D01*
X062511Y061760D01*
X062153Y062118D01*
X062880Y062846D01*
X062126Y063600D01*
X061423Y062898D01*
X061373D01*
X061064Y063207D01*
X061064Y064848D01*
X061096Y064896D01*
X061115Y064990D01*
X061163Y065004D01*
X061214Y065014D01*
X061262Y065046D01*
X062547D01*
X062566Y065000D01*
X062450Y064884D01*
X061712D01*
X061664Y064916D01*
X061570Y064935D01*
X061476Y064916D01*
X061397Y064863D01*
X061344Y064784D01*
X061325Y064690D01*
X061344Y064596D01*
X061397Y064517D01*
X061476Y064464D01*
X061570Y064445D01*
X061664Y064464D01*
X061712Y064496D01*
X062530D01*
X062604Y064511D01*
X062667Y064553D01*
X062899Y064785D01*
X062959Y064774D01*
X062997Y064717D01*
X063076Y064664D01*
X063111Y064657D01*
X063130Y064605D01*
X062728Y064203D01*
X063483Y063448D01*
X064210Y064176D01*
X064500Y063886D01*
X064500Y063526D01*
X064106Y063132D01*
X064611Y062628D01*
X065282Y063299D01*
X064888Y063693D01*
Y063966D01*
X064873Y064040D01*
X064831Y064103D01*
X064509Y064425D01*
Y064475D01*
X065212Y065177D01*
X064457Y065932D01*
X063455Y064930D01*
X063403Y064949D01*
X063396Y064984D01*
X063343Y065063D01*
X063274Y065109D01*
X063258Y065164D01*
X065039Y066946D01*
X065087Y066931D01*
X065094Y066896D01*
X065147Y066817D01*
X065226Y066764D01*
X065283Y066753D01*
X066726Y065310D01*
Y061432D01*
X066694Y061384D01*
X066675Y061290D01*
X066694Y061196D01*
X066747Y061117D01*
X066826Y061064D01*
X066920Y061045D01*
X066934Y061048D01*
X066959Y061002D01*
X066770Y060814D01*
X065226D01*
X065193Y060863D01*
X065114Y060916D01*
X065020Y060935D01*
X064926Y060916D01*
X064847Y060863D01*
X064794Y060784D01*
X064775Y060690D01*
X064788Y060624D01*
X064753Y060574D01*
X064698D01*
X064696Y060584D01*
X064643Y060663D01*
X064564Y060716D01*
X064470Y060735D01*
X064376Y060716D01*
X064297Y060663D01*
X064244Y060584D01*
X064225Y060490D01*
X064244Y060396D01*
X064256Y060378D01*
X064233Y060334D01*
X063878D01*
X063859Y060380D01*
X064034Y060555D01*
X063846Y060743D01*
X063574Y060471D01*
X063665Y060380D01*
X063646Y060334D01*
X063313D01*
X063293Y060363D01*
X063214Y060416D01*
X063120Y060435D01*
X063026Y060416D01*
X062947Y060363D01*
X062894Y060284D01*
X062875Y060190D01*
X062886Y060134D01*
X062847Y060084D01*
X062312D01*
X062264Y060116D01*
X062170Y060135D01*
X062076Y060116D01*
X061997Y060063D01*
X061944Y059984D01*
X061925Y059890D01*
X061944Y059796D01*
X061950Y059787D01*
X061957Y059769D01*
X061894Y059727D01*
X061381Y059214D01*
X060785D01*
Y058344D01*
X061655D01*
Y058940D01*
X061689Y058974D01*
X061735Y058954D01*
Y058344D01*
X062605D01*
Y059214D01*
X062439D01*
X062407Y059253D01*
X062415Y059290D01*
X062404Y059346D01*
X062443Y059396D01*
X062847D01*
X062886Y059346D01*
X062875Y059290D01*
X062883Y059253D01*
X062851Y059214D01*
X062685D01*
Y058344D01*
X063555D01*
Y059214D01*
X063389D01*
X063357Y059253D01*
X063365Y059290D01*
X063354Y059346D01*
X063393Y059396D01*
X063793D01*
X063835Y059346D01*
X063825Y059300D01*
X063835Y059253D01*
X063803Y059214D01*
X063635D01*
Y058344D01*
X064505D01*
Y059214D01*
X064337D01*
X064305Y059253D01*
X064315Y059300D01*
X064306Y059346D01*
X064347Y059396D01*
X064747D01*
X064786Y059346D01*
X064775Y059290D01*
X064783Y059253D01*
X064751Y059214D01*
X064585D01*
Y058344D01*
X065455D01*
Y059214D01*
X065289D01*
X065257Y059253D01*
X065265Y059290D01*
X065254Y059346D01*
X065293Y059396D01*
X067178D01*
X067252Y059411D01*
X067315Y059453D01*
X068049Y060187D01*
X068108Y060175D01*
X068147Y060117D01*
X068226Y060064D01*
X068320Y060045D01*
X068388Y060059D01*
X068438Y060025D01*
Y059860D01*
X068640D01*
Y057620D01*
X068438D01*
Y056730D01*
X069230D01*
Y057620D01*
X069028D01*
Y059860D01*
X069230D01*
Y060606D01*
X070250D01*
Y060355D01*
X070962D01*
Y060606D01*
X071998D01*
X072024Y060556D01*
X071960Y060460D01*
X071926Y060290D01*
X071960Y060120D01*
X072056Y059976D01*
X072200Y059880D01*
X072370Y059846D01*
X072540Y059880D01*
X072684Y059976D01*
X072780Y060120D01*
X072814Y060290D01*
X072780Y060460D01*
X072716Y060556D01*
X072742Y060606D01*
X072880D01*
X072954Y060621D01*
X073017Y060663D01*
X074067Y061713D01*
X074109Y061684D01*
X074017Y061463D01*
X074336Y061331D01*
X074468Y061650D01*
X074190Y061765D01*
X074178Y061824D01*
X077196Y064842D01*
X077238Y064905D01*
X077253Y064979D01*
Y067455D01*
X077494D01*
Y068325D01*
X076624D01*
Y067455D01*
X076865D01*
Y065059D01*
X072800Y060994D01*
X072749D01*
X072725Y061038D01*
X072780Y061120D01*
X072814Y061290D01*
X072780Y061460D01*
X072728Y061537D01*
X072752Y061582D01*
X073005D01*
X073079Y061596D01*
X073142Y061638D01*
X075107Y063603D01*
X075149Y063666D01*
X075164Y063740D01*
Y073310D01*
X075773Y073919D01*
X075815Y073982D01*
X075830Y074056D01*
Y074651D01*
X076205Y074806D01*
X075872Y075611D01*
X075068Y075278D01*
X075401Y074473D01*
X075401Y074473D01*
X075443Y074446D01*
Y074137D01*
X074833Y073527D01*
X074791Y073464D01*
X074776Y073390D01*
Y063820D01*
X072925Y061969D01*
X072739D01*
X072712Y062019D01*
X072780Y062120D01*
X072814Y062290D01*
X072780Y062460D01*
X072728Y062537D01*
X072752Y062582D01*
X073005D01*
X073079Y062596D01*
X073142Y062638D01*
X073907Y063403D01*
X073949Y063466D01*
X073964Y063540D01*
Y074318D01*
X074013Y074328D01*
X074149Y073998D01*
X074468Y074130D01*
X074317Y074496D01*
X074166Y074861D01*
X074005Y074794D01*
X073964Y074822D01*
Y078920D01*
X073949Y078994D01*
X073907Y079057D01*
X072030Y080934D01*
X072201Y081105D01*
X071585Y081721D01*
X070970Y081105D01*
X071585Y080490D01*
X071756Y080660D01*
X073576Y078840D01*
Y076773D01*
X073530Y076754D01*
X070661Y079622D01*
X070855Y079816D01*
X070575Y080095D01*
X070296Y080375D01*
X070102Y080181D01*
X065743Y084541D01*
X065758Y084588D01*
X065758D01*
X065758Y084588D01*
X066091Y085392D01*
X065286Y085725D01*
X064953Y084921D01*
X065328Y084765D01*
Y084488D01*
X065343Y084414D01*
X065385Y084351D01*
X066656Y083080D01*
X066637Y083034D01*
X065250D01*
X064802Y083482D01*
X064829Y083524D01*
X065209Y083367D01*
X065341Y083686D01*
X064976Y083837D01*
X064610Y083988D01*
X064535Y083807D01*
X064486Y083798D01*
X064414Y083870D01*
Y085790D01*
X064399Y085864D01*
X064357Y085927D01*
X063568Y086716D01*
X063505Y086758D01*
X063431Y086773D01*
X058805D01*
Y087014D01*
D02*
G37*
G36*
X052745Y085665D02*
X052032D01*
Y084715D01*
X052745D01*
Y085665D01*
D02*
G37*
G36*
X053401Y085140D02*
X053135D01*
Y084755D01*
X053401D01*
Y085140D01*
D02*
G37*
G36*
X054970Y085740D02*
X054647D01*
X054666Y085643D01*
X054749Y085519D01*
X054873Y085436D01*
X054970Y085417D01*
Y085740D01*
D02*
G37*
G36*
X056070Y086163D02*
Y085840D01*
X056393D01*
X056374Y085937D01*
X056291Y086061D01*
X056167Y086144D01*
X056070Y086163D01*
D02*
G37*
G36*
X054970Y086163D02*
X054873Y086144D01*
X054749Y086061D01*
X054666Y085937D01*
X054647Y085840D01*
X054970D01*
Y086163D01*
D02*
G37*
G36*
X058320Y085596D02*
X057975D01*
Y085251D01*
X058320D01*
Y085596D01*
D02*
G37*
G36*
X058765D02*
X058420D01*
Y085251D01*
X058765D01*
Y085596D01*
D02*
G37*
G36*
X056393Y085740D02*
X056070D01*
Y085417D01*
X056167Y085436D01*
X056291Y085519D01*
X056374Y085643D01*
X056393Y085740D01*
D02*
G37*
G36*
X066913Y080840D02*
X066570D01*
Y080497D01*
X066674Y080518D01*
X066805Y080605D01*
X066892Y080736D01*
X066913Y080840D01*
D02*
G37*
G36*
X042404Y074449D02*
X042272Y074130D01*
X042591Y073998D01*
X042723Y074317D01*
X042404Y074449D01*
D02*
G37*
G36*
X058627Y082433D02*
X057914D01*
Y081484D01*
X058461D01*
X058637Y081307D01*
X058637Y081307D01*
X058930Y081014D01*
Y078399D01*
X061848D01*
Y081317D01*
X059233D01*
X059113Y081437D01*
X059165Y081515D01*
X059183Y081608D01*
X059165Y081702D01*
X059112Y081781D01*
X059032Y081834D01*
X058939Y081853D01*
X058845Y081834D01*
X058767Y081782D01*
X058627Y081923D01*
Y082433D01*
D02*
G37*
G36*
X074748Y074620D02*
X074429Y074488D01*
X074561Y074169D01*
X074880Y074301D01*
X074748Y074620D01*
D02*
G37*
G36*
X041992Y074620D02*
X041860Y074301D01*
X042179Y074169D01*
X042311Y074488D01*
X041992Y074620D01*
D02*
G37*
G36*
X058501Y079408D02*
X057040D01*
Y078498D01*
X058501D01*
Y079408D01*
D02*
G37*
G36*
X047520Y074535D02*
X047426Y074516D01*
X047347Y074463D01*
X047294Y074384D01*
X047275Y074290D01*
X047294Y074196D01*
X047347Y074117D01*
X047426Y074064D01*
X047483Y074053D01*
X048983Y072553D01*
X048994Y072496D01*
X049047Y072417D01*
X049126Y072364D01*
X049220Y072345D01*
X049314Y072364D01*
X049393Y072417D01*
X049446Y072496D01*
X049465Y072590D01*
X049446Y072684D01*
X049393Y072763D01*
X049314Y072816D01*
X049257Y072827D01*
X047757Y074327D01*
X047746Y074384D01*
X047693Y074463D01*
X047614Y074516D01*
X047520Y074535D01*
D02*
G37*
G36*
X060070Y072435D02*
X059976Y072416D01*
X059897Y072363D01*
X059870Y072323D01*
X059820D01*
X059793Y072363D01*
X059714Y072416D01*
X059620Y072435D01*
X059526Y072416D01*
X059447Y072363D01*
X059394Y072284D01*
X059382Y072225D01*
X059339Y072234D01*
X055470Y072234D01*
X055396Y072219D01*
X055334Y072178D01*
X055276Y072166D01*
X055197Y072113D01*
X055144Y072034D01*
X055133Y071980D01*
X055078Y071957D01*
X055064Y071966D01*
X054970Y071985D01*
X054876Y071966D01*
X054797Y071913D01*
X054744Y071834D01*
X054725Y071740D01*
X054727Y071729D01*
X054686Y071701D01*
X054664Y071716D01*
X054570Y071735D01*
X054476Y071716D01*
X054397Y071663D01*
X054344Y071584D01*
X054325Y071490D01*
X054344Y071396D01*
X054397Y071317D01*
X054476Y071264D01*
X054548Y071250D01*
X054576Y071231D01*
X054650Y071216D01*
X055590D01*
X055590D01*
X055664Y071231D01*
X055727Y071273D01*
X055820Y071366D01*
X057992Y071366D01*
X058019Y071316D01*
X057994Y071279D01*
X057975Y071186D01*
X057994Y071092D01*
X058047Y071013D01*
X058126Y070960D01*
X058183Y070948D01*
X058488Y070643D01*
Y070593D01*
X058483Y070588D01*
X058428Y070506D01*
X058409Y070409D01*
X058428Y070313D01*
X058483Y070230D01*
X058565Y070176D01*
X058637Y070161D01*
X058651Y070090D01*
X058706Y070008D01*
X058788Y069953D01*
X058860Y069939D01*
X058874Y069867D01*
X058929Y069785D01*
X059011Y069730D01*
X059082Y069716D01*
X059097Y069644D01*
X059151Y069562D01*
X059234Y069507D01*
X059305Y069493D01*
X059319Y069422D01*
X059374Y069340D01*
X059456Y069285D01*
X059528Y069270D01*
X059542Y069199D01*
X059597Y069117D01*
X059679Y069062D01*
X059750Y069048D01*
X059765Y068976D01*
X059820Y068894D01*
X059902Y068839D01*
X059973Y068825D01*
X059987Y068754D01*
X060042Y068671D01*
X060124Y068617D01*
X060196Y068602D01*
X060210Y068531D01*
X060265Y068449D01*
X060347Y068394D01*
X060419Y068380D01*
X060433Y068308D01*
X060488Y068226D01*
X060570Y068171D01*
X060667Y068152D01*
X060686Y068139D01*
X060693Y068101D01*
X060711Y068075D01*
X061021Y068385D01*
X061331Y068695D01*
X061305Y068713D01*
X061267Y068720D01*
X061254Y068739D01*
X061235Y068836D01*
X061180Y068918D01*
X061105Y068968D01*
X061088Y069022D01*
X061447Y069380D01*
X061489Y069443D01*
X061504Y069517D01*
Y070646D01*
X061550Y070665D01*
X061626Y070589D01*
Y068932D01*
X061594Y068884D01*
X061575Y068790D01*
X061594Y068696D01*
X061647Y068617D01*
X061726Y068564D01*
X061820Y068545D01*
X061914Y068564D01*
X061993Y068617D01*
X062046Y068696D01*
X062065Y068790D01*
X062046Y068884D01*
X062014Y068932D01*
Y069957D01*
X062060Y069976D01*
X062533Y069503D01*
X062544Y069446D01*
X062597Y069367D01*
X062676Y069314D01*
X062770Y069295D01*
X062864Y069314D01*
X062943Y069367D01*
X062996Y069446D01*
X063015Y069540D01*
X062996Y069634D01*
X062943Y069713D01*
X062864Y069766D01*
X062807Y069777D01*
X062254Y070330D01*
Y070950D01*
X062239Y071024D01*
X062197Y071087D01*
X061407Y071877D01*
X061396Y071934D01*
X061343Y072013D01*
X061264Y072066D01*
X061170Y072085D01*
X061076Y072066D01*
X060997Y072013D01*
X060944Y071934D01*
X060937Y071897D01*
X060882Y071880D01*
X060799Y071963D01*
X060815Y072040D01*
X060796Y072134D01*
X060743Y072213D01*
X060664Y072266D01*
X060570Y072285D01*
X060476Y072266D01*
X060397Y072213D01*
X060359Y072156D01*
X060312Y072176D01*
X060315Y072190D01*
X060296Y072284D01*
X060243Y072363D01*
X060164Y072416D01*
X060070Y072435D01*
D02*
G37*
G36*
X072370Y074734D02*
X072200Y074700D01*
X072056Y074604D01*
X071960Y074460D01*
X071926Y074290D01*
X071960Y074120D01*
X072056Y073976D01*
X072200Y073880D01*
X072370Y073846D01*
X072540Y073880D01*
X072684Y073976D01*
X072780Y074120D01*
X072814Y074290D01*
X072780Y074460D01*
X072684Y074604D01*
X072540Y074700D01*
X072370Y074734D01*
D02*
G37*
G36*
Y073734D02*
X072200Y073700D01*
X072056Y073604D01*
X071960Y073460D01*
X071926Y073290D01*
X071960Y073120D01*
X072056Y072976D01*
X072200Y072880D01*
X072370Y072846D01*
X072540Y072880D01*
X072684Y072976D01*
X072780Y073120D01*
X072814Y073290D01*
X072780Y073460D01*
X072684Y073604D01*
X072540Y073700D01*
X072370Y073734D01*
D02*
G37*
G36*
X044420Y075683D02*
Y075340D01*
X044763D01*
X044742Y075444D01*
X044655Y075575D01*
X044524Y075662D01*
X044420Y075683D01*
D02*
G37*
G36*
X072320Y075685D02*
X071975D01*
Y075340D01*
X072320D01*
Y075685D01*
D02*
G37*
G36*
X072765Y075240D02*
X072420D01*
Y074895D01*
X072765D01*
Y075240D01*
D02*
G37*
G36*
X044763D02*
X044420D01*
Y074897D01*
X044524Y074918D01*
X044655Y075005D01*
X044742Y075136D01*
X044763Y075240D01*
D02*
G37*
G36*
X072765Y075685D02*
X072420D01*
Y075340D01*
X072765D01*
Y075685D01*
D02*
G37*
G36*
X042163Y075031D02*
X042031Y074712D01*
X042350Y074580D01*
X042482Y074899D01*
X042163Y075031D01*
D02*
G37*
G36*
X042574Y074861D02*
X042442Y074542D01*
X042761Y074410D01*
X042893Y074729D01*
X042574Y074861D01*
D02*
G37*
G36*
X072320Y075240D02*
X071975D01*
Y074895D01*
X072320D01*
Y075240D01*
D02*
G37*
G36*
X074577Y075031D02*
X074258Y074899D01*
X074390Y074580D01*
X074709Y074712D01*
X074577Y075031D01*
D02*
G37*
G36*
X072370Y072734D02*
X072200Y072700D01*
X072056Y072604D01*
X071960Y072460D01*
X071926Y072290D01*
X071960Y072120D01*
X072056Y071976D01*
X072200Y071880D01*
X072370Y071846D01*
X072540Y071880D01*
X072684Y071976D01*
X072780Y072120D01*
X072814Y072290D01*
X072780Y072460D01*
X072684Y072604D01*
X072540Y072700D01*
X072370Y072734D01*
D02*
G37*
G36*
X058461Y080714D02*
X057821D01*
Y080349D01*
X058461D01*
Y080714D01*
D02*
G37*
G36*
X064570Y070884D02*
X064542Y070878D01*
X064476Y070834D01*
X064432Y070768D01*
X064426Y070740D01*
X064570D01*
Y070884D01*
D02*
G37*
G36*
X070611Y080690D02*
X070367Y080446D01*
X070611Y080201D01*
X070855Y080446D01*
X070611Y080690D01*
D02*
G37*
G36*
X057721Y080714D02*
X057080D01*
Y080349D01*
X057721D01*
Y080714D01*
D02*
G37*
G36*
X066470Y080840D02*
X066127D01*
X066148Y080736D01*
X066235Y080605D01*
X066366Y080518D01*
X066470Y080497D01*
Y080840D01*
D02*
G37*
G36*
X055570Y070885D02*
X055476Y070866D01*
X055397Y070813D01*
X055344Y070734D01*
X055325Y070640D01*
X055312Y070626D01*
X055270Y070635D01*
X055176Y070616D01*
X055097Y070563D01*
X055044Y070484D01*
X055025Y070390D01*
X055012Y070376D01*
X054970Y070385D01*
X054876Y070366D01*
X054797Y070313D01*
X054744Y070234D01*
X054732Y070172D01*
X054670Y070185D01*
X054576Y070166D01*
X054497Y070113D01*
X054444Y070034D01*
X054432Y069973D01*
X054380Y069933D01*
X054370Y069935D01*
X054276Y069916D01*
X054197Y069863D01*
X054144Y069784D01*
X054125Y069690D01*
X054144Y069596D01*
X054197Y069517D01*
X054276Y069464D01*
X054348Y069450D01*
X054376Y069431D01*
X054424Y069421D01*
X054461Y069378D01*
X054465Y069366D01*
X054455Y069320D01*
X054407Y069315D01*
X054360Y069325D01*
X054266Y069306D01*
X054187Y069253D01*
X054134Y069174D01*
X054115Y069080D01*
X054134Y068986D01*
X054187Y068907D01*
X054266Y068854D01*
X054360Y068835D01*
X054387Y068841D01*
X054410Y068836D01*
X054410D01*
X054820Y068836D01*
X054845Y068841D01*
X054894Y068851D01*
X054947Y068886D01*
X055534Y068886D01*
X055558Y068842D01*
X055543Y068820D01*
X055535Y068782D01*
X055517Y068769D01*
X055420Y068750D01*
X055338Y068695D01*
X055283Y068613D01*
X055263Y068516D01*
X055283Y068419D01*
X055338Y068337D01*
X055672Y068003D01*
X055754Y067948D01*
X055851Y067929D01*
X055947Y067948D01*
X056030Y068003D01*
X056084Y068085D01*
X056104Y068182D01*
X056116Y068201D01*
X056155Y068209D01*
X056181Y068227D01*
X055871Y068537D01*
X055942Y068607D01*
X056252Y068297D01*
X056269Y068324D01*
X056277Y068362D01*
X056296Y068375D01*
X056393Y068394D01*
X056475Y068449D01*
X056530Y068531D01*
X056544Y068602D01*
X056616Y068617D01*
X056698Y068671D01*
X056753Y068754D01*
X056767Y068825D01*
X056838Y068839D01*
X056920Y068894D01*
X056975Y068976D01*
X056990Y069048D01*
X057061Y069062D01*
X057143Y069117D01*
X057198Y069199D01*
X057212Y069270D01*
X057284Y069285D01*
X057366Y069340D01*
X057421Y069422D01*
X057435Y069493D01*
X057506Y069507D01*
X057589Y069562D01*
X057643Y069644D01*
X057658Y069716D01*
X057729Y069730D01*
X057811Y069785D01*
X057866Y069867D01*
X057885Y069964D01*
X057898Y069983D01*
X057936Y069991D01*
X057963Y070008D01*
X057653Y070318D01*
X057342Y070629D01*
X057325Y070602D01*
X057323Y070594D01*
X057269Y070578D01*
X057140Y070707D01*
X057077Y070749D01*
X057003Y070764D01*
X055776Y070764D01*
X055743Y070813D01*
X055664Y070866D01*
X055570Y070885D01*
D02*
G37*
G36*
X064520Y081334D02*
X064350Y081300D01*
X064206Y081204D01*
X064110Y081060D01*
X064076Y080890D01*
X064110Y080720D01*
X064206Y080576D01*
X064350Y080480D01*
X064520Y080446D01*
X064690Y080480D01*
X064834Y080576D01*
X064930Y080720D01*
X064964Y080890D01*
X064930Y081060D01*
X064834Y081204D01*
X064690Y081300D01*
X064520Y081334D01*
D02*
G37*
G36*
X065520D02*
X065350Y081300D01*
X065206Y081204D01*
X065110Y081060D01*
X065076Y080890D01*
X065104Y080748D01*
X064883Y080527D01*
X064841Y080464D01*
X064826Y080390D01*
Y080325D01*
X064085D01*
Y079455D01*
X064326D01*
Y076820D01*
X063308Y075802D01*
X063251Y075791D01*
X063172Y075738D01*
X063119Y075659D01*
X063100Y075565D01*
X063105Y075540D01*
X063070Y075505D01*
X063045Y075510D01*
X062951Y075491D01*
X062872Y075438D01*
X062819Y075359D01*
X062800Y075265D01*
X062809Y075219D01*
X062781Y075191D01*
X062765Y075184D01*
X062676Y075166D01*
X062597Y075113D01*
X062544Y075034D01*
X062525Y074940D01*
X062544Y074846D01*
X062597Y074767D01*
X062676Y074714D01*
X062770Y074695D01*
X062864Y074714D01*
X062943Y074767D01*
X062953Y074781D01*
X063505D01*
X063579Y074796D01*
X063642Y074838D01*
X065657Y076853D01*
X065699Y076916D01*
X065714Y076990D01*
Y079496D01*
X065834Y079576D01*
X065930Y079720D01*
X065964Y079890D01*
X065930Y080060D01*
X065834Y080204D01*
X065690Y080300D01*
X065520Y080334D01*
X065350Y080300D01*
X065258Y080238D01*
X065214Y080262D01*
Y080310D01*
X065378Y080474D01*
X065520Y080446D01*
X065690Y080480D01*
X065834Y080576D01*
X065930Y080720D01*
X065964Y080890D01*
X065930Y081060D01*
X065834Y081204D01*
X065690Y081300D01*
X065520Y081334D01*
D02*
G37*
G36*
X046129Y080690D02*
X045885Y080446D01*
X046129Y080201D01*
X046373Y080446D01*
X046129Y080690D01*
D02*
G37*
G36*
Y080060D02*
X045885Y079816D01*
X046129Y079572D01*
X046373Y079816D01*
X046129Y080060D01*
D02*
G37*
G36*
X045814Y080375D02*
X045570Y080131D01*
X045814Y079887D01*
X046059Y080131D01*
X045814Y080375D01*
D02*
G37*
G36*
X072370Y071734D02*
X072200Y071700D01*
X072056Y071604D01*
X071960Y071460D01*
X071926Y071290D01*
X071960Y071120D01*
X072056Y070976D01*
X072200Y070880D01*
X072370Y070846D01*
X072540Y070880D01*
X072684Y070976D01*
X072780Y071120D01*
X072814Y071290D01*
X072780Y071460D01*
X072684Y071604D01*
X072540Y071700D01*
X072370Y071734D01*
D02*
G37*
G36*
X066520Y080334D02*
X066350Y080300D01*
X066206Y080204D01*
X066110Y080060D01*
X066076Y079890D01*
X066110Y079720D01*
X066206Y079576D01*
X066350Y079480D01*
X066520Y079446D01*
X066690Y079480D01*
X066834Y079576D01*
X066930Y079720D01*
X066964Y079890D01*
X066930Y080060D01*
X066834Y080204D01*
X066690Y080300D01*
X066520Y080334D01*
D02*
G37*
G36*
X070926Y080375D02*
X070681Y080131D01*
X070926Y079887D01*
X071170Y080131D01*
X070926Y080375D01*
D02*
G37*
G36*
X064670Y070884D02*
Y070740D01*
X064814D01*
X064808Y070768D01*
X064764Y070834D01*
X064698Y070878D01*
X064670Y070884D01*
D02*
G37*
G36*
X046444Y080375D02*
X046200Y080131D01*
X046444Y079887D01*
X046688Y080131D01*
X046444Y080375D01*
D02*
G37*
%LPD*%
G36*
X060152Y070954D02*
X060145Y070889D01*
X060106Y070863D01*
X060053Y070784D01*
X060042Y070727D01*
X059775Y070459D01*
X059728Y070479D01*
X059728Y070966D01*
X059714Y071041D01*
X059672Y071103D01*
X058975Y071800D01*
X058994Y071846D01*
X059259D01*
X060152Y070954D01*
D02*
G37*
G36*
X075206Y050534D02*
X075300Y050515D01*
X075424D01*
Y050502D01*
Y050002D01*
Y049502D01*
X076570D01*
Y049965D01*
X076615Y050015D01*
X076750D01*
X076844Y050034D01*
X076876Y050056D01*
X076926Y050029D01*
Y048828D01*
X076941Y048754D01*
X076983Y048691D01*
X077543Y048131D01*
X077524Y048085D01*
X076389D01*
X076295Y048066D01*
X076269Y048048D01*
X076215Y048013D01*
X075570Y047368D01*
X075288Y047650D01*
Y048135D01*
X075176D01*
Y049588D01*
X075158Y049682D01*
X075105Y049762D01*
X075025Y049841D01*
X075076Y049916D01*
X075079Y049932D01*
X075095Y050010D01*
X075095Y050550D01*
X075097Y050553D01*
X075145Y050575D01*
X075206Y050534D01*
D02*
G37*
G36*
X051016Y054331D02*
X051031Y054257D01*
X051073Y054194D01*
X051678Y053589D01*
X051659Y053543D01*
X051181D01*
X050837Y053886D01*
X050844Y053951D01*
X050883Y053977D01*
X050936Y054056D01*
X050955Y054150D01*
X050936Y054244D01*
X050904Y054292D01*
Y054380D01*
X051016D01*
Y054331D01*
D02*
G37*
G36*
X055905Y054480D02*
X055947Y054417D01*
X056026Y054364D01*
X056083Y054353D01*
X056847Y053589D01*
X056828Y053543D01*
X054962D01*
X054943Y053589D01*
X055847Y054493D01*
X055905Y054480D01*
D02*
G37*
G36*
X060676Y063955D02*
Y063127D01*
X060691Y063053D01*
X060733Y062990D01*
X061124Y062599D01*
X060460Y061935D01*
X060414Y061954D01*
Y062210D01*
X060557Y062353D01*
X060599Y062416D01*
X060614Y062490D01*
Y063968D01*
X060626Y063979D01*
X060676Y063955D01*
D02*
G37*
G36*
X057451Y058875D02*
Y055676D01*
X057466Y055602D01*
X057508Y055539D01*
X058982Y054065D01*
Y053190D01*
X058944Y053134D01*
X058932Y053073D01*
X058878Y053056D01*
X056613Y055321D01*
X057307Y056015D01*
X057349Y056078D01*
X057364Y056152D01*
Y058862D01*
X057401Y058892D01*
X057451Y058875D01*
D02*
G37*
G36*
X049286Y060796D02*
X049275Y060740D01*
X049294Y060646D01*
X049338Y060581D01*
Y060474D01*
X049096D01*
Y059634D01*
X048995D01*
Y060474D01*
X048754D01*
Y060583D01*
X048796Y060646D01*
X048815Y060740D01*
X048804Y060796D01*
X048843Y060846D01*
X049247D01*
X049286Y060796D01*
D02*
G37*
G36*
X048336D02*
X048325Y060740D01*
X048344Y060646D01*
X048366Y060613D01*
Y060474D01*
X048125D01*
Y059634D01*
X046403D01*
X046384Y059680D01*
X047550Y060846D01*
X048297D01*
X048336Y060796D01*
D02*
G37*
G36*
X059194Y056303D02*
X059257Y056261D01*
X059331Y056246D01*
X060040Y056246D01*
X060180Y056106D01*
X060159Y056056D01*
X060020D01*
Y055523D01*
Y054990D01*
X060162D01*
X060188Y054990D01*
X060212Y054950D01*
D01*
X060212D01*
X060212Y054950D01*
X060728D01*
Y054950D01*
X061212D01*
Y054950D01*
X061728D01*
Y054950D01*
X062712D01*
Y054950D01*
X063228D01*
Y054950D01*
X063378D01*
X063397Y054904D01*
X062833Y054340D01*
X062791Y054277D01*
X062776Y054203D01*
Y054053D01*
X062728Y054049D01*
X062728Y054049D01*
X062728Y054049D01*
X062212D01*
Y054049D01*
X061228D01*
Y054049D01*
X060712D01*
X060712Y054049D01*
Y054049D01*
X060664Y054053D01*
Y054248D01*
X060696Y054296D01*
X060715Y054390D01*
X060696Y054484D01*
X060643Y054563D01*
X060564Y054616D01*
X060470Y054635D01*
X060376Y054616D01*
X060297Y054563D01*
X060244Y054484D01*
X060225Y054390D01*
X060244Y054296D01*
X060276Y054248D01*
Y054053D01*
X060228Y054049D01*
X060228Y054049D01*
X060228Y054049D01*
X059764D01*
Y054090D01*
X059749Y054164D01*
X059707Y054227D01*
X058078Y055856D01*
Y056966D01*
X058531D01*
X059194Y056303D01*
D02*
G37*
G36*
X072012Y061537D02*
X071960Y061460D01*
X071926Y061290D01*
X071960Y061120D01*
X072015Y061038D01*
X071991Y060994D01*
X068582D01*
X068563Y061040D01*
X069104Y061582D01*
X071988D01*
X072012Y061537D01*
D02*
G37*
G36*
X073336Y065231D02*
Y064580D01*
X072768Y064012D01*
X072729Y064043D01*
X072780Y064120D01*
X072814Y064290D01*
X072780Y064460D01*
X072684Y064604D01*
Y064652D01*
X072708Y064668D01*
X073290Y065250D01*
X073336Y065231D01*
D02*
G37*
G36*
X072028Y064561D02*
X071960Y064460D01*
X071926Y064290D01*
X071960Y064120D01*
X072028Y064019D01*
X072001Y063969D01*
X070539D01*
X070520Y064015D01*
X071116Y064611D01*
X072001D01*
X072028Y064561D01*
D02*
G37*
G36*
X064826Y076910D02*
X064760Y076844D01*
X064714Y076863D01*
Y079455D01*
X064826D01*
Y076910D01*
D02*
G37*
G36*
X068526Y069510D02*
Y065790D01*
X068541Y065716D01*
X068583Y065653D01*
X068983Y065253D01*
X068994Y065196D01*
X069047Y065117D01*
X069126Y065064D01*
X069220Y065045D01*
X069314Y065064D01*
X069393Y065117D01*
X069446Y065196D01*
X069465Y065290D01*
X069446Y065384D01*
X069393Y065463D01*
X069314Y065516D01*
X069257Y065527D01*
X068914Y065870D01*
Y069590D01*
X068899Y069664D01*
X068895Y069671D01*
X068933Y069703D01*
X069026Y069610D01*
Y066432D01*
X068994Y066384D01*
X068975Y066290D01*
X068994Y066196D01*
X069047Y066117D01*
X069126Y066064D01*
X069220Y066045D01*
X069314Y066064D01*
X069393Y066117D01*
X069446Y066196D01*
X069465Y066290D01*
X069446Y066384D01*
X069414Y066432D01*
Y069690D01*
X069399Y069764D01*
X069357Y069827D01*
X069186Y069998D01*
X069203Y070052D01*
X069264Y070064D01*
X069343Y070117D01*
X069396Y070196D01*
X069408Y070257D01*
X069462Y070274D01*
X069657Y070079D01*
Y064039D01*
X068901Y063284D01*
X068853Y063298D01*
X068846Y063334D01*
X068793Y063413D01*
X068714Y063466D01*
X068657Y063477D01*
X067664Y064470D01*
Y065512D01*
X067714Y065527D01*
X067723Y065513D01*
X068983Y064253D01*
X068994Y064196D01*
X069047Y064117D01*
X069126Y064064D01*
X069220Y064045D01*
X069314Y064064D01*
X069393Y064117D01*
X069446Y064196D01*
X069465Y064290D01*
X069446Y064384D01*
X069393Y064463D01*
X069314Y064516D01*
X069257Y064527D01*
X068054Y065730D01*
Y069760D01*
X068039Y069834D01*
X067997Y069897D01*
X065805Y072089D01*
X065815Y072140D01*
X065812Y072153D01*
X065858Y072178D01*
X068526Y069510D01*
D02*
G37*
G36*
X072012Y062537D02*
X071960Y062460D01*
X071926Y062290D01*
X071960Y062120D01*
X072028Y062019D01*
X072001Y061969D01*
X069218D01*
X069199Y062015D01*
X069765Y062582D01*
X071988D01*
X072012Y062537D01*
D02*
G37*
G36*
X065326Y079496D02*
Y077071D01*
X065260Y077004D01*
X065214Y077023D01*
Y079518D01*
X065258Y079542D01*
X065326Y079496D01*
D02*
G37*
G36*
X073576Y064207D02*
Y063620D01*
X072925Y062969D01*
X072739D01*
X072712Y063019D01*
X072780Y063120D01*
X072814Y063290D01*
X072780Y063460D01*
X072728Y063537D01*
X072752Y063582D01*
X072805D01*
X072879Y063596D01*
X072942Y063638D01*
X073530Y064226D01*
X073576Y064207D01*
D02*
G37*
G36*
X072012Y063537D02*
X071960Y063460D01*
X071926Y063290D01*
X071960Y063120D01*
X072028Y063019D01*
X072001Y062969D01*
X069878D01*
X069859Y063015D01*
X070425Y063582D01*
X071988D01*
X072012Y063537D01*
D02*
G37*
%LPC*%
G36*
X059920Y055473D02*
X059752D01*
Y054990D01*
X059920D01*
Y055473D01*
D02*
G37*
G36*
Y056056D02*
X059752D01*
Y055573D01*
X059920D01*
Y056056D01*
D02*
G37*
%LPD*%
D10*
X074363Y061265D02*
D03*
X075636Y060738D02*
D03*
D11*
X064995Y051897D02*
D03*
X065522Y050624D02*
D03*
D12*
X058370Y050579D02*
D03*
X058370Y049201D02*
D03*
X058370Y085201D02*
D03*
X058370Y086579D02*
D03*
X077220Y053251D02*
D03*
X077220Y054629D02*
D03*
X078500Y053251D02*
D03*
X078500Y054629D02*
D03*
X079780Y053251D02*
D03*
X079780Y054629D02*
D03*
X072370Y075290D02*
D03*
D13*
X051745Y051897D02*
D03*
X051218Y050624D02*
D03*
D14*
X046129Y055649D02*
D03*
X045155Y054675D02*
D03*
X070611Y080131D02*
D03*
X071585Y081105D02*
D03*
D15*
X042377Y074515D02*
D03*
X041104Y075042D02*
D03*
D16*
X046129Y080131D02*
D03*
X045155Y081105D02*
D03*
X070611Y055649D02*
D03*
X071585Y054675D02*
D03*
D17*
X064995Y083883D02*
D03*
X065522Y085156D02*
D03*
D18*
X074363Y074515D02*
D03*
X075636Y075042D02*
D03*
D19*
X079554Y047424D02*
D03*
X078886Y046756D02*
D03*
D20*
X079429Y048663D02*
D03*
X077647Y046881D02*
D03*
D21*
X078475Y047835D02*
D03*
X078658Y048013D02*
D03*
X078839Y048194D02*
D03*
X078297Y047652D02*
D03*
X078116Y047471D02*
D03*
D22*
X051745Y083883D02*
D03*
X051218Y085156D02*
D03*
D23*
X054220Y085101D02*
D03*
X054220Y086479D02*
D03*
X055360Y060039D02*
D03*
X055360Y058661D02*
D03*
X054389Y060039D02*
D03*
X054389Y058661D02*
D03*
X053417Y060039D02*
D03*
X053417Y058661D02*
D03*
X052446Y060039D02*
D03*
X052446Y058661D02*
D03*
X051474Y060039D02*
D03*
X051474Y058661D02*
D03*
X050503Y060039D02*
D03*
X050503Y058661D02*
D03*
X049531Y060039D02*
D03*
X049531Y058661D02*
D03*
X048560Y060039D02*
D03*
X048560Y058661D02*
D03*
X064070Y058779D02*
D03*
X064070Y057401D02*
D03*
X063120Y058779D02*
D03*
X063120Y057401D02*
D03*
X062170Y058779D02*
D03*
Y057401D02*
D03*
X061220Y058779D02*
D03*
X061220Y057401D02*
D03*
X060270Y058779D02*
D03*
Y057401D02*
D03*
X059320Y058779D02*
D03*
X059320Y057401D02*
D03*
X058370Y058779D02*
D03*
X058370Y057401D02*
D03*
X065020Y058779D02*
D03*
X065020Y057401D02*
D03*
X044370Y061290D02*
D03*
D24*
X074932Y046560D02*
D03*
X073868Y046560D02*
D03*
X074932Y047660D02*
D03*
X073868D02*
D03*
X052389Y085190D02*
D03*
X053451Y085190D02*
D03*
X058270Y081958D02*
D03*
X057207Y081958D02*
D03*
X052839Y066790D02*
D03*
X053902D02*
D03*
X046089Y086740D02*
D03*
X047151Y086740D02*
D03*
X053007Y081108D02*
D03*
X054070D02*
D03*
X054919Y081101D02*
D03*
X055982Y081101D02*
D03*
D25*
X055506Y082347D02*
D03*
X055506Y081953D02*
D03*
X055005Y082347D02*
D03*
X055005Y081953D02*
D03*
X055520Y084793D02*
D03*
Y085187D02*
D03*
Y084237D02*
D03*
Y083843D02*
D03*
X055506Y082803D02*
D03*
Y083197D02*
D03*
X056206Y082353D02*
D03*
X056206Y082747D02*
D03*
D26*
X063846Y060814D02*
D03*
X063094Y061566D02*
D03*
X065446Y062464D02*
D03*
X064694Y063216D02*
D03*
D27*
X055684Y067431D02*
D03*
X055906Y067208D02*
D03*
X056129Y066985D02*
D03*
X056352Y066763D02*
D03*
X056574Y066540D02*
D03*
X056797Y066317D02*
D03*
X057020Y066094D02*
D03*
X057243Y065872D02*
D03*
X057465Y065649D02*
D03*
X057688Y065426D02*
D03*
X057911Y065204D02*
D03*
X061056Y068349D02*
D03*
X060834Y068572D02*
D03*
X060611Y068795D02*
D03*
X060388Y069017D02*
D03*
X060166Y069240D02*
D03*
X059943Y069463D02*
D03*
X059720Y069686D02*
D03*
X059497Y069908D02*
D03*
X059275Y070131D02*
D03*
X059052Y070354D02*
D03*
X058829Y070576D02*
D03*
D28*
X058829Y065204D02*
D03*
X059052Y065426D02*
D03*
X059275Y065649D02*
D03*
X059497Y065872D02*
D03*
X059720Y066094D02*
D03*
X059943Y066317D02*
D03*
X060166Y066540D02*
D03*
X060388Y066763D02*
D03*
X060611Y066985D02*
D03*
X060834Y067208D02*
D03*
X061056Y067431D02*
D03*
X057911Y070576D02*
D03*
X057688Y070354D02*
D03*
X057465Y070131D02*
D03*
X057243Y069908D02*
D03*
X057020Y069686D02*
D03*
X056797Y069463D02*
D03*
X056574Y069240D02*
D03*
X056352Y069017D02*
D03*
X056129Y068795D02*
D03*
X055906Y068572D02*
D03*
X055684Y068349D02*
D03*
D29*
X070500Y047992D02*
D03*
Y046712D02*
D03*
X072400Y047992D02*
D03*
Y046712D02*
D03*
D30*
X042377Y061265D02*
D03*
X041104Y060738D02*
D03*
D31*
X041059Y067890D02*
D03*
X039681D02*
D03*
X075681D02*
D03*
X077059Y067890D02*
D03*
X045931Y087690D02*
D03*
X047309D02*
D03*
D32*
X070606Y057175D02*
D03*
Y060305D02*
D03*
X068834D02*
D03*
X068834Y057175D02*
D03*
D33*
X053896Y083925D02*
D03*
X053699Y083925D02*
D03*
X054093Y083925D02*
D03*
X053502Y083925D02*
D03*
X053306Y083925D02*
D03*
X054093Y082350D02*
D03*
X053896Y082350D02*
D03*
X053306Y082350D02*
D03*
X053699Y082350D02*
D03*
X053502Y082350D02*
D03*
D34*
X054487Y082940D02*
D03*
Y083137D02*
D03*
Y082744D02*
D03*
X054487Y083334D02*
D03*
X054487Y083531D02*
D03*
X052912Y082940D02*
D03*
X052912Y083137D02*
D03*
X052912Y082744D02*
D03*
X052912Y083334D02*
D03*
X052912Y083531D02*
D03*
D35*
X050210Y054953D02*
D03*
X050710D02*
D03*
X051210D02*
D03*
X051710Y054953D02*
D03*
X052210Y054953D02*
D03*
X052710D02*
D03*
X053210Y054953D02*
D03*
X053710D02*
D03*
X050210Y057000D02*
D03*
X050710Y057000D02*
D03*
X051210D02*
D03*
X051710Y057000D02*
D03*
X052210D02*
D03*
X052710Y057000D02*
D03*
X053210D02*
D03*
X053710Y057000D02*
D03*
X059970Y053476D02*
D03*
X060470Y053476D02*
D03*
X060970Y053476D02*
D03*
X061470Y053476D02*
D03*
X061970D02*
D03*
X062470Y053476D02*
D03*
X062970Y053476D02*
D03*
X063470Y053476D02*
D03*
X059970Y055523D02*
D03*
X060470D02*
D03*
X060970Y055523D02*
D03*
X061470Y055523D02*
D03*
X061970Y055523D02*
D03*
X062470D02*
D03*
X062970Y055523D02*
D03*
X063470Y055523D02*
D03*
D36*
X075997Y049760D02*
D03*
Y050260D02*
D03*
Y050760D02*
D03*
Y051260D02*
D03*
X073950D02*
D03*
Y050760D02*
D03*
Y050260D02*
D03*
Y049760D02*
D03*
D37*
X057771Y078953D02*
D03*
Y080764D02*
D03*
D38*
X060389Y079858D02*
D03*
D39*
X063970Y064690D02*
D03*
X061638Y062358D02*
D03*
D40*
X052095Y079299D02*
D03*
X055392Y079299D02*
D03*
D41*
X043241Y088362D02*
D03*
X042672Y088362D02*
D03*
X041983Y088362D02*
D03*
D42*
X035800Y086540D02*
D03*
Y049590D02*
D03*
X080850D02*
D03*
X053400Y068190D02*
D03*
D43*
X062564Y083924D02*
X063170Y083924D01*
X062730Y084694D02*
X063210Y084694D01*
X041970Y087860D02*
X041970Y088340D01*
X042720Y087734D02*
X042720Y088340D01*
D44*
X062632Y083984D02*
X063299D01*
D45*
X053902Y066790D02*
X054070Y066621D01*
Y065540D02*
Y066621D01*
X067220Y061840D02*
X067731D01*
X069850Y063959D01*
Y070160D01*
X066750Y073260D02*
X069850Y070160D01*
X067470Y064390D02*
X068620Y063240D01*
X067470Y064390D02*
Y069640D01*
X065270Y071840D02*
X067470Y069640D01*
X062999Y065619D02*
X066370Y068990D01*
X061086Y065619D02*
X062999D01*
X061570Y064690D02*
X062530D01*
X061120Y065240D02*
X062670D01*
X061065Y065640D02*
X061086Y065619D01*
X062670Y065240D02*
X062720Y065290D01*
X062530Y064690D02*
X063010Y065170D01*
Y065191D02*
X066609Y068790D01*
X063010Y065170D02*
Y065191D01*
X065520Y076990D02*
Y079890D01*
X063505Y074975D02*
X065520Y076990D01*
X062805Y074975D02*
X063505D01*
X062770Y074940D02*
X062805Y074975D01*
X067860Y065650D02*
X069220Y064290D01*
X067860Y065650D02*
Y069760D01*
X065570Y072050D02*
X067860Y069760D01*
X065570Y072050D02*
Y072140D01*
X065020Y080390D02*
X065520Y080890D01*
X065020Y076830D02*
Y080390D01*
X063465Y075275D02*
X065020Y076830D01*
X063055Y075275D02*
X063465D01*
X063045Y075265D02*
X063055Y075275D01*
X068720Y065790D02*
X069220Y065290D01*
X068720Y065790D02*
Y069590D01*
X065870Y072440D02*
X068720Y069590D01*
X064520Y076740D02*
Y079890D01*
X063345Y075565D02*
X064520Y076740D01*
X069220Y066290D02*
Y069690D01*
X066170Y072740D02*
X069220Y069690D01*
X066470Y072990D02*
X069170Y070290D01*
X066609Y068790D02*
X066720D01*
X052470Y083640D02*
X052579Y083531D01*
X052912D01*
X050870Y082040D02*
X052164Y083334D01*
X052912D01*
X051220Y081960D02*
X052398Y083137D01*
X052912D01*
X051570Y081900D02*
X052611Y082940D01*
X052912D01*
X052243Y081767D02*
X052270Y081740D01*
X052243Y081767D02*
Y081790D01*
X052803Y082350D01*
X051920Y081839D02*
X052539Y082458D01*
X054220Y084340D02*
Y085101D01*
X054093Y084213D02*
X054220Y084340D01*
X054093Y083925D02*
Y084213D01*
X061170Y071840D02*
X062060Y070950D01*
Y070250D02*
Y070950D01*
Y070250D02*
X062770Y069540D01*
X065320Y066990D02*
X066920Y065390D01*
Y061290D02*
Y065390D01*
X057020Y061440D02*
X057120D01*
X056230Y062230D02*
X057020Y061440D01*
X056230Y062230D02*
Y065281D01*
X072520Y054340D02*
X075270Y051590D01*
X072520Y054340D02*
Y055940D01*
X057120Y061440D02*
Y061440D01*
X056420Y060040D02*
X059020Y062640D01*
Y062740D01*
X079790Y054639D02*
Y055660D01*
X079780Y054629D02*
X079790Y054639D01*
X078500Y054629D02*
Y055370D01*
X062020Y060890D02*
X062320D01*
X068320Y060290D02*
X068335Y060305D01*
X068834D01*
X068834Y057175D02*
Y060305D01*
X076931Y053251D02*
X077220D01*
X075270Y051590D02*
X076931Y053251D01*
X075270Y051330D02*
Y051590D01*
X075200Y051260D02*
X075270Y051330D01*
X078969Y052440D02*
X079780Y053251D01*
X078028Y052440D02*
X078969D01*
X077370Y051782D02*
X078028Y052440D01*
X077370Y048940D02*
Y051782D01*
Y048940D02*
X078475Y047835D01*
X077120Y051871D02*
X078500Y053251D01*
X077120Y048828D02*
Y051871D01*
Y048828D02*
X078297Y047652D01*
X058370Y086579D02*
X063431D01*
X064220Y085790D01*
Y083790D02*
Y085790D01*
Y083790D02*
X065170Y082840D01*
X066831D01*
X073290Y076381D01*
Y065524D02*
Y076381D01*
X072571Y064805D02*
X073290Y065524D01*
X071035Y064805D02*
X072571D01*
X066851Y060620D02*
X071035Y064805D01*
X065040Y060620D02*
X066851D01*
X065020Y060640D02*
X065040Y060620D01*
X065020Y060640D02*
Y060690D01*
X065020Y059290D02*
X065020Y059290D01*
X065020Y058779D02*
Y059290D01*
X065522Y084488D02*
Y085156D01*
Y084488D02*
X073530Y076480D01*
Y064500D02*
Y076480D01*
X072805Y063775D02*
X073530Y064500D01*
X070345Y063775D02*
X072805D01*
X066950Y060380D02*
X070345Y063775D01*
X064580Y060380D02*
X066950D01*
X064470Y060490D02*
X064580Y060380D01*
X064070Y058779D02*
Y059300D01*
X071585Y081105D02*
X073770Y078920D01*
Y063540D02*
Y078920D01*
X073005Y062775D02*
X073770Y063540D01*
X069685Y062775D02*
X073005D01*
X063120Y060140D02*
X067049D01*
X069685Y062775D01*
X063120Y060140D02*
Y060190D01*
X063120Y059290D02*
X063120Y059290D01*
X063120Y058779D02*
Y059290D01*
X075636Y074056D02*
Y075042D01*
X074970Y073390D02*
X075636Y074056D01*
X074970Y063740D02*
Y073390D01*
X073005Y061775D02*
X074970Y063740D01*
X069024Y061775D02*
X073005D01*
X067139Y059890D02*
X069024Y061775D01*
X062170Y059890D02*
X067139D01*
X062170Y059290D02*
X062170Y059290D01*
X062170Y058779D02*
Y059290D01*
X077059Y064979D02*
Y067890D01*
X072880Y060800D02*
X077059Y064979D01*
X068388Y060800D02*
X072880D01*
X067178Y059590D02*
X068388Y060800D01*
X062031Y059590D02*
X067178D01*
X061220Y058779D02*
X062031Y059590D01*
X071188Y056290D02*
X075636Y060738D01*
X068234Y056290D02*
X071188D01*
X063634Y051690D02*
X068234Y056290D01*
X058870Y051690D02*
X063634D01*
X057460Y059138D02*
X057531D01*
X057897Y059504D01*
X059545D01*
X060270Y058779D01*
X062470Y053156D02*
Y053476D01*
X061334Y052020D02*
X062470Y053156D01*
X063634Y051350D02*
X064756Y052473D01*
X059170Y051350D02*
X063634D01*
X059570Y050990D02*
X059920D01*
X060286Y050624D01*
X069383Y052473D02*
X071585Y054675D01*
X064756Y052473D02*
X069383D01*
X057885Y058294D02*
X058370Y058779D01*
X057885Y055775D02*
Y058294D01*
X059170Y053040D02*
X059175Y053045D01*
Y054145D01*
X057645Y055676D02*
X059175Y054145D01*
X057645Y055676D02*
Y058913D01*
X057996Y059264D01*
X058835D01*
X059320Y058779D01*
X060286Y050624D02*
X065522D01*
X059570Y053030D02*
Y054090D01*
X057885Y055775D02*
X059570Y054090D01*
X050470Y084408D02*
X051218Y085156D01*
X050470Y083040D02*
Y084408D01*
X043840Y076410D02*
X050470Y083040D01*
X043840Y060888D02*
Y076410D01*
Y060888D02*
X044328Y060400D01*
X045812D01*
X047172Y061760D01*
X048490D01*
X048570Y061840D01*
X048560Y060730D02*
X048570Y060740D01*
X048560Y060039D02*
Y060730D01*
X043600Y079550D02*
X045155Y081105D01*
X043600Y060789D02*
Y079550D01*
Y060789D02*
X044229Y060160D01*
X045911D01*
X047271Y061520D01*
X049450D01*
X049520Y061590D01*
Y060740D02*
X049531Y060729D01*
Y060039D02*
Y060729D01*
X041104Y074156D02*
Y075042D01*
Y074156D02*
X041770Y073490D01*
Y065179D02*
Y073490D01*
Y065179D02*
X043360Y063589D01*
Y060689D02*
Y063589D01*
Y060689D02*
X044129Y059920D01*
X046011D01*
X047371Y061280D01*
X050070D01*
X050130Y061340D01*
X050170D01*
Y060740D02*
X050503Y060407D01*
Y060039D02*
Y060407D01*
X039681Y066929D02*
Y067890D01*
Y066929D02*
X043120Y063490D01*
Y060590D02*
Y063490D01*
Y060590D02*
X044030Y059680D01*
X046110D01*
X047470Y061040D01*
X050473D01*
X051474Y060039D01*
X041104Y060738D02*
X042402Y059440D01*
X051847D01*
X052446Y060039D01*
X045155Y054675D02*
X046005D01*
X048075Y056745D01*
Y059035D01*
X048186Y059146D01*
X052524D01*
X053417Y060039D01*
X051218Y050624D02*
X051754D01*
X054170Y053040D01*
X055170D01*
X056020Y059890D02*
Y060290D01*
X055720Y060590D02*
X056020Y060290D01*
X054940Y060590D02*
X055720D01*
X054389Y060039D02*
X054940Y060590D01*
X056180Y056590D02*
Y059219D01*
X057420Y050151D02*
X058370Y049201D01*
X057420Y050151D02*
Y052440D01*
X056120Y056590D02*
X056180D01*
X055360Y060039D02*
X056180Y059219D01*
X051101Y053349D02*
X057022D01*
X058351Y052020D01*
X050210Y054240D02*
Y054953D01*
Y054240D02*
X051101Y053349D01*
X058351Y052020D02*
X061334D01*
X061970Y053156D02*
Y053476D01*
X061074Y052260D02*
X061970Y053156D01*
X058450Y052260D02*
X061074D01*
X056120Y054590D02*
X058450Y052260D01*
X060814Y052500D02*
X061470Y053156D01*
X058710Y052500D02*
X060814D01*
X056420Y054790D02*
X058710Y052500D01*
X055510Y055530D02*
X056420Y056440D01*
X055350Y055530D02*
X055510D01*
X055180Y055360D02*
X055350Y055530D01*
X055180Y055210D02*
Y055360D01*
X054300Y054330D02*
X055180Y055210D01*
X054300Y054330D02*
X054300D01*
X055470Y055160D02*
Y055240D01*
X054399Y054090D02*
X055470Y055160D01*
Y055240D02*
X055560D01*
X055891Y055571D01*
X055910D01*
X056390Y055270D02*
X058920Y052740D01*
X054690Y053610D02*
X056030Y054950D01*
X056140D01*
X056390Y055200D01*
X054528Y053850D02*
X055918Y055240D01*
X056390Y055270D02*
Y055372D01*
Y055200D02*
Y055270D01*
X057170Y056152D02*
Y059690D01*
X054598Y053610D02*
X054690D01*
X056390Y055372D02*
X057170Y056152D01*
X055970Y055292D02*
X056920Y056242D01*
X055910Y055571D02*
X056670Y056331D01*
X052460Y053850D02*
X054499Y053850D01*
X056920Y056242D02*
Y059800D01*
X057170Y059690D02*
X059670Y062190D01*
X060970Y053140D02*
Y053476D01*
X060570Y052740D02*
X060970Y053140D01*
X058920Y052740D02*
X060570D01*
X055360Y059946D02*
Y060039D01*
X065020Y056740D02*
Y057401D01*
X063778Y055498D02*
X065020Y056740D01*
X063778Y055498D02*
X063778Y055011D01*
X062970Y054203D02*
X063778Y055011D01*
X062970Y053476D02*
X062970Y054203D01*
X064070Y056690D02*
X064070Y057401D01*
X063470Y056090D02*
X064070Y056690D01*
X063470Y055523D02*
X063470Y056090D01*
X063120Y056340D02*
Y057401D01*
X062970Y056190D02*
X063120Y056340D01*
X062970Y055523D02*
Y056190D01*
X062170Y056590D02*
Y057401D01*
Y056590D02*
X062470Y056290D01*
Y055523D02*
Y056290D01*
X061220Y056890D02*
X061220Y057401D01*
X061220Y056890D02*
X061970Y056140D01*
Y055523D02*
Y056140D01*
X060270Y057401D02*
X060270Y057290D01*
X061470Y056090D01*
Y055523D02*
Y056090D01*
X059320Y057401D02*
X060041Y056680D01*
X060380Y056680D01*
X060970Y056090D01*
Y055523D02*
Y056090D01*
X058370Y057401D02*
X059331Y056440D01*
X060120Y056440D01*
X060470Y056090D01*
Y055523D02*
Y056090D01*
X054018Y057319D02*
X055360Y058661D01*
X054018Y057319D02*
X054018Y056488D01*
X053210Y055680D02*
X054018Y056488D01*
X053210Y054953D02*
X053210Y055680D01*
X054389Y058379D02*
Y058661D01*
X053710Y057700D02*
X054389Y058379D01*
X053710Y057000D02*
Y057700D01*
X053417Y058057D02*
X053417Y058661D01*
X053210Y057850D02*
X053417Y058057D01*
X053210Y057000D02*
Y057850D01*
X052446Y058164D02*
Y058661D01*
Y058164D02*
X052710Y057900D01*
Y057000D02*
Y057900D01*
X051474Y058661D02*
X052210Y057925D01*
Y057000D02*
Y057925D01*
X050503Y058661D02*
X051710Y057454D01*
X051710Y057000D02*
X051710Y057454D01*
X049531Y058661D02*
X050329Y057863D01*
X050947Y057863D01*
X051210Y057600D01*
X051210Y057000D02*
X051210Y057600D01*
X048560Y058661D02*
X049598Y057623D01*
X050637Y057623D01*
X050710Y057550D01*
Y057000D02*
Y057550D01*
X062810Y065880D02*
X066520Y069590D01*
X062050Y066120D02*
X065670Y069740D01*
X061895Y066965D02*
X065170Y070240D01*
X062279Y068349D02*
X064620Y070690D01*
X057949Y063400D02*
X059310Y063400D01*
X056740Y064610D02*
X057949Y063400D01*
X058990Y063720D02*
X059020Y063690D01*
X057969Y063720D02*
X058990D01*
X057209Y064479D02*
X057969Y063720D01*
X058018Y064010D02*
X058790D01*
X057008Y066106D02*
X057055Y066106D01*
X056230Y065281D02*
X057020Y066071D01*
Y066094D01*
X055410Y062850D02*
X055420Y062840D01*
X055410Y062850D02*
Y063360D01*
X055360Y063410D02*
X055410Y063360D01*
X055360Y063410D02*
Y065794D01*
X055120Y063240D02*
Y065976D01*
X055360Y065794D02*
X056304Y066739D01*
X055120Y065976D02*
X056129Y066985D01*
X055918Y067196D02*
Y067243D01*
X060570Y071919D02*
X061820Y070669D01*
X060570Y072040D02*
X060570Y071919D01*
X060070Y072079D02*
X061310Y070839D01*
X060070Y072079D02*
X060070Y072190D01*
X059620Y072190D02*
X061070Y070740D01*
X047520Y074290D02*
X049220Y072590D01*
X058602Y071560D02*
X059295Y070867D01*
X055740Y071560D02*
X058602Y071560D01*
X055590Y071410D02*
X055740Y071560D01*
X054650Y071410D02*
X055590D01*
X054570Y071490D02*
X054650Y071410D01*
X055640Y071800D02*
X058701D01*
X055490Y071650D02*
X055640Y071800D01*
X055060Y071650D02*
X055490Y071650D01*
X054970Y071740D02*
X055060Y071650D01*
X060182Y069252D02*
X060710Y069780D01*
Y070669D01*
X059339Y072040D02*
X060710Y070669D01*
X055470Y072040D02*
X059339Y072040D01*
X055370Y071940D02*
X055470Y072040D01*
X059263Y070143D02*
X059310Y070143D01*
X059535Y070367D01*
X059535Y070966D02*
X059535Y070367D01*
X058721Y071780D02*
X059535Y070966D01*
X059052Y070377D02*
X059099Y070377D01*
X059295Y070573D01*
Y070867D01*
X057003Y070570D02*
X057453Y070119D01*
X055640Y070570D02*
X057003Y070570D01*
X055570Y070640D02*
X055640Y070570D01*
X056592Y070090D02*
X057008Y069674D01*
X056797Y070330D02*
X057231Y069897D01*
X055330Y070330D02*
X056797D01*
X055270Y070390D02*
X055330Y070330D01*
X055020Y070090D02*
X056592D01*
X054970Y070140D02*
X055020Y070090D01*
X054870Y069080D02*
X055820Y069080D01*
X054820Y069030D02*
X054870Y069080D01*
X054410Y069030D02*
X054820Y069030D01*
X054360Y069080D02*
X054410Y069030D01*
X056386Y069850D02*
X056785Y069451D01*
X054760Y069850D02*
X056386Y069850D01*
X054670Y069940D02*
X054760Y069850D01*
X056181Y069610D02*
X056563Y069228D01*
X054450Y069610D02*
X056181D01*
X054370Y069690D02*
X054450Y069610D01*
X056026Y069320D02*
X056340Y069006D01*
X054700Y069320D02*
X056026D01*
X054743Y083137D02*
X054855Y083250D01*
X054487Y083137D02*
X054743Y083137D01*
X054815Y082940D02*
X054952Y082803D01*
X054487Y082940D02*
X054815Y082940D01*
X055446Y083137D02*
X055506Y083197D01*
X054487Y082700D02*
X054637Y082550D01*
X072400Y047992D02*
X072532Y047860D01*
X055820Y069080D02*
X056105Y068795D01*
X056129D01*
X056340Y069006D02*
X056352Y069017D01*
X056563Y069228D02*
X056574Y069240D01*
X056785Y069451D02*
X056797Y069463D01*
X057008Y069674D02*
X057020Y069686D01*
X060377Y069029D02*
X060424Y069029D01*
X054620Y064390D02*
Y066367D01*
X055684Y067431D01*
X056470Y064540D02*
X057910Y063100D01*
X056470Y064540D02*
Y065099D01*
X057243Y065872D01*
X056740Y064610D02*
Y064923D01*
X057465Y065649D01*
X057209Y064479D02*
Y064948D01*
X057688Y065426D01*
X057570Y064458D02*
X058018Y064010D01*
X057570Y064458D02*
X057570Y064863D01*
X057911Y065204D01*
X060166Y066540D02*
X061065Y065640D01*
X061271Y065880D02*
X062810Y065880D01*
X060388Y066763D02*
X061271Y065880D01*
X061476Y066120D02*
X062050D01*
X060611Y066985D02*
X061476Y066120D01*
X061100Y066965D02*
X061895Y066965D01*
X060857Y067208D02*
X061100Y066965D01*
X060834Y067208D02*
X060857D01*
X061056Y068349D02*
X062279Y068349D01*
X056304Y066739D02*
X056352D01*
X055906Y067208D02*
X055906Y067208D01*
X055918Y067196D01*
Y067243D02*
X056125Y067451D01*
X056420Y067451D01*
X057262Y066608D01*
X057262Y066313D02*
X057262Y066608D01*
X057055Y066106D02*
X057262Y066313D01*
X057008Y066106D02*
X057020Y066094D01*
X056070Y065590D02*
X056797Y066317D01*
X055870Y065590D02*
X056070Y065590D01*
X058220Y071186D02*
X058829Y070576D01*
X060424Y069029D02*
X061070Y069676D01*
X059720Y069686D02*
X060370Y070335D01*
X059943Y069463D02*
X060420Y069940D01*
X061070Y070740D02*
X061070Y069676D01*
X059497Y069908D02*
X060279Y070690D01*
X060611Y068818D02*
X060611Y068795D01*
X060611Y068818D02*
X061310Y069517D01*
Y070839D01*
X061056Y067431D02*
X061561Y067431D01*
X061820Y067690D01*
Y068790D02*
Y070669D01*
X074872Y046845D02*
X074932Y046845D01*
X074932Y046560D01*
X050710Y054150D02*
Y054953D01*
X052710Y054953D02*
X052710Y054633D01*
X053710Y054953D02*
X054157D01*
X053013Y054330D02*
X054300Y054330D01*
X052710Y054633D02*
X053013Y054330D01*
X052210Y054600D02*
Y054953D01*
Y054600D02*
X052720Y054090D01*
X059960Y064535D02*
X061065Y065640D01*
X051710Y054953D02*
X051710Y054600D01*
X052460Y053850D01*
X051210Y054953D02*
X051210Y054331D01*
X051931Y053610D01*
X054598Y053610D01*
X063470Y053476D02*
X063934Y053940D01*
X060470Y053476D02*
Y054390D01*
X057910Y063100D02*
X059630Y063100D01*
X059310Y063400D02*
X059320Y063390D01*
X060870Y063127D02*
X061638Y062358D01*
X060870Y064990D02*
X060870Y063127D01*
X060325Y065490D02*
X060370Y065490D01*
X059720Y066094D02*
X060325Y065490D01*
X063370Y064690D02*
X063970Y064690D01*
X063170Y064890D02*
X063370Y064690D01*
X060430Y065830D02*
X060465Y065830D01*
X059943Y066317D02*
X060430Y065830D01*
X062431Y061566D02*
X063094Y061566D01*
X061638Y062358D02*
X062431Y061566D01*
X064694Y063216D02*
X064694Y063966D01*
X063970Y064690D02*
X064694Y063966D01*
X059960Y063020D02*
Y064535D01*
X059790Y062850D02*
X059960Y063020D01*
X059670Y062190D02*
X059720D01*
X061120Y060890D02*
X062020Y060890D01*
X060220Y061790D02*
X061120Y060890D01*
X060220Y061790D02*
Y062290D01*
X060420Y062490D01*
Y064140D01*
X059143Y064890D02*
X059870Y064890D01*
X058829Y065204D02*
X059143Y064890D01*
X059714Y065184D02*
X059770Y065240D01*
X059318Y065184D02*
X059714Y065184D01*
X059076Y065426D02*
X059318Y065184D01*
X059052Y065426D02*
X059076Y065426D01*
X055392Y080005D02*
X055392Y079299D01*
X054919Y080478D02*
X055392Y080005D01*
X054919Y080478D02*
X054919Y081101D01*
X054096Y081924D02*
X054919Y081101D01*
X054093Y081927D02*
Y082350D01*
X052095Y079299D02*
Y080196D01*
X053007Y081108D01*
X053896Y082350D02*
X053896Y081997D01*
X053007Y081108D02*
X053896Y081997D01*
X053502Y082022D02*
X053502Y082350D01*
X053289Y081808D02*
X053502Y082022D01*
X053139Y081808D02*
X053289Y081808D01*
X053502Y083925D02*
Y084272D01*
X053699Y084248D02*
X053699Y083925D01*
X053589Y084358D02*
X053699Y084248D01*
X053502Y084272D02*
X053589Y084358D01*
X054487Y083531D02*
X054561D01*
X054889Y083858D01*
X052539Y082458D02*
X052824Y082744D01*
X052912Y082744D01*
X052803Y082350D02*
X053306D01*
X069170Y070290D02*
X069220D01*
X052720Y054090D02*
X054399Y054090D01*
X059710Y062590D02*
X059970D01*
X059580Y062850D02*
X059790D01*
X059630Y063100D02*
X059670Y063140D01*
X056920Y059800D02*
X059710Y062590D01*
X056670Y056331D02*
Y059940D01*
X059580Y062850D01*
X056420Y056450D02*
Y060040D01*
D46*
X055520Y085187D02*
Y087140D01*
X054870Y087790D02*
X055520Y087140D01*
X049070Y087790D02*
X054870D01*
X048020Y086740D02*
X049070Y087790D01*
X047151Y086740D02*
X048020D01*
X047151D02*
X047309Y086897D01*
Y087690D01*
X043913D02*
X045931D01*
X043241Y088362D02*
X043913Y087690D01*
X055520Y084237D02*
Y084793D01*
X055506Y083197D02*
Y083829D01*
X077620Y047840D02*
X077746D01*
X078116Y047471D01*
X054855Y083250D02*
X055452D01*
X054952Y082803D02*
X055505Y082803D01*
X054815Y082550D02*
X055012Y082353D01*
X054637Y082550D02*
X054815Y082550D01*
X055012Y082353D02*
X056206Y082353D01*
X055505Y082803D02*
X056149Y082803D01*
X058789Y081458D02*
X058939Y081608D01*
X058289Y081958D02*
X058789Y081458D01*
X060389Y079858D01*
D47*
X072820Y050240D02*
X073930D01*
X076389Y047840D02*
X077620D01*
X074680Y049840D02*
X074850Y050010D01*
X074600Y049760D02*
X074680Y049840D01*
X074932Y049588D01*
Y047660D02*
Y049588D01*
X075570Y047021D02*
X076389Y047840D01*
X072970Y046142D02*
X073272Y045840D01*
X072400Y046712D02*
X072970Y046142D01*
X073120Y046292D01*
X074932Y047660D02*
X075570Y047021D01*
Y046040D02*
Y047021D01*
X075020Y045490D02*
X075570Y046040D01*
X071722Y045490D02*
X075020D01*
X070500Y046712D02*
X071722Y045490D01*
X074212Y045840D02*
X074932Y046560D01*
X073272Y045840D02*
X074212D01*
X075000Y051060D02*
X075200Y051260D01*
X075997D01*
X075000Y051060D02*
X075300Y050760D01*
X074700Y050760D02*
X075000Y051060D01*
X073950Y049760D02*
X074600Y049760D01*
X074850Y050010D02*
X074850Y050610D01*
X074700Y050760D02*
X074850Y050610D01*
X073950Y050760D02*
X074700Y050760D01*
X075300Y050760D02*
X075997D01*
Y049760D02*
Y050260D01*
X073200Y051260D02*
X073950Y051260D01*
X075997Y050260D02*
X076750Y050260D01*
D48*
X077270Y044276D02*
X081994Y049000D01*
X077270Y091520D02*
X081994Y086795D01*
X034750D02*
X039474Y091520D01*
X034750Y049000D02*
X039474Y044276D01*
X081994Y049000D02*
Y086795D01*
X039474Y044276D02*
X077270D01*
X034750Y049000D02*
Y086795D01*
X039474Y091520D02*
X077270D01*
D49*
X078301Y046171D02*
D03*
X080139Y048009D02*
D03*
D50*
X064520Y079890D02*
D03*
D51*
X065520D02*
D03*
X066520Y079890D02*
D03*
X064520Y080890D02*
D03*
X065520D02*
D03*
X066520Y080890D02*
D03*
X044370Y067290D02*
D03*
X044370Y066290D02*
D03*
Y065290D02*
D03*
X044370Y062290D02*
D03*
Y063290D02*
D03*
Y064290D02*
D03*
Y068290D02*
D03*
Y075290D02*
D03*
Y074290D02*
D03*
Y073290D02*
D03*
X044370Y072290D02*
D03*
X044370Y071290D02*
D03*
X044370Y070290D02*
D03*
X044370Y069290D02*
D03*
X072370Y074290D02*
D03*
Y073290D02*
D03*
X072370Y072290D02*
D03*
X072370Y071290D02*
D03*
Y070290D02*
D03*
Y069290D02*
D03*
Y068290D02*
D03*
Y067290D02*
D03*
Y066290D02*
D03*
X072370Y065290D02*
D03*
Y064290D02*
D03*
X072370Y063290D02*
D03*
Y062290D02*
D03*
Y061290D02*
D03*
X072370Y060290D02*
D03*
D52*
X055520Y086290D02*
D03*
X056020Y085790D02*
D03*
X056020Y086790D02*
D03*
X055020Y086790D02*
D03*
X055020Y085790D02*
D03*
D53*
X080170Y051140D02*
D03*
X078170D02*
D03*
D54*
X067220Y061840D02*
D03*
X066750Y073260D02*
D03*
X068620Y063240D02*
D03*
X066370Y068990D02*
D03*
X062720Y065290D02*
D03*
X065270Y071840D02*
D03*
X062770Y074940D02*
D03*
X069220Y064290D02*
D03*
X065570Y072140D02*
D03*
X063045Y075265D02*
D03*
X069220Y065290D02*
D03*
X065870Y072440D02*
D03*
X063345Y075565D02*
D03*
X069220Y066290D02*
D03*
X066170Y072740D02*
D03*
X066470Y072990D02*
D03*
X066720Y068790D02*
D03*
X052470Y083640D02*
D03*
X050870Y082040D02*
D03*
X051220Y081960D02*
D03*
X051570Y081900D02*
D03*
X051920Y081839D02*
D03*
X052270Y081740D02*
D03*
X061170Y071840D02*
D03*
X062770Y069540D02*
D03*
X065320Y066990D02*
D03*
X066920Y061290D02*
D03*
X072520Y055940D02*
D03*
X057120Y061440D02*
D03*
X079790Y055660D02*
D03*
X078500Y055370D02*
D03*
X062320Y060890D02*
D03*
X068320Y060290D02*
D03*
X072820Y050240D02*
D03*
X073120Y046292D02*
D03*
X065020Y060690D02*
D03*
Y059290D02*
D03*
X064470Y060490D02*
D03*
X064070Y059300D02*
D03*
X063120Y060190D02*
D03*
Y059290D02*
D03*
X062170Y059890D02*
D03*
Y059290D02*
D03*
X058870Y051690D02*
D03*
X057460Y059138D02*
D03*
X059570Y050990D02*
D03*
X059170Y051350D02*
D03*
Y053040D02*
D03*
X059570Y053030D02*
D03*
X048570Y061840D02*
D03*
Y060740D02*
D03*
X049520Y061590D02*
D03*
Y060740D02*
D03*
X050170Y061340D02*
D03*
Y060740D02*
D03*
X055170Y053040D02*
D03*
X056020Y059890D02*
D03*
X057420Y052440D02*
D03*
X056120Y056590D02*
D03*
Y054590D02*
D03*
X056420Y054790D02*
D03*
X055470Y055240D02*
D03*
X055970D02*
D03*
X060470Y054390D02*
D03*
X058939Y081608D02*
D03*
X053139Y081808D02*
D03*
X053589Y084358D02*
D03*
X054889Y083858D02*
D03*
X066520Y069590D02*
D03*
X065670Y069740D02*
D03*
X065170Y070240D02*
D03*
X064620Y070690D02*
D03*
X059020Y063690D02*
D03*
X058790Y064010D02*
D03*
X055420Y062840D02*
D03*
X055120Y063240D02*
D03*
X060570Y072040D02*
D03*
X060070Y072190D02*
D03*
X059620Y072190D02*
D03*
X049220Y072590D02*
D03*
X054570Y071490D02*
D03*
X054970Y071740D02*
D03*
X055370Y071940D02*
D03*
X055570Y070640D02*
D03*
X055270Y070390D02*
D03*
X054970Y070140D02*
D03*
X054670Y069940D02*
D03*
X054370Y069690D02*
D03*
X054700Y069320D02*
D03*
X054360Y069080D02*
D03*
X054620Y064390D02*
D03*
X055870Y065590D02*
D03*
X054070Y065540D02*
D03*
X058220Y071186D02*
D03*
X060370Y070335D02*
D03*
X060420Y069940D02*
D03*
X060279Y070690D02*
D03*
X061820Y067690D02*
D03*
Y068790D02*
D03*
X073200Y051260D02*
D03*
X076750Y050260D02*
D03*
X050710Y054150D02*
D03*
X054157Y054953D02*
D03*
X063934Y053940D02*
D03*
X059320Y063390D02*
D03*
X061570Y064690D02*
D03*
X060870Y064990D02*
D03*
X060370Y065490D02*
D03*
X063170Y064890D02*
D03*
X061120Y065240D02*
D03*
X060465Y065830D02*
D03*
X059720Y062190D02*
D03*
X060420Y064140D02*
D03*
X059870Y064890D02*
D03*
X059770Y065240D02*
D03*
X047520Y074290D02*
D03*
X069170Y070290D02*
D03*
X059970Y062590D02*
D03*
X059020Y062740D02*
D03*
X059670Y063140D02*
D03*
D55*
X058333Y089748D02*
D03*
M02*
