%FSAX24Y24*%
%MOIN*%
G70*
G01*
G75*
G04:AMPARAMS|DCode=10|XSize=40mil|YSize=40mil|CornerRadius=20mil|HoleSize=0mil|Usage=FLASHONLY|Rotation=0.000|XOffset=0mil|YOffset=0mil|HoleType=Round|Shape=RoundedRectangle|*
%AMROUNDEDRECTD10*
21,1,0.0400,0.0000,0,0,0.0*
21,1,0.0000,0.0400,0,0,0.0*
1,1,0.0400,0.0000,0.0000*
1,1,0.0400,0.0000,0.0000*
1,1,0.0400,0.0000,0.0000*
1,1,0.0400,0.0000,0.0000*
%
%ADD10ROUNDEDRECTD10*%
%ADD11R,0.0591X0.0591*%
%ADD12R,0.0079X0.0197*%
%ADD13R,0.2165X0.0787*%
G04:AMPARAMS|DCode=14|XSize=216.5mil|YSize=78.7mil|CornerRadius=0mil|HoleSize=0mil|Usage=FLASHONLY|Rotation=225.000|XOffset=0mil|YOffset=0mil|HoleType=Round|Shape=Rectangle|*
%AMROTATEDRECTD14*
4,1,4,0.0487,0.1044,0.1044,0.0487,-0.0487,-0.1044,-0.1044,-0.0487,0.0487,0.1044,0.0*
%
%ADD14ROTATEDRECTD14*%

%ADD15R,0.2638X0.2638*%
%ADD16R,0.1181X0.0630*%
%ADD17R,0.0866X0.0236*%
%ADD18R,0.0236X0.0866*%
%ADD19R,0.0098X0.0276*%
%ADD20R,0.0276X0.0098*%
%ADD21R,0.0512X0.0610*%
%ADD22R,0.0591X0.0591*%
%ADD23R,0.0591X0.0591*%
%ADD24P,0.0835X4X67.5*%
%ADD25R,0.0512X0.0984*%
G04:AMPARAMS|DCode=26|XSize=21.7mil|YSize=68.9mil|CornerRadius=0mil|HoleSize=0mil|Usage=FLASHONLY|Rotation=45.000|XOffset=0mil|YOffset=0mil|HoleType=Round|Shape=Round|*
%AMOVALD26*
21,1,0.0472,0.0217,0.0000,0.0000,135.0*
1,1,0.0217,0.0167,-0.0167*
1,1,0.0217,-0.0167,0.0167*
%
%ADD26OVALD26*%

G04:AMPARAMS|DCode=27|XSize=21.7mil|YSize=68.9mil|CornerRadius=0mil|HoleSize=0mil|Usage=FLASHONLY|Rotation=135.000|XOffset=0mil|YOffset=0mil|HoleType=Round|Shape=Round|*
%AMOVALD27*
21,1,0.0472,0.0217,0.0000,0.0000,225.0*
1,1,0.0217,0.0167,0.0167*
1,1,0.0217,-0.0167,-0.0167*
%
%ADD27OVALD27*%

%ADD28R,0.0197X0.0236*%
G04:AMPARAMS|DCode=29|XSize=66.9mil|YSize=43.3mil|CornerRadius=0mil|HoleSize=0mil|Usage=FLASHONLY|Rotation=45.000|XOffset=0mil|YOffset=0mil|HoleType=Round|Shape=Rectangle|*
%AMROTATEDRECTD29*
4,1,4,-0.0084,-0.0390,-0.0390,-0.0084,0.0084,0.0390,0.0390,0.0084,-0.0084,-0.0390,0.0*
%
%ADD29ROTATEDRECTD29*%

%ADD30R,0.0433X0.0669*%
%ADD31P,0.0835X4X337.5*%
G04:AMPARAMS|DCode=32|XSize=15.7mil|YSize=53.2mil|CornerRadius=0mil|HoleSize=0mil|Usage=FLASHONLY|Rotation=45.000|XOffset=0mil|YOffset=0mil|HoleType=Round|Shape=Rectangle|*
%AMROTATEDRECTD32*
4,1,4,0.0132,-0.0244,-0.0244,0.0132,-0.0132,0.0244,0.0244,-0.0132,0.0132,-0.0244,0.0*
%
%ADD32ROTATEDRECTD32*%

G04:AMPARAMS|DCode=33|XSize=63mil|YSize=55.1mil|CornerRadius=0mil|HoleSize=0mil|Usage=FLASHONLY|Rotation=45.000|XOffset=0mil|YOffset=0mil|HoleType=Round|Shape=Rectangle|*
%AMROTATEDRECTD33*
4,1,4,-0.0028,-0.0418,-0.0418,-0.0028,0.0028,0.0418,0.0418,0.0028,-0.0028,-0.0418,0.0*
%
%ADD33ROTATEDRECTD33*%

%ADD34P,0.1058X4X90.0*%
%ADD35P,0.0835X4X180.0*%
%ADD36P,0.0835X4X247.5*%
%ADD37P,0.0835X4X270.0*%
%ADD38P,0.0835X4X292.5*%
%ADD39P,0.0835X4X382.5*%
%ADD40P,0.0835X4X112.5*%
%ADD41R,0.0591X0.0591*%
%ADD42P,0.0835X4X157.5*%
%ADD43P,0.0835X4X202.5*%
%ADD44C,0.0512*%
%ADD45C,0.0100*%
%ADD46C,0.0140*%
%ADD47C,0.0200*%
%ADD48C,0.0039*%
%ADD49C,0.0005*%
%ADD50C,0.0800*%
%ADD51C,0.0551*%
%ADD52C,0.0591*%
G04:AMPARAMS|DCode=53|XSize=35.4mil|YSize=63mil|CornerRadius=0mil|HoleSize=0mil|Usage=FLASHONLY|Rotation=45.000|XOffset=0mil|YOffset=0mil|HoleType=Round|Shape=Round|*
%AMOVALD53*
21,1,0.0276,0.0354,0.0000,0.0000,135.0*
1,1,0.0354,0.0097,-0.0097*
1,1,0.0354,-0.0097,0.0097*
%
%ADD53OVALD53*%

%ADD54C,0.2894*%
%ADD55C,0.0200*%
D10*
X053400Y068190D02*
D03*
X080850Y049590D02*
D03*
X035800D02*
D03*
Y086540D02*
D03*
D11*
X065020Y057401D02*
D03*
X065020Y058779D02*
D03*
X058370Y057401D02*
D03*
X058370Y058779D02*
D03*
X059320Y057401D02*
D03*
X059320Y058779D02*
D03*
X060270Y057401D02*
D03*
Y058779D02*
D03*
X061220Y057401D02*
D03*
X061220Y058779D02*
D03*
X062170Y057401D02*
D03*
Y058779D02*
D03*
X063120Y057401D02*
D03*
X063120Y058779D02*
D03*
X064070Y057401D02*
D03*
X064070Y058779D02*
D03*
X048560Y058661D02*
D03*
X048560Y060039D02*
D03*
X049531Y058661D02*
D03*
X049531Y060039D02*
D03*
X050503Y058661D02*
D03*
X050503Y060039D02*
D03*
X051474Y058661D02*
D03*
X051474Y060039D02*
D03*
X052446Y058661D02*
D03*
X052446Y060039D02*
D03*
X079780Y054629D02*
D03*
X079780Y053251D02*
D03*
X053417Y058661D02*
D03*
X053417Y060039D02*
D03*
X078500Y054629D02*
D03*
X078500Y053251D02*
D03*
X054389Y058661D02*
D03*
X054389Y060039D02*
D03*
X077220Y054629D02*
D03*
X077220Y053251D02*
D03*
X055360Y058661D02*
D03*
X055360Y060039D02*
D03*
X054220Y086479D02*
D03*
X054220Y085101D02*
D03*
X058370Y086579D02*
D03*
X058370Y085201D02*
D03*
X072370Y075290D02*
D03*
X044370Y061290D02*
D03*
D12*
X041983Y088362D02*
D03*
X042672Y088362D02*
D03*
X043241Y088362D02*
D03*
D13*
X055392Y079299D02*
D03*
X052095Y079299D02*
D03*
D14*
X061638Y062358D02*
D03*
X063970Y064690D02*
D03*
D15*
X060389Y079858D02*
D03*
D16*
X057771Y080764D02*
D03*
Y078953D02*
D03*
D17*
X073950Y049760D02*
D03*
Y050260D02*
D03*
Y050760D02*
D03*
Y051260D02*
D03*
X075997D02*
D03*
Y050760D02*
D03*
Y050260D02*
D03*
Y049760D02*
D03*
D18*
X063470Y055523D02*
D03*
X062970Y055523D02*
D03*
X062470Y055523D02*
D03*
X061970D02*
D03*
X061470Y055523D02*
D03*
X060970Y055523D02*
D03*
X060470Y055523D02*
D03*
X059970D02*
D03*
X063470Y053476D02*
D03*
X062970Y053476D02*
D03*
X062470Y053476D02*
D03*
X061970Y053476D02*
D03*
X061470D02*
D03*
X060970Y053476D02*
D03*
X060470Y053476D02*
D03*
X059970Y053476D02*
D03*
X053710Y057000D02*
D03*
X053210Y057000D02*
D03*
X052710D02*
D03*
X052210Y057000D02*
D03*
X051710D02*
D03*
X051210Y057000D02*
D03*
X050710D02*
D03*
X050210Y057000D02*
D03*
X053710Y054953D02*
D03*
X053210D02*
D03*
X052710Y054953D02*
D03*
X052210D02*
D03*
X051710Y054953D02*
D03*
X051210Y054953D02*
D03*
X050710D02*
D03*
X050210D02*
D03*
D19*
X053502Y082350D02*
D03*
X053699Y082350D02*
D03*
X053306Y082350D02*
D03*
X053896Y082350D02*
D03*
X054093Y082350D02*
D03*
X053306Y083925D02*
D03*
X053502Y083925D02*
D03*
X054093Y083925D02*
D03*
X053699Y083925D02*
D03*
X053896Y083925D02*
D03*
D20*
X052912Y083531D02*
D03*
X052912Y083334D02*
D03*
X052912Y082744D02*
D03*
X052912Y083137D02*
D03*
X052912Y082940D02*
D03*
X054487Y083531D02*
D03*
X054487Y083334D02*
D03*
X054487Y082744D02*
D03*
Y083137D02*
D03*
Y082940D02*
D03*
D21*
X068834Y057175D02*
D03*
X068834Y060305D02*
D03*
X070606D02*
D03*
Y057175D02*
D03*
D22*
X047309Y087690D02*
D03*
X045931D02*
D03*
X039681Y067890D02*
D03*
X041059D02*
D03*
X064520Y079890D02*
D03*
D23*
X077059Y067890D02*
D03*
X075681Y067890D02*
D03*
D24*
X041104Y060738D02*
D03*
X042377Y061265D02*
D03*
D25*
X072400Y046712D02*
D03*
Y047992D02*
D03*
X070500Y046712D02*
D03*
Y047992D02*
D03*
D26*
X055684Y068349D02*
D03*
X055906Y068572D02*
D03*
X056129Y068795D02*
D03*
X056352Y069017D02*
D03*
X056574Y069240D02*
D03*
X056797Y069463D02*
D03*
X057020Y069686D02*
D03*
X057243Y069908D02*
D03*
X057465Y070131D02*
D03*
X057688Y070354D02*
D03*
X057911Y070576D02*
D03*
X061056Y067431D02*
D03*
X060834Y067208D02*
D03*
X060611Y066985D02*
D03*
X060388Y066763D02*
D03*
X060166Y066540D02*
D03*
X059943Y066317D02*
D03*
X059720Y066094D02*
D03*
X059497Y065872D02*
D03*
X059275Y065649D02*
D03*
X059052Y065426D02*
D03*
X058829Y065204D02*
D03*
D27*
X058829Y070576D02*
D03*
X059052Y070354D02*
D03*
X059275Y070131D02*
D03*
X059497Y069908D02*
D03*
X059720Y069686D02*
D03*
X059943Y069463D02*
D03*
X060166Y069240D02*
D03*
X060388Y069017D02*
D03*
X060611Y068795D02*
D03*
X060834Y068572D02*
D03*
X061056Y068349D02*
D03*
X057911Y065204D02*
D03*
X057688Y065426D02*
D03*
X057465Y065649D02*
D03*
X057243Y065872D02*
D03*
X057020Y066094D02*
D03*
X056797Y066317D02*
D03*
X056574Y066540D02*
D03*
X056352Y066763D02*
D03*
X056129Y066985D02*
D03*
X055906Y067208D02*
D03*
X055684Y067431D02*
D03*
D28*
X056206Y082747D02*
D03*
X056206Y082353D02*
D03*
X055506Y083197D02*
D03*
Y082803D02*
D03*
X055520Y083843D02*
D03*
Y084237D02*
D03*
Y085187D02*
D03*
Y084793D02*
D03*
X055005Y081953D02*
D03*
X055005Y082347D02*
D03*
X055506Y081953D02*
D03*
X055506Y082347D02*
D03*
D29*
X064694Y063216D02*
D03*
X065446Y062464D02*
D03*
X063094Y061566D02*
D03*
X063846Y060814D02*
D03*
D30*
X055982Y081101D02*
D03*
X054919Y081101D02*
D03*
X054070Y081108D02*
D03*
X053007D02*
D03*
X047151Y086740D02*
D03*
X046089Y086740D02*
D03*
X053902Y066790D02*
D03*
X052839D02*
D03*
X057207Y081958D02*
D03*
X058270Y081958D02*
D03*
X053451Y085190D02*
D03*
X052389Y085190D02*
D03*
X073868Y047660D02*
D03*
X074932D02*
D03*
X073868Y046560D02*
D03*
X074932Y046560D02*
D03*
D31*
X051218Y085156D02*
D03*
X051745Y083883D02*
D03*
D32*
X078116Y047471D02*
D03*
X078297Y047652D02*
D03*
X078839Y048194D02*
D03*
X078658Y048013D02*
D03*
X078475Y047835D02*
D03*
D33*
X077647Y046881D02*
D03*
X079429Y048663D02*
D03*
D34*
X078886Y046756D02*
D03*
X079554Y047424D02*
D03*
D35*
X071585Y054675D02*
D03*
X070611Y055649D02*
D03*
X045155Y081105D02*
D03*
X046129Y080131D02*
D03*
D36*
X075636Y075042D02*
D03*
X074363Y074515D02*
D03*
D37*
X071585Y081105D02*
D03*
X070611Y080131D02*
D03*
X045155Y054675D02*
D03*
X046129Y055649D02*
D03*
D38*
X065522Y085156D02*
D03*
X064995Y083883D02*
D03*
D39*
X041104Y075042D02*
D03*
X042377Y074515D02*
D03*
D40*
X051218Y050624D02*
D03*
X051745Y051897D02*
D03*
D41*
X058370Y049201D02*
D03*
X058370Y050579D02*
D03*
D42*
X065522Y050624D02*
D03*
X064995Y051897D02*
D03*
D43*
X075636Y060738D02*
D03*
X074363Y061265D02*
D03*
D49*
X039474Y091520D02*
X077270D01*
X034750Y049000D02*
Y086795D01*
X039474Y044276D02*
X077270D01*
X081994Y049000D02*
Y086795D01*
X034750Y049000D02*
X039474Y044276D01*
X034750Y086795D02*
X039474Y091520D01*
X077270D02*
X081994Y086795D01*
X077270Y044276D02*
X081994Y049000D01*
D50*
X078170Y051140D02*
D03*
X080170D02*
D03*
D51*
X055020Y085790D02*
D03*
X055020Y086790D02*
D03*
X056020Y086790D02*
D03*
X056020Y085790D02*
D03*
X055520Y086290D02*
D03*
D52*
X072370Y060290D02*
D03*
X072370Y061290D02*
D03*
Y062290D02*
D03*
Y063290D02*
D03*
X072370Y064290D02*
D03*
Y065290D02*
D03*
X072370Y066290D02*
D03*
Y067290D02*
D03*
Y068290D02*
D03*
Y069290D02*
D03*
Y070290D02*
D03*
Y071290D02*
D03*
X072370Y072290D02*
D03*
X072370Y073290D02*
D03*
Y074290D02*
D03*
X044370Y069290D02*
D03*
X044370Y070290D02*
D03*
X044370Y071290D02*
D03*
X044370Y072290D02*
D03*
X044370Y073290D02*
D03*
Y074290D02*
D03*
Y075290D02*
D03*
Y068290D02*
D03*
Y064290D02*
D03*
Y063290D02*
D03*
Y062290D02*
D03*
X044370Y065290D02*
D03*
Y066290D02*
D03*
X044370Y067290D02*
D03*
X066520Y080890D02*
D03*
X065520Y080890D02*
D03*
X064520D02*
D03*
X066520Y079890D02*
D03*
X065520Y079890D02*
D03*
D53*
X080139Y048009D02*
D03*
X078301Y046171D02*
D03*
M02*
