%FSAX24Y24*%
%MOIN*%
G70*
G01*
G75*
G04 Layer_Color=8388736*
%ADD10P,0.0835X4X202.5*%
%ADD11P,0.0835X4X157.5*%
%ADD12R,0.0591X0.0591*%
%ADD13P,0.0835X4X112.5*%
%ADD14P,0.0835X4X90.0*%
%ADD15P,0.0835X4X382.5*%
%ADD16P,0.0835X4X360.0*%
%ADD17P,0.0835X4X292.5*%
%ADD18P,0.0835X4X247.5*%
%ADD19P,0.1058X4X90.0*%
G04:AMPARAMS|DCode=20|XSize=63mil|YSize=55.1mil|CornerRadius=0mil|HoleSize=0mil|Usage=FLASHONLY|Rotation=45.000|XOffset=0mil|YOffset=0mil|HoleType=Round|Shape=Rectangle|*
%AMROTATEDRECTD20*
4,1,4,-0.0028,-0.0418,-0.0418,-0.0028,0.0028,0.0418,0.0418,0.0028,-0.0028,-0.0418,0.0*
%
%ADD20ROTATEDRECTD20*%

G04:AMPARAMS|DCode=21|XSize=15.7mil|YSize=53.2mil|CornerRadius=0mil|HoleSize=0mil|Usage=FLASHONLY|Rotation=45.000|XOffset=0mil|YOffset=0mil|HoleType=Round|Shape=Rectangle|*
%AMROTATEDRECTD21*
4,1,4,0.0132,-0.0244,-0.0244,0.0132,-0.0132,0.0244,0.0244,-0.0132,0.0132,-0.0244,0.0*
%
%ADD21ROTATEDRECTD21*%

%ADD22P,0.0835X4X337.5*%
%ADD23R,0.0591X0.0591*%
%ADD24R,0.0433X0.0669*%
%ADD25R,0.0197X0.0236*%
G04:AMPARAMS|DCode=26|XSize=66.9mil|YSize=43.3mil|CornerRadius=0mil|HoleSize=0mil|Usage=FLASHONLY|Rotation=45.000|XOffset=0mil|YOffset=0mil|HoleType=Round|Shape=Rectangle|*
%AMROTATEDRECTD26*
4,1,4,-0.0084,-0.0390,-0.0390,-0.0084,0.0084,0.0390,0.0390,0.0084,-0.0084,-0.0390,0.0*
%
%ADD26ROTATEDRECTD26*%

G04:AMPARAMS|DCode=27|XSize=21.7mil|YSize=68.9mil|CornerRadius=0mil|HoleSize=0mil|Usage=FLASHONLY|Rotation=135.000|XOffset=0mil|YOffset=0mil|HoleType=Round|Shape=Round|*
%AMOVALD27*
21,1,0.0472,0.0217,0.0000,0.0000,225.0*
1,1,0.0217,0.0167,0.0167*
1,1,0.0217,-0.0167,-0.0167*
%
%ADD27OVALD27*%

G04:AMPARAMS|DCode=28|XSize=21.7mil|YSize=68.9mil|CornerRadius=0mil|HoleSize=0mil|Usage=FLASHONLY|Rotation=45.000|XOffset=0mil|YOffset=0mil|HoleType=Round|Shape=Round|*
%AMOVALD28*
21,1,0.0472,0.0217,0.0000,0.0000,135.0*
1,1,0.0217,0.0167,-0.0167*
1,1,0.0217,-0.0167,0.0167*
%
%ADD28OVALD28*%

%ADD29R,0.0512X0.0984*%
%ADD30P,0.0835X4X67.5*%
%ADD31R,0.0591X0.0591*%
%ADD32R,0.0512X0.0610*%
%ADD33R,0.0098X0.0276*%
%ADD34R,0.0276X0.0098*%
%ADD35R,0.0236X0.0866*%
%ADD36R,0.0866X0.0236*%
%ADD37R,0.1181X0.0630*%
%ADD38R,0.2638X0.2638*%
G04:AMPARAMS|DCode=39|XSize=216.5mil|YSize=78.7mil|CornerRadius=0mil|HoleSize=0mil|Usage=FLASHONLY|Rotation=225.000|XOffset=0mil|YOffset=0mil|HoleType=Round|Shape=Rectangle|*
%AMROTATEDRECTD39*
4,1,4,0.0487,0.1044,0.1044,0.0487,-0.0487,-0.1044,-0.1044,-0.0487,0.0487,0.1044,0.0*
%
%ADD39ROTATEDRECTD39*%

%ADD40R,0.2165X0.0787*%
%ADD41R,0.0079X0.0197*%
G04:AMPARAMS|DCode=42|XSize=40mil|YSize=40mil|CornerRadius=20mil|HoleSize=0mil|Usage=FLASHONLY|Rotation=0.000|XOffset=0mil|YOffset=0mil|HoleType=Round|Shape=RoundedRectangle|*
%AMROUNDEDRECTD42*
21,1,0.0400,0.0000,0,0,0.0*
21,1,0.0000,0.0400,0,0,0.0*
1,1,0.0400,0.0000,0.0000*
1,1,0.0400,0.0000,0.0000*
1,1,0.0400,0.0000,0.0000*
1,1,0.0400,0.0000,0.0000*
%
%ADD42ROUNDEDRECTD42*%
%ADD43C,0.0512*%
%ADD44C,0.0039*%
%ADD45C,0.0100*%
%ADD46C,0.0140*%
%ADD47C,0.0200*%
%ADD48C,0.0005*%
G04:AMPARAMS|DCode=49|XSize=35.4mil|YSize=63mil|CornerRadius=0mil|HoleSize=0mil|Usage=FLASHONLY|Rotation=45.000|XOffset=0mil|YOffset=0mil|HoleType=Round|Shape=Round|*
%AMOVALD49*
21,1,0.0276,0.0354,0.0000,0.0000,135.0*
1,1,0.0354,0.0097,-0.0097*
1,1,0.0354,-0.0097,0.0097*
%
%ADD49OVALD49*%

%ADD50R,0.0591X0.0591*%
%ADD51C,0.0591*%
%ADD52C,0.0551*%
%ADD53C,0.0800*%
%ADD54C,0.0200*%
%ADD55C,0.2894*%
%ADD56C,0.0000*%
%ADD57C,0.0098*%
%ADD58C,0.0236*%
%ADD59C,0.0079*%
%ADD60C,0.0040*%
%ADD61C,0.0080*%
%ADD62P,0.0948X4X202.5*%
%ADD63P,0.0948X4X157.5*%
%ADD64R,0.0671X0.0671*%
%ADD65P,0.0948X4X112.5*%
%ADD66P,0.0948X4X90.0*%
%ADD67P,0.0948X4X382.5*%
%ADD68P,0.0948X4X360.0*%
%ADD69P,0.0948X4X292.5*%
%ADD70P,0.0948X4X247.5*%
%ADD71P,0.1171X4X90.0*%
G04:AMPARAMS|DCode=72|XSize=71mil|YSize=63.1mil|CornerRadius=0mil|HoleSize=0mil|Usage=FLASHONLY|Rotation=45.000|XOffset=0mil|YOffset=0mil|HoleType=Round|Shape=Rectangle|*
%AMROTATEDRECTD72*
4,1,4,-0.0028,-0.0474,-0.0474,-0.0028,0.0028,0.0474,0.0474,0.0028,-0.0028,-0.0474,0.0*
%
%ADD72ROTATEDRECTD72*%

G04:AMPARAMS|DCode=73|XSize=23.7mil|YSize=61.2mil|CornerRadius=0mil|HoleSize=0mil|Usage=FLASHONLY|Rotation=45.000|XOffset=0mil|YOffset=0mil|HoleType=Round|Shape=Rectangle|*
%AMROTATEDRECTD73*
4,1,4,0.0132,-0.0300,-0.0300,0.0132,-0.0132,0.0300,0.0300,-0.0132,0.0132,-0.0300,0.0*
%
%ADD73ROTATEDRECTD73*%

%ADD74P,0.0948X4X337.5*%
%ADD75R,0.0671X0.0671*%
%ADD76R,0.0513X0.0749*%
%ADD77R,0.0277X0.0316*%
G04:AMPARAMS|DCode=78|XSize=74.9mil|YSize=51.3mil|CornerRadius=0mil|HoleSize=0mil|Usage=FLASHONLY|Rotation=45.000|XOffset=0mil|YOffset=0mil|HoleType=Round|Shape=Rectangle|*
%AMROTATEDRECTD78*
4,1,4,-0.0084,-0.0446,-0.0446,-0.0084,0.0084,0.0446,0.0446,0.0084,-0.0084,-0.0446,0.0*
%
%ADD78ROTATEDRECTD78*%

G04:AMPARAMS|DCode=79|XSize=29.7mil|YSize=76.9mil|CornerRadius=0mil|HoleSize=0mil|Usage=FLASHONLY|Rotation=135.000|XOffset=0mil|YOffset=0mil|HoleType=Round|Shape=Round|*
%AMOVALD79*
21,1,0.0472,0.0297,0.0000,0.0000,225.0*
1,1,0.0297,0.0167,0.0167*
1,1,0.0297,-0.0167,-0.0167*
%
%ADD79OVALD79*%

G04:AMPARAMS|DCode=80|XSize=29.7mil|YSize=76.9mil|CornerRadius=0mil|HoleSize=0mil|Usage=FLASHONLY|Rotation=45.000|XOffset=0mil|YOffset=0mil|HoleType=Round|Shape=Round|*
%AMOVALD80*
21,1,0.0472,0.0297,0.0000,0.0000,135.0*
1,1,0.0297,0.0167,-0.0167*
1,1,0.0297,-0.0167,0.0167*
%
%ADD80OVALD80*%

%ADD81R,0.0592X0.1064*%
%ADD82P,0.0948X4X67.5*%
%ADD83R,0.0671X0.0671*%
%ADD84R,0.0592X0.0690*%
%ADD85R,0.0178X0.0356*%
%ADD86R,0.0356X0.0178*%
%ADD87R,0.0316X0.0946*%
%ADD88R,0.0946X0.0316*%
%ADD89R,0.1261X0.0710*%
%ADD90R,0.2718X0.2718*%
G04:AMPARAMS|DCode=91|XSize=224.5mil|YSize=86.7mil|CornerRadius=0mil|HoleSize=0mil|Usage=FLASHONLY|Rotation=225.000|XOffset=0mil|YOffset=0mil|HoleType=Round|Shape=Rectangle|*
%AMROTATEDRECTD91*
4,1,4,0.0487,0.1101,0.1101,0.0487,-0.0487,-0.1101,-0.1101,-0.0487,0.0487,0.1101,0.0*
%
%ADD91ROTATEDRECTD91*%

%ADD92R,0.2245X0.0867*%
%ADD93R,0.0159X0.0277*%
G04:AMPARAMS|DCode=94|XSize=48mil|YSize=48mil|CornerRadius=24mil|HoleSize=0mil|Usage=FLASHONLY|Rotation=0.000|XOffset=0mil|YOffset=0mil|HoleType=Round|Shape=RoundedRectangle|*
%AMROUNDEDRECTD94*
21,1,0.0480,0.0000,0,0,0.0*
21,1,0.0000,0.0480,0,0,0.0*
1,1,0.0480,0.0000,0.0000*
1,1,0.0480,0.0000,0.0000*
1,1,0.0480,0.0000,0.0000*
1,1,0.0480,0.0000,0.0000*
%
%ADD94ROUNDEDRECTD94*%
G04:AMPARAMS|DCode=95|XSize=43.4mil|YSize=71mil|CornerRadius=0mil|HoleSize=0mil|Usage=FLASHONLY|Rotation=45.000|XOffset=0mil|YOffset=0mil|HoleType=Round|Shape=Round|*
%AMOVALD95*
21,1,0.0276,0.0434,0.0000,0.0000,135.0*
1,1,0.0434,0.0097,-0.0097*
1,1,0.0434,-0.0097,0.0097*
%
%ADD95OVALD95*%

%ADD96R,0.0671X0.0671*%
%ADD97C,0.0671*%
%ADD98C,0.0631*%
%ADD99C,0.0880*%
%ADD100C,0.0280*%
%ADD101C,0.2974*%
G36*
X080954Y049980D02*
X081052Y049939D01*
X081135Y049875D01*
X081199Y049792D01*
X081240Y049694D01*
X081253Y049590D01*
X081253Y049590D01*
X081253Y049590D01*
X081240Y049489D01*
X081200Y049393D01*
X081136Y049310D01*
X081053Y049246D01*
X080957Y049207D01*
X080853Y049193D01*
X080850Y049193D01*
X080850Y049193D01*
X080850Y049193D01*
X080747Y049206D01*
X080651Y049246D01*
X080569Y049309D01*
X080506Y049391D01*
X080466Y049487D01*
X080453Y049590D01*
X080453Y049590D01*
X080453Y049590D01*
X080453Y049593D01*
X080466Y049697D01*
X080506Y049793D01*
X080570Y049876D01*
X080653Y049940D01*
X080750Y049980D01*
X080850Y049993D01*
X080850Y049993D01*
X080850Y049993D01*
X080954Y049980D01*
D02*
G37*
G36*
X035904D02*
X036002Y049939D01*
X036085Y049875D01*
X036149Y049792D01*
X036190Y049694D01*
X036203Y049590D01*
X036203Y049590D01*
X036203Y049590D01*
X036190Y049489D01*
X036150Y049393D01*
X036086Y049310D01*
X036003Y049246D01*
X035907Y049207D01*
X035803Y049193D01*
X035800Y049193D01*
X035800Y049193D01*
X035800Y049193D01*
X035697Y049206D01*
X035601Y049246D01*
X035519Y049309D01*
X035456Y049391D01*
X035416Y049487D01*
X035403Y049590D01*
X035403Y049590D01*
X035403Y049590D01*
X035403Y049593D01*
X035417Y049697D01*
X035456Y049793D01*
X035520Y049876D01*
X035603Y049940D01*
X035700Y049980D01*
X035800Y049993D01*
X035800Y049993D01*
X035800Y049993D01*
X035904Y049980D01*
D02*
G37*
G36*
Y086930D02*
X036002Y086889D01*
X036085Y086825D01*
X036149Y086742D01*
X036190Y086644D01*
X036203Y086540D01*
X036203Y086540D01*
X036203Y086540D01*
X036190Y086440D01*
X036150Y086343D01*
X036086Y086260D01*
X036003Y086196D01*
X035907Y086157D01*
X035803Y086143D01*
X035800Y086143D01*
X035800Y086143D01*
X035800Y086143D01*
X035697Y086156D01*
X035601Y086196D01*
X035519Y086259D01*
X035456Y086341D01*
X035416Y086437D01*
X035403Y086540D01*
X035403Y086540D01*
X035403Y086540D01*
X035403Y086543D01*
X035417Y086647D01*
X035456Y086743D01*
X035520Y086826D01*
X035603Y086890D01*
X035700Y086930D01*
X035800Y086943D01*
X035800Y086943D01*
X035800Y086943D01*
X035904Y086930D01*
D02*
G37*
G36*
X053504Y068580D02*
X053602Y068539D01*
X053685Y068475D01*
X053749Y068392D01*
X053790Y068294D01*
X053803Y068190D01*
X053803Y068190D01*
X053803Y068190D01*
X053790Y068089D01*
X053750Y067993D01*
X053686Y067910D01*
X053603Y067846D01*
X053507Y067807D01*
X053403Y067793D01*
X053400Y067793D01*
X053400Y067793D01*
X053400Y067793D01*
X053297Y067806D01*
X053201Y067846D01*
X053119Y067909D01*
X053056Y067991D01*
X053016Y068087D01*
X053003Y068190D01*
X053003Y068190D01*
X053003Y068190D01*
X053003Y068193D01*
X053017Y068297D01*
X053056Y068393D01*
X053120Y068476D01*
X053203Y068540D01*
X053299Y068580D01*
X053400Y068593D01*
X053400Y068593D01*
X053400Y068593D01*
X053504Y068580D01*
D02*
G37*
D48*
X077270Y044276D02*
X081994Y049000D01*
X077270Y091520D02*
X081994Y086795D01*
X034750D02*
X039474Y091520D01*
X034750Y049000D02*
X039474Y044276D01*
X081994Y049000D02*
Y086795D01*
X039474Y044276D02*
X077270D01*
X034750Y049000D02*
Y086795D01*
X039474Y091520D02*
X077270D01*
D62*
X074363Y061265D02*
D03*
X075636Y060738D02*
D03*
D63*
X064995Y051897D02*
D03*
X065522Y050624D02*
D03*
D64*
X058370Y050579D02*
D03*
X058370Y049201D02*
D03*
X058370Y085201D02*
D03*
X058370Y086579D02*
D03*
X077220Y053251D02*
D03*
X077220Y054629D02*
D03*
X078500Y053251D02*
D03*
X078500Y054629D02*
D03*
X079780Y053251D02*
D03*
X079780Y054629D02*
D03*
X072370Y075290D02*
D03*
D65*
X051745Y051897D02*
D03*
X051218Y050624D02*
D03*
D66*
X046129Y055649D02*
D03*
X045155Y054675D02*
D03*
X070611Y080131D02*
D03*
X071585Y081105D02*
D03*
D67*
X042377Y074515D02*
D03*
X041104Y075042D02*
D03*
D68*
X046129Y080131D02*
D03*
X045155Y081105D02*
D03*
X070611Y055649D02*
D03*
X071585Y054675D02*
D03*
D69*
X064995Y083883D02*
D03*
X065522Y085156D02*
D03*
D70*
X074363Y074515D02*
D03*
X075636Y075042D02*
D03*
D71*
X079554Y047424D02*
D03*
X078886Y046756D02*
D03*
D72*
X079429Y048663D02*
D03*
X077647Y046881D02*
D03*
D73*
X078475Y047835D02*
D03*
X078658Y048013D02*
D03*
X078839Y048194D02*
D03*
X078297Y047652D02*
D03*
X078116Y047471D02*
D03*
D74*
X051745Y083883D02*
D03*
X051218Y085156D02*
D03*
D75*
X054220Y085101D02*
D03*
X054220Y086479D02*
D03*
X055360Y060039D02*
D03*
X055360Y058661D02*
D03*
X054389Y060039D02*
D03*
X054389Y058661D02*
D03*
X053417Y060039D02*
D03*
X053417Y058661D02*
D03*
X052446Y060039D02*
D03*
X052446Y058661D02*
D03*
X051474Y060039D02*
D03*
X051474Y058661D02*
D03*
X050503Y060039D02*
D03*
X050503Y058661D02*
D03*
X049531Y060039D02*
D03*
X049531Y058661D02*
D03*
X048560Y060039D02*
D03*
X048560Y058661D02*
D03*
X064070Y058779D02*
D03*
X064070Y057401D02*
D03*
X063120Y058779D02*
D03*
X063120Y057401D02*
D03*
X062170Y058779D02*
D03*
Y057401D02*
D03*
X061220Y058779D02*
D03*
X061220Y057401D02*
D03*
X060270Y058779D02*
D03*
Y057401D02*
D03*
X059320Y058779D02*
D03*
X059320Y057401D02*
D03*
X058370Y058779D02*
D03*
X058370Y057401D02*
D03*
X065020Y058779D02*
D03*
X065020Y057401D02*
D03*
X044370Y061290D02*
D03*
D76*
X074932Y046560D02*
D03*
X073868Y046560D02*
D03*
X074932Y047660D02*
D03*
X073868D02*
D03*
X052389Y085190D02*
D03*
X053451Y085190D02*
D03*
X058270Y081958D02*
D03*
X057207Y081958D02*
D03*
X052839Y066790D02*
D03*
X053902D02*
D03*
X046089Y086740D02*
D03*
X047151Y086740D02*
D03*
X053007Y081108D02*
D03*
X054070D02*
D03*
X054919Y081101D02*
D03*
X055982Y081101D02*
D03*
D77*
X055506Y082347D02*
D03*
X055506Y081953D02*
D03*
X055005Y082347D02*
D03*
X055005Y081953D02*
D03*
X055520Y084793D02*
D03*
Y085187D02*
D03*
Y084237D02*
D03*
Y083843D02*
D03*
X055506Y082803D02*
D03*
Y083197D02*
D03*
X056206Y082353D02*
D03*
X056206Y082747D02*
D03*
D78*
X063846Y060814D02*
D03*
X063094Y061566D02*
D03*
X065446Y062464D02*
D03*
X064694Y063216D02*
D03*
D79*
X055684Y067431D02*
D03*
X055906Y067208D02*
D03*
X056129Y066985D02*
D03*
X056352Y066763D02*
D03*
X056574Y066540D02*
D03*
X056797Y066317D02*
D03*
X057020Y066094D02*
D03*
X057243Y065872D02*
D03*
X057465Y065649D02*
D03*
X057688Y065426D02*
D03*
X057911Y065204D02*
D03*
X061056Y068349D02*
D03*
X060834Y068572D02*
D03*
X060611Y068795D02*
D03*
X060388Y069017D02*
D03*
X060166Y069240D02*
D03*
X059943Y069463D02*
D03*
X059720Y069686D02*
D03*
X059497Y069908D02*
D03*
X059275Y070131D02*
D03*
X059052Y070354D02*
D03*
X058829Y070576D02*
D03*
D80*
X058829Y065204D02*
D03*
X059052Y065426D02*
D03*
X059275Y065649D02*
D03*
X059497Y065872D02*
D03*
X059720Y066094D02*
D03*
X059943Y066317D02*
D03*
X060166Y066540D02*
D03*
X060388Y066763D02*
D03*
X060611Y066985D02*
D03*
X060834Y067208D02*
D03*
X061056Y067431D02*
D03*
X057911Y070576D02*
D03*
X057688Y070354D02*
D03*
X057465Y070131D02*
D03*
X057243Y069908D02*
D03*
X057020Y069686D02*
D03*
X056797Y069463D02*
D03*
X056574Y069240D02*
D03*
X056352Y069017D02*
D03*
X056129Y068795D02*
D03*
X055906Y068572D02*
D03*
X055684Y068349D02*
D03*
D81*
X070500Y047992D02*
D03*
Y046712D02*
D03*
X072400Y047992D02*
D03*
Y046712D02*
D03*
D82*
X042377Y061265D02*
D03*
X041104Y060738D02*
D03*
D83*
X041059Y067890D02*
D03*
X039681D02*
D03*
X075681D02*
D03*
X077059Y067890D02*
D03*
X045931Y087690D02*
D03*
X047309D02*
D03*
D84*
X070606Y057175D02*
D03*
Y060305D02*
D03*
X068834D02*
D03*
X068834Y057175D02*
D03*
D85*
X053896Y083925D02*
D03*
X053699Y083925D02*
D03*
X054093Y083925D02*
D03*
X053502Y083925D02*
D03*
X053306Y083925D02*
D03*
X054093Y082350D02*
D03*
X053896Y082350D02*
D03*
X053306Y082350D02*
D03*
X053699Y082350D02*
D03*
X053502Y082350D02*
D03*
D86*
X054487Y082940D02*
D03*
Y083137D02*
D03*
Y082744D02*
D03*
X054487Y083334D02*
D03*
X054487Y083531D02*
D03*
X052912Y082940D02*
D03*
X052912Y083137D02*
D03*
X052912Y082744D02*
D03*
X052912Y083334D02*
D03*
X052912Y083531D02*
D03*
D87*
X050210Y054953D02*
D03*
X050710D02*
D03*
X051210D02*
D03*
X051710Y054953D02*
D03*
X052210Y054953D02*
D03*
X052710D02*
D03*
X053210Y054953D02*
D03*
X053710D02*
D03*
X050210Y057000D02*
D03*
X050710Y057000D02*
D03*
X051210D02*
D03*
X051710Y057000D02*
D03*
X052210D02*
D03*
X052710Y057000D02*
D03*
X053210D02*
D03*
X053710Y057000D02*
D03*
X059970Y053476D02*
D03*
X060470Y053476D02*
D03*
X060970Y053476D02*
D03*
X061470Y053476D02*
D03*
X061970D02*
D03*
X062470Y053476D02*
D03*
X062970Y053476D02*
D03*
X063470Y053476D02*
D03*
X059970Y055523D02*
D03*
X060470D02*
D03*
X060970Y055523D02*
D03*
X061470Y055523D02*
D03*
X061970Y055523D02*
D03*
X062470D02*
D03*
X062970Y055523D02*
D03*
X063470Y055523D02*
D03*
D88*
X075997Y049760D02*
D03*
Y050260D02*
D03*
Y050760D02*
D03*
Y051260D02*
D03*
X073950D02*
D03*
Y050760D02*
D03*
Y050260D02*
D03*
Y049760D02*
D03*
D89*
X057771Y078953D02*
D03*
Y080764D02*
D03*
D90*
X060389Y079858D02*
D03*
D91*
X063970Y064690D02*
D03*
X061638Y062358D02*
D03*
D92*
X052095Y079299D02*
D03*
X055392Y079299D02*
D03*
D93*
X043241Y088362D02*
D03*
X042672Y088362D02*
D03*
X041983Y088362D02*
D03*
D94*
X035800Y086540D02*
D03*
Y049590D02*
D03*
X080850D02*
D03*
X053400Y068190D02*
D03*
D95*
X078301Y046171D02*
D03*
X080139Y048009D02*
D03*
D96*
X064520Y079890D02*
D03*
D97*
X065520D02*
D03*
X066520Y079890D02*
D03*
X064520Y080890D02*
D03*
X065520D02*
D03*
X066520Y080890D02*
D03*
X044370Y067290D02*
D03*
X044370Y066290D02*
D03*
Y065290D02*
D03*
X044370Y062290D02*
D03*
Y063290D02*
D03*
Y064290D02*
D03*
Y068290D02*
D03*
Y075290D02*
D03*
Y074290D02*
D03*
Y073290D02*
D03*
X044370Y072290D02*
D03*
X044370Y071290D02*
D03*
X044370Y070290D02*
D03*
X044370Y069290D02*
D03*
X072370Y074290D02*
D03*
Y073290D02*
D03*
X072370Y072290D02*
D03*
X072370Y071290D02*
D03*
Y070290D02*
D03*
Y069290D02*
D03*
Y068290D02*
D03*
Y067290D02*
D03*
Y066290D02*
D03*
X072370Y065290D02*
D03*
Y064290D02*
D03*
X072370Y063290D02*
D03*
Y062290D02*
D03*
Y061290D02*
D03*
X072370Y060290D02*
D03*
D98*
X055520Y086290D02*
D03*
X056020Y085790D02*
D03*
X056020Y086790D02*
D03*
X055020Y086790D02*
D03*
X055020Y085790D02*
D03*
D99*
X080170Y051140D02*
D03*
X078170D02*
D03*
D100*
X067220Y061840D02*
D03*
X066750Y073260D02*
D03*
X068620Y063240D02*
D03*
X066370Y068990D02*
D03*
X062720Y065290D02*
D03*
X065270Y071840D02*
D03*
X062770Y074940D02*
D03*
X069220Y064290D02*
D03*
X065570Y072140D02*
D03*
X063045Y075265D02*
D03*
X069220Y065290D02*
D03*
X065870Y072440D02*
D03*
X063345Y075565D02*
D03*
X069220Y066290D02*
D03*
X066170Y072740D02*
D03*
X066470Y072990D02*
D03*
X066720Y068790D02*
D03*
X052470Y083640D02*
D03*
X050870Y082040D02*
D03*
X051220Y081960D02*
D03*
X051570Y081900D02*
D03*
X051920Y081839D02*
D03*
X052270Y081740D02*
D03*
X061170Y071840D02*
D03*
X062770Y069540D02*
D03*
X065320Y066990D02*
D03*
X066920Y061290D02*
D03*
X072520Y055940D02*
D03*
X057120Y061440D02*
D03*
X079790Y055660D02*
D03*
X078500Y055370D02*
D03*
X062320Y060890D02*
D03*
X068320Y060290D02*
D03*
X072820Y050240D02*
D03*
X073120Y046292D02*
D03*
X065020Y060690D02*
D03*
Y059290D02*
D03*
X064470Y060490D02*
D03*
X064070Y059300D02*
D03*
X063120Y060190D02*
D03*
Y059290D02*
D03*
X062170Y059890D02*
D03*
Y059290D02*
D03*
X058870Y051690D02*
D03*
X057460Y059138D02*
D03*
X059570Y050990D02*
D03*
X059170Y051350D02*
D03*
Y053040D02*
D03*
X059570Y053030D02*
D03*
X048570Y061840D02*
D03*
Y060740D02*
D03*
X049520Y061590D02*
D03*
Y060740D02*
D03*
X050170Y061340D02*
D03*
Y060740D02*
D03*
X055170Y053040D02*
D03*
X056020Y059890D02*
D03*
X057420Y052440D02*
D03*
X056120Y056590D02*
D03*
Y054590D02*
D03*
X056420Y054790D02*
D03*
X055470Y055240D02*
D03*
X055970D02*
D03*
X060470Y054390D02*
D03*
X058939Y081608D02*
D03*
X053139Y081808D02*
D03*
X053589Y084358D02*
D03*
X054889Y083858D02*
D03*
X066520Y069590D02*
D03*
X065670Y069740D02*
D03*
X065170Y070240D02*
D03*
X064620Y070690D02*
D03*
X059020Y063690D02*
D03*
X058790Y064010D02*
D03*
X055420Y062840D02*
D03*
X055120Y063240D02*
D03*
X060570Y072040D02*
D03*
X060070Y072190D02*
D03*
X059620Y072190D02*
D03*
X049220Y072590D02*
D03*
X054570Y071490D02*
D03*
X054970Y071740D02*
D03*
X055370Y071940D02*
D03*
X055570Y070640D02*
D03*
X055270Y070390D02*
D03*
X054970Y070140D02*
D03*
X054670Y069940D02*
D03*
X054370Y069690D02*
D03*
X054700Y069320D02*
D03*
X054360Y069080D02*
D03*
X054620Y064390D02*
D03*
X055870Y065590D02*
D03*
X054070Y065540D02*
D03*
X058220Y071186D02*
D03*
X060370Y070335D02*
D03*
X060420Y069940D02*
D03*
X060279Y070690D02*
D03*
X061820Y067690D02*
D03*
Y068790D02*
D03*
X073200Y051260D02*
D03*
X076750Y050260D02*
D03*
X050710Y054150D02*
D03*
X054157Y054953D02*
D03*
X063934Y053940D02*
D03*
X059320Y063390D02*
D03*
X061570Y064690D02*
D03*
X060870Y064990D02*
D03*
X060370Y065490D02*
D03*
X063170Y064890D02*
D03*
X061120Y065240D02*
D03*
X060465Y065830D02*
D03*
X059720Y062190D02*
D03*
X060420Y064140D02*
D03*
X059870Y064890D02*
D03*
X059770Y065240D02*
D03*
X047520Y074290D02*
D03*
X069170Y070290D02*
D03*
X059970Y062590D02*
D03*
X059020Y062740D02*
D03*
X059670Y063140D02*
D03*
D101*
X058333Y089748D02*
D03*
M02*
