M48
;Layer_Color=9474304
;FILE_FORMAT=2:4
INCH
;TYPE=PLATED
T1F00S00C0.0100
T3F00S00C0.0335
T4F00S00C0.0354
T5F00S00C0.0500
T6F00S00C0.2500
%
T01
X073120Y046292
X078500Y055370
X079790Y055660
X072520Y055940
X073200Y051260
X072820Y050240
X076750Y050260
X063934Y053940
X064070Y059300
X063120Y059290
Y060190
X064470Y060490
X065020Y060690
Y059290
X066920Y061290
X067220Y061840
X068320Y060290
X062170Y059890
Y059290
X062320Y060890
X059720Y062190
X057120Y061440
X057460Y059138
X056020Y059890
X056120Y056590
X055970Y055240
X055470
X056120Y054590
X056420Y054790
X054157Y054953
X055170Y053040
X057420Y052440
X058870Y051690
X059170Y051350
X059570Y050990
Y053030
X059170Y053040
X060470Y054390
X050710Y054150
X050170Y060740
Y061340
X049520Y061590
Y060740
X048570
Y061840
X055420Y062840
X055120Y063240
X054620Y064390
X054070Y065540
X055870Y065590
X059770Y065240
X059870Y064890
X060870Y064990
X061120Y065240
X061570Y064690
X060420Y064140
X060370Y065490
X060465Y065830
X061820Y067690
Y068790
X060420Y069940
X060370Y070335
X060279Y070690
X060570Y072040
X060070Y072190
X059620Y072190
X061170Y071840
X058220Y071186
X055570Y070640
X055270Y070390
X054970Y070140
X054670Y069940
X054370Y069690
X054360Y069080
X054700Y069320
X054570Y071490
X054970Y071740
X055370Y071940
X049220Y072590
X047520Y074290
X058790Y064010
X059020Y063690
X059320Y063390
X059670Y063140
X059970Y062590
X059020Y062740
X062720Y065290
X063170Y064890
X065320Y066990
X066370Y068990
X066720Y068790
X066520Y069590
X065670Y069740
X065170Y070240
X064620Y070690
X065270Y071840
X065570Y072140
X065870Y072440
X066170Y072740
X066470Y072990
X066750Y073260
X069170Y070290
X069220Y066290
Y065290
Y064290
X068620Y063240
X062770Y069540
Y074940
X063045Y075265
X063345Y075565
X058939Y081608
X053139Y081808
X052270Y081740
X051920Y081839
X051570Y081900
X051220Y081960
X050870Y082040
X052470Y083640
X053589Y084358
X054889Y083858
T03
X055020Y085790
X055520Y086290
X056020Y086790
X056020Y085790
X055020Y086790
T04
X072370Y060290
X072370Y061290
Y062290
X044370Y062290
Y061290
Y063290
Y064290
X044370Y065290
Y066290
X044370Y067290
Y068290
X044370Y069290
X044370Y070290
X044370Y071290
X044370Y072290
X044370Y073290
Y074290
Y075290
X072370
Y074290
Y073290
X072370Y072290
X072370Y071290
Y070290
Y069290
Y068290
Y067290
Y066290
X072370Y065290
Y064290
X072370Y063290
X066520Y079890
Y080890
X065520Y080890
X064520
Y079890
X065520
T05
X078170Y051140
X080170
T06
X058333Y089748
M30
