%FSAX24Y24*%
%MOIN*%
G70*
G01*
G75*
G04 Layer_Color=16711935*
G04:AMPARAMS|DCode=10|XSize=40mil|YSize=40mil|CornerRadius=20mil|HoleSize=0mil|Usage=FLASHONLY|Rotation=0.000|XOffset=0mil|YOffset=0mil|HoleType=Round|Shape=RoundedRectangle|*
%AMROUNDEDRECTD10*
21,1,0.0400,0.0000,0,0,0.0*
21,1,0.0000,0.0400,0,0,0.0*
1,1,0.0400,0.0000,0.0000*
1,1,0.0400,0.0000,0.0000*
1,1,0.0400,0.0000,0.0000*
1,1,0.0400,0.0000,0.0000*
%
%ADD10ROUNDEDRECTD10*%
%ADD11R,0.0591X0.0591*%
%ADD12R,0.0079X0.0197*%
%ADD13R,0.2165X0.0787*%
G04:AMPARAMS|DCode=14|XSize=216.5mil|YSize=78.7mil|CornerRadius=0mil|HoleSize=0mil|Usage=FLASHONLY|Rotation=225.000|XOffset=0mil|YOffset=0mil|HoleType=Round|Shape=Rectangle|*
%AMROTATEDRECTD14*
4,1,4,0.0487,0.1044,0.1044,0.0487,-0.0487,-0.1044,-0.1044,-0.0487,0.0487,0.1044,0.0*
%
%ADD14ROTATEDRECTD14*%

%ADD15R,0.2638X0.2638*%
%ADD16R,0.1181X0.0630*%
%ADD17R,0.0866X0.0236*%
%ADD18R,0.0236X0.0866*%
%ADD19R,0.0098X0.0276*%
%ADD20R,0.0276X0.0098*%
%ADD21R,0.0512X0.0610*%
%ADD22R,0.0591X0.0591*%
%ADD23R,0.0591X0.0591*%
%ADD24P,0.0835X4X67.5*%
%ADD25R,0.0512X0.0984*%
G04:AMPARAMS|DCode=26|XSize=21.7mil|YSize=68.9mil|CornerRadius=0mil|HoleSize=0mil|Usage=FLASHONLY|Rotation=45.000|XOffset=0mil|YOffset=0mil|HoleType=Round|Shape=Round|*
%AMOVALD26*
21,1,0.0472,0.0217,0.0000,0.0000,135.0*
1,1,0.0217,0.0167,-0.0167*
1,1,0.0217,-0.0167,0.0167*
%
%ADD26OVALD26*%

G04:AMPARAMS|DCode=27|XSize=21.7mil|YSize=68.9mil|CornerRadius=0mil|HoleSize=0mil|Usage=FLASHONLY|Rotation=135.000|XOffset=0mil|YOffset=0mil|HoleType=Round|Shape=Round|*
%AMOVALD27*
21,1,0.0472,0.0217,0.0000,0.0000,225.0*
1,1,0.0217,0.0167,0.0167*
1,1,0.0217,-0.0167,-0.0167*
%
%ADD27OVALD27*%

%ADD28R,0.0197X0.0236*%
G04:AMPARAMS|DCode=29|XSize=66.9mil|YSize=43.3mil|CornerRadius=0mil|HoleSize=0mil|Usage=FLASHONLY|Rotation=45.000|XOffset=0mil|YOffset=0mil|HoleType=Round|Shape=Rectangle|*
%AMROTATEDRECTD29*
4,1,4,-0.0084,-0.0390,-0.0390,-0.0084,0.0084,0.0390,0.0390,0.0084,-0.0084,-0.0390,0.0*
%
%ADD29ROTATEDRECTD29*%

%ADD30R,0.0433X0.0669*%
%ADD31P,0.0835X4X337.5*%
G04:AMPARAMS|DCode=32|XSize=15.7mil|YSize=53.2mil|CornerRadius=0mil|HoleSize=0mil|Usage=FLASHONLY|Rotation=45.000|XOffset=0mil|YOffset=0mil|HoleType=Round|Shape=Rectangle|*
%AMROTATEDRECTD32*
4,1,4,0.0132,-0.0244,-0.0244,0.0132,-0.0132,0.0244,0.0244,-0.0132,0.0132,-0.0244,0.0*
%
%ADD32ROTATEDRECTD32*%

G04:AMPARAMS|DCode=33|XSize=63mil|YSize=55.1mil|CornerRadius=0mil|HoleSize=0mil|Usage=FLASHONLY|Rotation=45.000|XOffset=0mil|YOffset=0mil|HoleType=Round|Shape=Rectangle|*
%AMROTATEDRECTD33*
4,1,4,-0.0028,-0.0418,-0.0418,-0.0028,0.0028,0.0418,0.0418,0.0028,-0.0028,-0.0418,0.0*
%
%ADD33ROTATEDRECTD33*%

%ADD34P,0.1058X4X90.0*%
%ADD35P,0.0835X4X180.0*%
%ADD36P,0.0835X4X247.5*%
%ADD37P,0.0835X4X270.0*%
%ADD38P,0.0835X4X292.5*%
%ADD39P,0.0835X4X382.5*%
%ADD40P,0.0835X4X112.5*%
%ADD41R,0.0591X0.0591*%
%ADD42P,0.0835X4X157.5*%
%ADD43P,0.0835X4X202.5*%
%ADD44C,0.0512*%
%ADD45C,0.0100*%
%ADD46C,0.0140*%
%ADD47C,0.0200*%
%ADD48C,0.0039*%
%ADD49C,0.0005*%
%ADD50C,0.0800*%
%ADD51C,0.0551*%
%ADD52C,0.0591*%
G04:AMPARAMS|DCode=53|XSize=35.4mil|YSize=63mil|CornerRadius=0mil|HoleSize=0mil|Usage=FLASHONLY|Rotation=45.000|XOffset=0mil|YOffset=0mil|HoleType=Round|Shape=Round|*
%AMOVALD53*
21,1,0.0276,0.0354,0.0000,0.0000,135.0*
1,1,0.0354,0.0097,-0.0097*
1,1,0.0354,-0.0097,0.0097*
%
%ADD53OVALD53*%

%ADD54C,0.2894*%
%ADD55C,0.0200*%
%ADD56C,0.0079*%
%ADD57C,0.0236*%
%ADD58C,0.0098*%
%ADD59C,0.0000*%
%ADD60C,0.0040*%
%ADD61C,0.0080*%
G04:AMPARAMS|DCode=62|XSize=48mil|YSize=48mil|CornerRadius=24mil|HoleSize=0mil|Usage=FLASHONLY|Rotation=0.000|XOffset=0mil|YOffset=0mil|HoleType=Round|Shape=RoundedRectangle|*
%AMROUNDEDRECTD62*
21,1,0.0480,0.0000,0,0,0.0*
21,1,0.0000,0.0480,0,0,0.0*
1,1,0.0480,0.0000,0.0000*
1,1,0.0480,0.0000,0.0000*
1,1,0.0480,0.0000,0.0000*
1,1,0.0480,0.0000,0.0000*
%
%ADD62ROUNDEDRECTD62*%
%ADD63R,0.0671X0.0671*%
%ADD64R,0.0159X0.0277*%
%ADD65R,0.2245X0.0867*%
G04:AMPARAMS|DCode=66|XSize=224.5mil|YSize=86.7mil|CornerRadius=0mil|HoleSize=0mil|Usage=FLASHONLY|Rotation=225.000|XOffset=0mil|YOffset=0mil|HoleType=Round|Shape=Rectangle|*
%AMROTATEDRECTD66*
4,1,4,0.0487,0.1101,0.1101,0.0487,-0.0487,-0.1101,-0.1101,-0.0487,0.0487,0.1101,0.0*
%
%ADD66ROTATEDRECTD66*%

%ADD67R,0.2718X0.2718*%
%ADD68R,0.1261X0.0710*%
%ADD69R,0.0946X0.0316*%
%ADD70R,0.0316X0.0946*%
%ADD71R,0.0178X0.0356*%
%ADD72R,0.0356X0.0178*%
%ADD73R,0.0592X0.0690*%
%ADD74R,0.0671X0.0671*%
%ADD75R,0.0671X0.0671*%
%ADD76P,0.0948X4X67.5*%
%ADD77R,0.0592X0.1064*%
G04:AMPARAMS|DCode=78|XSize=29.7mil|YSize=76.9mil|CornerRadius=0mil|HoleSize=0mil|Usage=FLASHONLY|Rotation=45.000|XOffset=0mil|YOffset=0mil|HoleType=Round|Shape=Round|*
%AMOVALD78*
21,1,0.0472,0.0297,0.0000,0.0000,135.0*
1,1,0.0297,0.0167,-0.0167*
1,1,0.0297,-0.0167,0.0167*
%
%ADD78OVALD78*%

G04:AMPARAMS|DCode=79|XSize=29.7mil|YSize=76.9mil|CornerRadius=0mil|HoleSize=0mil|Usage=FLASHONLY|Rotation=135.000|XOffset=0mil|YOffset=0mil|HoleType=Round|Shape=Round|*
%AMOVALD79*
21,1,0.0472,0.0297,0.0000,0.0000,225.0*
1,1,0.0297,0.0167,0.0167*
1,1,0.0297,-0.0167,-0.0167*
%
%ADD79OVALD79*%

%ADD80R,0.0277X0.0316*%
G04:AMPARAMS|DCode=81|XSize=74.9mil|YSize=51.3mil|CornerRadius=0mil|HoleSize=0mil|Usage=FLASHONLY|Rotation=45.000|XOffset=0mil|YOffset=0mil|HoleType=Round|Shape=Rectangle|*
%AMROTATEDRECTD81*
4,1,4,-0.0084,-0.0446,-0.0446,-0.0084,0.0084,0.0446,0.0446,0.0084,-0.0084,-0.0446,0.0*
%
%ADD81ROTATEDRECTD81*%

%ADD82R,0.0513X0.0749*%
%ADD83P,0.0948X4X337.5*%
G04:AMPARAMS|DCode=84|XSize=23.7mil|YSize=61.2mil|CornerRadius=0mil|HoleSize=0mil|Usage=FLASHONLY|Rotation=45.000|XOffset=0mil|YOffset=0mil|HoleType=Round|Shape=Rectangle|*
%AMROTATEDRECTD84*
4,1,4,0.0132,-0.0300,-0.0300,0.0132,-0.0132,0.0300,0.0300,-0.0132,0.0132,-0.0300,0.0*
%
%ADD84ROTATEDRECTD84*%

G04:AMPARAMS|DCode=85|XSize=71mil|YSize=63.1mil|CornerRadius=0mil|HoleSize=0mil|Usage=FLASHONLY|Rotation=45.000|XOffset=0mil|YOffset=0mil|HoleType=Round|Shape=Rectangle|*
%AMROTATEDRECTD85*
4,1,4,-0.0028,-0.0474,-0.0474,-0.0028,0.0028,0.0474,0.0474,0.0028,-0.0028,-0.0474,0.0*
%
%ADD85ROTATEDRECTD85*%

%ADD86P,0.1171X4X90.0*%
%ADD87P,0.0948X4X180.0*%
%ADD88P,0.0948X4X247.5*%
%ADD89P,0.0948X4X270.0*%
%ADD90P,0.0948X4X292.5*%
%ADD91P,0.0948X4X382.5*%
%ADD92P,0.0948X4X112.5*%
%ADD93R,0.0671X0.0671*%
%ADD94P,0.0948X4X157.5*%
%ADD95P,0.0948X4X202.5*%
%ADD96C,0.0880*%
%ADD97C,0.0631*%
%ADD98C,0.0671*%
G04:AMPARAMS|DCode=99|XSize=43.4mil|YSize=71mil|CornerRadius=0mil|HoleSize=0mil|Usage=FLASHONLY|Rotation=45.000|XOffset=0mil|YOffset=0mil|HoleType=Round|Shape=Round|*
%AMOVALD99*
21,1,0.0276,0.0434,0.0000,0.0000,135.0*
1,1,0.0434,0.0097,-0.0097*
1,1,0.0434,-0.0097,0.0097*
%
%ADD99OVALD99*%

%ADD100C,0.2974*%
%ADD101C,0.0280*%
D49*
X039474Y091520D02*
X077270D01*
X034750Y049000D02*
Y086795D01*
X039474Y044276D02*
X077270D01*
X081994Y049000D02*
Y086795D01*
X034750Y049000D02*
X039474Y044276D01*
X034750Y086795D02*
X039474Y091520D01*
X077270D02*
X081994Y086795D01*
X077270Y044276D02*
X081994Y049000D01*
D63*
X072370Y075290D02*
D03*
X044370Y061290D02*
D03*
D74*
X064520Y079890D02*
D03*
D96*
X078170Y051140D02*
D03*
X080170D02*
D03*
D97*
X055020Y085790D02*
D03*
X055020Y086790D02*
D03*
X056020Y086790D02*
D03*
X056020Y085790D02*
D03*
X055520Y086290D02*
D03*
D98*
X072370Y060290D02*
D03*
X072370Y061290D02*
D03*
Y062290D02*
D03*
Y063290D02*
D03*
X072370Y064290D02*
D03*
Y065290D02*
D03*
X072370Y066290D02*
D03*
Y067290D02*
D03*
Y068290D02*
D03*
Y069290D02*
D03*
Y070290D02*
D03*
Y071290D02*
D03*
X072370Y072290D02*
D03*
X072370Y073290D02*
D03*
Y074290D02*
D03*
X044370Y069290D02*
D03*
X044370Y070290D02*
D03*
X044370Y071290D02*
D03*
X044370Y072290D02*
D03*
X044370Y073290D02*
D03*
Y074290D02*
D03*
Y075290D02*
D03*
Y068290D02*
D03*
Y064290D02*
D03*
Y063290D02*
D03*
Y062290D02*
D03*
X044370Y065290D02*
D03*
Y066290D02*
D03*
X044370Y067290D02*
D03*
X066520Y080890D02*
D03*
X065520Y080890D02*
D03*
X064520D02*
D03*
X066520Y079890D02*
D03*
X065520Y079890D02*
D03*
D99*
X080139Y048009D02*
D03*
X078301Y046171D02*
D03*
D100*
X058333Y089748D02*
D03*
D101*
X059670Y063140D02*
D03*
X059020Y062740D02*
D03*
X059970Y062590D02*
D03*
X069170Y070290D02*
D03*
X047520Y074290D02*
D03*
X059770Y065240D02*
D03*
X059870Y064890D02*
D03*
X060420Y064140D02*
D03*
X059720Y062190D02*
D03*
X060465Y065830D02*
D03*
X061120Y065240D02*
D03*
X063170Y064890D02*
D03*
X060370Y065490D02*
D03*
X060870Y064990D02*
D03*
X061570Y064690D02*
D03*
X059320Y063390D02*
D03*
X063934Y053940D02*
D03*
X054157Y054953D02*
D03*
X050710Y054150D02*
D03*
X076750Y050260D02*
D03*
X073200Y051260D02*
D03*
X061820Y068790D02*
D03*
Y067690D02*
D03*
X060279Y070690D02*
D03*
X060420Y069940D02*
D03*
X060370Y070335D02*
D03*
X058220Y071186D02*
D03*
X054070Y065540D02*
D03*
X055870Y065590D02*
D03*
X054620Y064390D02*
D03*
X054360Y069080D02*
D03*
X054700Y069320D02*
D03*
X054370Y069690D02*
D03*
X054670Y069940D02*
D03*
X054970Y070140D02*
D03*
X055270Y070390D02*
D03*
X055570Y070640D02*
D03*
X055370Y071940D02*
D03*
X054970Y071740D02*
D03*
X054570Y071490D02*
D03*
X049220Y072590D02*
D03*
X059620Y072190D02*
D03*
X060070Y072190D02*
D03*
X060570Y072040D02*
D03*
X055120Y063240D02*
D03*
X055420Y062840D02*
D03*
X058790Y064010D02*
D03*
X059020Y063690D02*
D03*
X064620Y070690D02*
D03*
X065170Y070240D02*
D03*
X065670Y069740D02*
D03*
X066520Y069590D02*
D03*
X054889Y083858D02*
D03*
X053589Y084358D02*
D03*
X053139Y081808D02*
D03*
X058939Y081608D02*
D03*
X060470Y054390D02*
D03*
X055970Y055240D02*
D03*
X055470D02*
D03*
X056420Y054790D02*
D03*
X056120Y054590D02*
D03*
Y056590D02*
D03*
X057420Y052440D02*
D03*
X056020Y059890D02*
D03*
X055170Y053040D02*
D03*
X050170Y060740D02*
D03*
Y061340D02*
D03*
X049520Y060740D02*
D03*
Y061590D02*
D03*
X048570Y060740D02*
D03*
Y061840D02*
D03*
X059570Y053030D02*
D03*
X059170Y053040D02*
D03*
Y051350D02*
D03*
X059570Y050990D02*
D03*
X057460Y059138D02*
D03*
X058870Y051690D02*
D03*
X062170Y059290D02*
D03*
Y059890D02*
D03*
X063120Y059290D02*
D03*
Y060190D02*
D03*
X064070Y059300D02*
D03*
X064470Y060490D02*
D03*
X065020Y059290D02*
D03*
Y060690D02*
D03*
X073120Y046292D02*
D03*
X072820Y050240D02*
D03*
X068320Y060290D02*
D03*
X062320Y060890D02*
D03*
X078500Y055370D02*
D03*
X079790Y055660D02*
D03*
X057120Y061440D02*
D03*
X072520Y055940D02*
D03*
X066920Y061290D02*
D03*
X065320Y066990D02*
D03*
X062770Y069540D02*
D03*
X061170Y071840D02*
D03*
X052270Y081740D02*
D03*
X051920Y081839D02*
D03*
X051570Y081900D02*
D03*
X051220Y081960D02*
D03*
X050870Y082040D02*
D03*
X052470Y083640D02*
D03*
X066720Y068790D02*
D03*
X066470Y072990D02*
D03*
X066170Y072740D02*
D03*
X069220Y066290D02*
D03*
X063345Y075565D02*
D03*
X065870Y072440D02*
D03*
X069220Y065290D02*
D03*
X063045Y075265D02*
D03*
X065570Y072140D02*
D03*
X069220Y064290D02*
D03*
X062770Y074940D02*
D03*
X065270Y071840D02*
D03*
X062720Y065290D02*
D03*
X066370Y068990D02*
D03*
X068620Y063240D02*
D03*
X066750Y073260D02*
D03*
X067220Y061840D02*
D03*
M02*
